# Blender v2.79 (sub 0) OBJ File: ''
# www.blender.org
mtllib eixo_incharge.mtl
o eixo_incharge
v 239.567703 1980.000000 -130.176712
v 240.000000 1980.000000 -120.000000
v 240.000000 0.000000 -120.000000
v 239.567703 0.000000 -109.823288
v 239.567703 1980.000000 -109.823288
v 236.127945 1980.000000 -89.762627
v 236.127945 0.000000 -89.762627
v 229.347412 1980.000000 -70.571846
v 229.347412 0.000000 -70.571846
v 219.421143 1980.000000 -52.803024
v 219.421143 0.000000 -52.803024
v 206.634735 1980.000000 -36.967331
v 206.634735 0.000000 -36.967331
v 191.355972 1980.000000 -23.520344
v 191.355972 0.000000 -23.520344
v 174.024445 1980.000000 -12.848891
v 174.024445 0.000000 -12.848891
v 155.138733 1980.000000 -5.259991
v 155.138733 0.000000 -5.259991
v 135.242142 1980.000000 -0.971943
v 135.242142 0.000000 -0.971943
v 114.907059 1980.000000 -0.108123
v 114.907059 0.000000 -0.108123
v 94.718483 1980.000000 -2.693370
v 94.718483 0.000000 -2.693370
v 75.257217 1980.000000 -8.653313
v 75.257217 0.000000 -8.653313
v 57.083122 1980.000000 -17.816500
v 57.083122 0.000000 -17.816500
v 40.719032 1980.000000 -29.919319
v 40.719032 0.000000 -29.919319
v 26.635706 1980.000000 -44.613602
v 26.635706 0.000000 -44.613602
v 15.238307 1980.000000 -61.476604
v 15.238307 0.000000 -61.476604
v 6.854705 1980.000000 -80.023224
v 6.854705 0.000000 -80.023224
v 1.726091 1980.000000 -99.719894
v 1.726091 0.000000 -99.719894
v 0.000000 1980.000000 -120.000000
v 0.000000 0.000000 -120.000000
v 1.726091 1980.000000 -140.280090
v 1.726091 0.000000 -140.280090
v 6.854705 1980.000000 -159.976776
v 6.854705 0.000000 -159.976776
v 15.238307 1980.000000 -178.523392
v 15.238307 0.000000 -178.523392
v 26.635706 1980.000000 -195.386398
v 26.635706 0.000000 -195.386398
v 40.719032 1980.000000 -210.080688
v 40.719032 0.000000 -210.080688
v 57.083122 1980.000000 -222.183502
v 57.083122 0.000000 -222.183502
v 75.257217 1980.000000 -231.346680
v 75.257217 0.000000 -231.346680
v 94.718483 1980.000000 -237.306625
v 94.718483 0.000000 -237.306625
v 114.907059 1980.000000 -239.891876
v 114.907059 0.000000 -239.891876
v 135.242142 1980.000000 -239.028046
v 135.242142 0.000000 -239.028046
v 155.138733 1980.000000 -234.740005
v 155.138733 0.000000 -234.740005
v 174.024445 1980.000000 -227.151093
v 174.024445 0.000000 -227.151093
v 191.355972 1980.000000 -216.479660
v 191.355972 0.000000 -216.479660
v 206.634735 1980.000000 -203.032669
v 206.634735 0.000000 -203.032669
v 219.421143 1980.000000 -187.196976
v 219.421143 0.000000 -187.196976
v 229.347412 1980.000000 -169.428146
v 229.347412 0.000000 -169.428146
v 236.127945 1980.000000 -150.237366
v 236.127945 0.000000 -150.237366
v 239.567703 0.000000 -130.176712
v 120.000000 1980.000000 -120.000000
v 120.000000 0.000000 -120.000000
vn 0.9991 0.0000 -0.0424
vn 0.9991 0.0000 0.0424
vn 0.9856 0.0000 0.1690
vn 0.9429 0.0000 0.3331
vn 0.8730 0.0000 0.4877
vn 0.7780 0.0000 0.6282
vn 0.6607 0.0000 0.7507
vn 0.5243 0.0000 0.8515
vn 0.3729 0.0000 0.9279
vn 0.2107 0.0000 0.9776
vn 0.0424 0.0000 0.9991
vn -0.1270 0.0000 0.9919
vn -0.2928 0.0000 0.9562
vn -0.4502 0.0000 0.8929
vn -0.5946 0.0000 0.8040
vn -0.7220 0.0000 0.6919
vn -0.8285 0.0000 0.5600
vn -0.9112 0.0000 0.4119
vn -0.9677 0.0000 0.2520
vn -0.9964 0.0000 0.0848
vn -0.9964 0.0000 -0.0848
vn -0.9677 0.0000 -0.2520
vn -0.9112 0.0000 -0.4119
vn -0.8285 0.0000 -0.5600
vn -0.7220 0.0000 -0.6919
vn -0.5946 0.0000 -0.8040
vn -0.4502 0.0000 -0.8929
vn -0.2928 0.0000 -0.9562
vn -0.1270 0.0000 -0.9919
vn 0.0424 0.0000 -0.9991
vn 0.2107 0.0000 -0.9776
vn 0.3729 0.0000 -0.9279
vn 0.5243 0.0000 -0.8515
vn 0.6607 0.0000 -0.7507
vn 0.7780 0.0000 -0.6282
vn 0.8730 0.0000 -0.4877
vn 0.9429 0.0000 -0.3331
vn 0.9856 0.0000 -0.1690
vn 0.0000 1.0000 0.0000
vn 0.0000 -1.0000 0.0000
usemtl None
s off
f 1//1 2//1 3//1
f 3//2 2//2 4//2
f 2//2 5//2 4//2
f 4//3 5//3 6//3
f 4//3 6//3 7//3
f 7//4 6//4 8//4
f 7//4 8//4 9//4
f 9//5 8//5 10//5
f 9//5 10//5 11//5
f 11//6 10//6 12//6
f 11//6 12//6 13//6
f 13//7 12//7 14//7
f 13//7 14//7 15//7
f 15//8 14//8 16//8
f 15//8 16//8 17//8
f 17//9 16//9 18//9
f 17//9 18//9 19//9
f 19//10 18//10 20//10
f 19//10 20//10 21//10
f 21//11 20//11 22//11
f 21//11 22//11 23//11
f 23//12 22//12 24//12
f 23//12 24//12 25//12
f 25//13 24//13 26//13
f 25//13 26//13 27//13
f 27//14 26//14 28//14
f 27//14 28//14 29//14
f 29//15 28//15 30//15
f 29//15 30//15 31//15
f 31//16 30//16 32//16
f 31//16 32//16 33//16
f 33//17 32//17 34//17
f 33//17 34//17 35//17
f 35//18 34//18 36//18
f 35//18 36//18 37//18
f 37//19 36//19 38//19
f 37//19 38//19 39//19
f 39//20 38//20 40//20
f 39//20 40//20 41//20
f 41//21 40//21 42//21
f 41//21 42//21 43//21
f 43//22 42//22 44//22
f 43//22 44//22 45//22
f 45//23 44//23 46//23
f 45//23 46//23 47//23
f 47//24 46//24 48//24
f 47//24 48//24 49//24
f 49//25 48//25 50//25
f 49//25 50//25 51//25
f 51//26 50//26 52//26
f 51//26 52//26 53//26
f 53//27 52//27 54//27
f 53//27 54//27 55//27
f 55//28 54//28 56//28
f 55//28 56//28 57//28
f 57//29 56//29 58//29
f 57//29 58//29 59//29
f 59//30 58//30 60//30
f 59//30 60//30 61//30
f 61//31 60//31 62//31
f 61//31 62//31 63//31
f 63//32 62//32 64//32
f 63//32 64//32 65//32
f 65//33 64//33 66//33
f 65//33 66//33 67//33
f 67//34 66//34 68//34
f 67//34 68//34 69//34
f 69//35 68//35 70//35
f 69//35 70//35 71//35
f 71//36 70//36 72//36
f 71//36 72//36 73//36
f 73//37 72//37 74//37
f 73//37 74//37 75//37
f 75//38 74//38 1//38
f 75//38 1//38 76//38
f 76//1 1//1 3//1
f 2//39 1//39 77//39
f 2//39 77//39 5//39
f 10//39 8//39 77//39
f 77//39 8//39 6//39
f 77//39 6//39 5//39
f 16//39 14//39 77//39
f 77//39 14//39 12//39
f 77//39 12//39 10//39
f 22//39 20//39 77//39
f 77//39 20//39 18//39
f 77//39 18//39 16//39
f 28//39 26//39 77//39
f 77//39 26//39 24//39
f 77//39 24//39 22//39
f 34//39 32//39 77//39
f 77//39 32//39 30//39
f 77//39 30//39 28//39
f 40//39 38//39 77//39
f 77//39 38//39 36//39
f 77//39 36//39 34//39
f 46//39 44//39 77//39
f 77//39 44//39 42//39
f 77//39 42//39 40//39
f 52//39 50//39 77//39
f 77//39 50//39 48//39
f 77//39 48//39 46//39
f 58//39 56//39 77//39
f 77//39 56//39 54//39
f 77//39 54//39 52//39
f 64//39 62//39 77//39
f 77//39 62//39 60//39
f 77//39 60//39 58//39
f 70//39 68//39 77//39
f 77//39 68//39 66//39
f 77//39 66//39 64//39
f 1//39 74//39 77//39
f 77//39 74//39 72//39
f 77//39 72//39 70//39
f 3//40 4//40 78//40
f 3//40 78//40 76//40
f 71//40 73//40 78//40
f 78//40 73//40 75//40
f 78//40 75//40 76//40
f 65//40 67//40 78//40
f 78//40 67//40 69//40
f 78//40 69//40 71//40
f 59//40 61//40 78//40
f 78//40 61//40 63//40
f 78//40 63//40 65//40
f 53//40 55//40 78//40
f 78//40 55//40 57//40
f 78//40 57//40 59//40
f 47//40 49//40 78//40
f 78//40 49//40 51//40
f 78//40 51//40 53//40
f 41//40 43//40 78//40
f 78//40 43//40 45//40
f 78//40 45//40 47//40
f 35//40 37//40 78//40
f 78//40 37//40 39//40
f 78//40 39//40 41//40
f 29//40 31//40 78//40
f 78//40 31//40 33//40
f 78//40 33//40 35//40
f 23//40 25//40 78//40
f 78//40 25//40 27//40
f 78//40 27//40 29//40
f 17//40 19//40 78//40
f 78//40 19//40 21//40
f 78//40 21//40 23//40
f 11//40 13//40 78//40
f 78//40 13//40 15//40
f 78//40 15//40 17//40
f 4//40 7//40 78//40
f 78//40 7//40 9//40
f 78//40 9//40 11//40
