# Blender v2.79 (sub 0) OBJ File: ''
# www.blender.org
mtllib 2034.mtl
o 2034
v 16.969379 183.000000 -9.220851
v 17.000000 183.000000 -8.500000
v 17.000000 0.000000 -8.500000
v 16.969379 0.000000 -7.779150
v 16.969379 183.000000 -7.779150
v 16.725731 183.000000 -6.358187
v 16.725731 0.000000 -6.358187
v 16.245443 183.000000 -4.998840
v 16.245443 0.000000 -4.998840
v 15.542332 183.000000 -3.740215
v 15.542332 0.000000 -3.740215
v 14.636627 183.000000 -2.618520
v 14.636627 0.000000 -2.618520
v 13.554383 183.000000 -1.666025
v 13.554383 0.000000 -1.666025
v 12.326733 183.000000 -0.910131
v 12.326733 0.000000 -0.910131
v 10.988994 183.000000 -0.372583
v 10.988994 0.000000 -0.372583
v 9.579652 183.000000 -0.068847
v 9.579652 0.000000 -0.068847
v 8.139250 183.000000 -0.007659
v 8.139250 0.000000 -0.007659
v 6.709227 183.000000 -0.190780
v 6.709227 0.000000 -0.190780
v 5.330720 183.000000 -0.612943
v 5.330720 0.000000 -0.612943
v 4.043389 183.000000 -1.262003
v 4.043389 0.000000 -1.262003
v 2.884265 183.000000 -2.119286
v 2.884265 0.000000 -2.119286
v 1.886697 183.000000 -3.160131
v 1.886697 0.000000 -3.160131
v 1.079381 183.000000 -4.354593
v 1.079381 0.000000 -4.354593
v 0.485542 183.000000 -5.668312
v 0.485542 0.000000 -5.668312
v 0.122265 183.000000 -7.063494
v 0.122265 0.000000 -7.063494
v 0.000000 183.000000 -8.500000
v 0.000000 0.000000 -8.500000
v 0.122265 183.000000 -9.936508
v 0.122265 0.000000 -9.936508
v 0.485542 183.000000 -11.331689
v 0.485542 0.000000 -11.331689
v 1.079381 183.000000 -12.645408
v 1.079381 0.000000 -12.645408
v 1.886697 183.000000 -13.839870
v 1.886697 0.000000 -13.839870
v 2.884265 183.000000 -14.880715
v 2.884265 0.000000 -14.880715
v 4.043389 183.000000 -15.737999
v 4.043389 0.000000 -15.737999
v 5.330720 183.000000 -16.387056
v 5.330720 0.000000 -16.387056
v 6.709227 183.000000 -16.809221
v 6.709227 0.000000 -16.809221
v 8.139250 183.000000 -16.992342
v 8.139250 0.000000 -16.992342
v 9.579652 183.000000 -16.931154
v 9.579652 0.000000 -16.931154
v 10.988994 183.000000 -16.627419
v 10.988994 0.000000 -16.627419
v 12.326733 183.000000 -16.089870
v 12.326733 0.000000 -16.089870
v 13.554383 183.000000 -15.333977
v 13.554383 0.000000 -15.333977
v 14.636627 183.000000 -14.381481
v 14.636627 0.000000 -14.381481
v 15.542332 183.000000 -13.259787
v 15.542332 0.000000 -13.259787
v 16.245443 183.000000 -12.001161
v 16.245443 0.000000 -12.001161
v 16.725731 183.000000 -10.641814
v 16.725731 0.000000 -10.641814
v 16.969379 0.000000 -9.220851
v 13.083115 183.000000 -7.714147
v 13.150001 183.000000 -8.500000
v 8.697352 183.000000 -3.854190
v 4.000042 183.000000 -7.328302
v 12.884380 183.000000 -6.950901
v 12.559516 183.000000 -6.232219
v 12.117867 183.000000 -5.578778
v 4.262788 183.000000 -6.584660
v 4.647430 183.000000 -5.896118
v 5.142905 183.000000 -5.282485
v 9.479659 183.000000 -3.954369
v 10.233783 183.000000 -4.185317
v 7.909368 183.000000 -3.887664
v 7.138375 183.000000 -4.053825
v 6.406553 183.000000 -4.347895
v 5.734956 183.000000 -4.761414
v 7.138375 183.000000 -12.946176
v 7.909368 183.000000 -13.112337
v 11.572138 183.000000 -5.009375
v 10.938029 183.000000 -4.540390
v 8.697352 183.000000 -13.145810
v 9.479659 183.000000 -13.045632
v 10.233783 183.000000 -12.814684
v 10.938029 183.000000 -12.459612
v 11.572138 183.000000 -11.990626
v 12.117867 183.000000 -11.421224
v 12.559516 183.000000 -10.767782
v 12.884380 183.000000 -10.049101
v 13.083115 183.000000 -9.285854
v 3.866752 183.000000 -8.105654
v 3.866752 183.000000 -8.894347
v 4.000042 183.000000 -9.671699
v 4.262788 183.000000 -10.415341
v 4.647430 183.000000 -11.103884
v 5.142905 183.000000 -11.717516
v 5.734956 183.000000 -12.238587
v 6.406553 183.000000 -12.652105
v 8.500000 0.000000 -8.500000
v 13.150001 150.500000 -8.500000
v 13.083115 150.500000 -9.285854
v 12.884380 150.500000 -10.049101
v 12.559516 150.500000 -10.767782
v 12.117867 150.500000 -11.421224
v 11.572138 150.500000 -11.990626
v 10.938029 150.500000 -12.459612
v 10.233783 150.500000 -12.814684
v 9.479659 150.500000 -13.045632
v 8.697352 150.500000 -13.145810
v 7.909368 150.500000 -13.112337
v 7.138375 150.500000 -12.946176
v 6.406553 150.500000 -12.652105
v 5.734956 150.500000 -12.238587
v 5.142905 150.500000 -11.717516
v 4.647430 150.500000 -11.103884
v 4.262788 150.500000 -10.415341
v 4.000042 150.500000 -9.671699
v 3.866752 150.500000 -8.894347
v 3.866752 150.500000 -8.105654
v 4.000042 150.500000 -7.328302
v 4.262788 150.500000 -6.584660
v 4.647430 150.500000 -5.896118
v 5.142905 150.500000 -5.282485
v 5.734956 150.500000 -4.761414
v 6.406553 150.500000 -4.347895
v 7.138375 150.500000 -4.053825
v 7.909368 150.500000 -3.887664
v 8.697352 150.500000 -3.854190
v 9.479659 150.500000 -3.954369
v 10.233783 150.500000 -4.185317
v 10.938029 150.500000 -4.540390
v 11.572138 150.500000 -5.009375
v 12.117867 150.500000 -5.578778
v 12.559516 150.500000 -6.232219
v 12.884380 150.500000 -6.950901
v 13.083115 150.500000 -7.714147
v 8.500000 150.500000 -8.500000
vn 0.9991 0.0000 -0.0424
vn 0.9991 0.0000 0.0424
vn 0.9856 0.0000 0.1690
vn 0.9429 0.0000 0.3331
vn 0.8730 0.0000 0.4877
vn 0.7780 0.0000 0.6282
vn 0.6607 0.0000 0.7507
vn 0.5243 0.0000 0.8515
vn 0.3729 0.0000 0.9279
vn 0.2107 0.0000 0.9776
vn 0.0424 0.0000 0.9991
vn -0.1270 0.0000 0.9919
vn -0.2928 0.0000 0.9562
vn -0.4502 0.0000 0.8929
vn -0.5946 0.0000 0.8040
vn -0.7220 0.0000 0.6919
vn -0.8285 0.0000 0.5600
vn -0.9112 0.0000 0.4119
vn -0.9677 0.0000 0.2520
vn -0.9964 0.0000 0.0848
vn -0.9964 0.0000 -0.0848
vn -0.9677 0.0000 -0.2520
vn -0.9112 0.0000 -0.4119
vn -0.8285 0.0000 -0.5600
vn -0.7220 0.0000 -0.6919
vn -0.5946 0.0000 -0.8040
vn -0.4502 0.0000 -0.8929
vn -0.2928 0.0000 -0.9562
vn -0.1270 0.0000 -0.9919
vn 0.0424 0.0000 -0.9991
vn 0.2107 0.0000 -0.9776
vn 0.3729 0.0000 -0.9279
vn 0.5243 0.0000 -0.8515
vn 0.6607 0.0000 -0.7507
vn 0.7780 0.0000 -0.6282
vn 0.8730 0.0000 -0.4877
vn 0.9429 0.0000 -0.3331
vn 0.9856 0.0000 -0.1690
vn 0.0000 1.0000 0.0000
vn 0.0000 -1.0000 0.0000
vn 1.0000 0.0000 0.0000
usemtl None
s off
f 1//1 2//1 3//1
f 3//2 2//2 4//2
f 2//2 5//2 4//2
f 4//3 5//3 6//3
f 4//3 6//3 7//3
f 7//4 6//4 8//4
f 7//4 8//4 9//4
f 9//5 8//5 10//5
f 9//5 10//5 11//5
f 11//6 10//6 12//6
f 11//6 12//6 13//6
f 13//7 12//7 14//7
f 13//7 14//7 15//7
f 15//8 14//8 16//8
f 15//8 16//8 17//8
f 17//9 16//9 18//9
f 17//9 18//9 19//9
f 19//10 18//10 20//10
f 19//10 20//10 21//10
f 21//11 20//11 22//11
f 21//11 22//11 23//11
f 23//12 22//12 24//12
f 23//12 24//12 25//12
f 25//13 24//13 26//13
f 25//13 26//13 27//13
f 27//14 26//14 28//14
f 27//14 28//14 29//14
f 29//15 28//15 30//15
f 29//15 30//15 31//15
f 31//16 30//16 32//16
f 31//16 32//16 33//16
f 33//17 32//17 34//17
f 33//17 34//17 35//17
f 35//18 34//18 36//18
f 35//18 36//18 37//18
f 37//19 36//19 38//19
f 37//19 38//19 39//19
f 39//20 38//20 40//20
f 39//20 40//20 41//20
f 41//21 40//21 42//21
f 41//21 42//21 43//21
f 43//22 42//22 44//22
f 43//22 44//22 45//22
f 45//23 44//23 46//23
f 45//23 46//23 47//23
f 47//24 46//24 48//24
f 47//24 48//24 49//24
f 49//25 48//25 50//25
f 49//25 50//25 51//25
f 51//26 50//26 52//26
f 51//26 52//26 53//26
f 53//27 52//27 54//27
f 53//27 54//27 55//27
f 55//28 54//28 56//28
f 55//28 56//28 57//28
f 57//29 56//29 58//29
f 57//29 58//29 59//29
f 59//30 58//30 60//30
f 59//30 60//30 61//30
f 61//31 60//31 62//31
f 61//31 62//31 63//31
f 63//32 62//32 64//32
f 63//32 64//32 65//32
f 65//33 64//33 66//33
f 65//33 66//33 67//33
f 67//34 66//34 68//34
f 67//34 68//34 69//34
f 69//35 68//35 70//35
f 69//35 70//35 71//35
f 71//36 70//36 72//36
f 71//36 72//36 73//36
f 73//37 72//37 74//37
f 73//37 74//37 75//37
f 75//38 74//38 1//38
f 75//38 1//38 76//38
f 76//1 1//1 3//1
f 6//39 5//39 77//39
f 77//39 5//39 78//39
f 24//39 22//39 79//39
f 40//39 38//39 80//39
f 6//39 77//39 8//39
f 8//39 77//39 81//39
f 8//39 81//39 10//39
f 10//39 81//39 82//39
f 10//39 82//39 12//39
f 12//39 82//39 83//39
f 12//39 83//39 14//39
f 80//39 38//39 84//39
f 84//39 38//39 36//39
f 84//39 36//39 85//39
f 85//39 36//39 34//39
f 85//39 34//39 86//39
f 79//39 22//39 87//39
f 87//39 22//39 20//39
f 87//39 20//39 88//39
f 79//39 89//39 24//39
f 24//39 89//39 90//39
f 24//39 90//39 26//39
f 26//39 90//39 91//39
f 26//39 91//39 28//39
f 28//39 91//39 92//39
f 28//39 92//39 30//39
f 30//39 92//39 86//39
f 30//39 86//39 32//39
f 32//39 86//39 34//39
f 93//39 94//39 58//39
f 58//39 94//39 60//39
f 83//39 95//39 14//39
f 14//39 95//39 96//39
f 14//39 96//39 16//39
f 16//39 96//39 88//39
f 16//39 88//39 18//39
f 18//39 88//39 20//39
f 94//39 97//39 60//39
f 60//39 97//39 98//39
f 60//39 98//39 62//39
f 62//39 98//39 99//39
f 62//39 99//39 64//39
f 64//39 99//39 100//39
f 64//39 100//39 66//39
f 66//39 100//39 101//39
f 66//39 101//39 68//39
f 68//39 101//39 102//39
f 68//39 102//39 70//39
f 70//39 102//39 103//39
f 70//39 103//39 72//39
f 72//39 103//39 104//39
f 72//39 104//39 74//39
f 74//39 104//39 105//39
f 74//39 105//39 1//39
f 1//39 105//39 78//39
f 1//39 78//39 2//39
f 2//39 78//39 5//39
f 80//39 106//39 40//39
f 40//39 106//39 107//39
f 40//39 107//39 42//39
f 42//39 107//39 108//39
f 42//39 108//39 44//39
f 44//39 108//39 109//39
f 44//39 109//39 46//39
f 46//39 109//39 110//39
f 46//39 110//39 48//39
f 48//39 110//39 111//39
f 48//39 111//39 50//39
f 50//39 111//39 112//39
f 50//39 112//39 52//39
f 52//39 112//39 113//39
f 52//39 113//39 54//39
f 54//39 113//39 93//39
f 54//39 93//39 56//39
f 56//39 93//39 58//39
f 3//40 4//40 114//40
f 3//40 114//40 76//40
f 71//40 73//40 114//40
f 114//40 73//40 75//40
f 114//40 75//40 76//40
f 65//40 67//40 114//40
f 114//40 67//40 69//40
f 114//40 69//40 71//40
f 59//40 61//40 114//40
f 114//40 61//40 63//40
f 114//40 63//40 65//40
f 53//40 55//40 114//40
f 114//40 55//40 57//40
f 114//40 57//40 59//40
f 47//40 49//40 114//40
f 114//40 49//40 51//40
f 114//40 51//40 53//40
f 41//40 43//40 114//40
f 114//40 43//40 45//40
f 114//40 45//40 47//40
f 35//40 37//40 114//40
f 114//40 37//40 39//40
f 114//40 39//40 41//40
f 29//40 31//40 114//40
f 114//40 31//40 33//40
f 114//40 33//40 35//40
f 23//40 25//40 114//40
f 114//40 25//40 27//40
f 114//40 27//40 29//40
f 17//40 19//40 114//40
f 114//40 19//40 21//40
f 114//40 21//40 23//40
f 11//40 13//40 114//40
f 114//40 13//40 15//40
f 114//40 15//40 17//40
f 4//40 7//40 114//40
f 114//40 7//40 9//40
f 114//40 9//40 11//40
f 115//20 78//20 116//20
f 116//20 78//20 105//20
f 116//19 105//19 117//19
f 117//19 105//19 104//19
f 117//18 104//18 118//18
f 118//18 104//18 103//18
f 118//17 103//17 119//17
f 119//17 103//17 102//17
f 119//16 102//16 120//16
f 120//16 102//16 101//16
f 120//15 101//15 121//15
f 121//15 101//15 100//15
f 121//14 100//14 122//14
f 122//14 100//14 99//14
f 122//13 99//13 123//13
f 123//13 99//13 98//13
f 123//12 98//12 124//12
f 124//12 98//12 97//12
f 124//11 97//11 125//11
f 125//11 97//11 94//11
f 125//10 94//10 126//10
f 126//10 94//10 93//10
f 126//9 93//9 127//9
f 127//9 93//9 113//9
f 127//8 113//8 128//8
f 128//8 113//8 112//8
f 128//7 112//7 129//7
f 129//7 112//7 111//7
f 129//6 111//6 130//6
f 130//6 111//6 110//6
f 130//5 110//5 131//5
f 131//5 110//5 109//5
f 131//4 109//4 132//4
f 132//4 109//4 108//4
f 132//3 108//3 133//3
f 133//3 108//3 107//3
f 133//41 107//41 134//41
f 134//41 107//41 106//41
f 134//38 106//38 135//38
f 135//38 106//38 80//38
f 135//37 80//37 136//37
f 136//37 80//37 84//37
f 136//36 84//36 137//36
f 137//36 84//36 85//36
f 137//35 85//35 138//35
f 138//35 85//35 86//35
f 138//34 86//34 139//34
f 139//34 86//34 92//34
f 139//33 92//33 140//33
f 140//33 92//33 91//33
f 140//32 91//32 141//32
f 141//32 91//32 90//32
f 141//31 90//31 142//31
f 142//31 90//31 89//31
f 142//30 89//30 143//30
f 143//30 89//30 79//30
f 143//29 79//29 144//29
f 144//29 79//29 87//29
f 144//28 87//28 145//28
f 145//28 87//28 88//28
f 145//27 88//27 146//27
f 146//27 88//27 96//27
f 146//26 96//26 147//26
f 147//26 96//26 95//26
f 147//25 95//25 148//25
f 148//25 95//25 83//25
f 148//24 83//24 149//24
f 149//24 83//24 82//24
f 149//23 82//23 150//23
f 150//23 82//23 81//23
f 150//22 81//22 151//22
f 151//22 81//22 77//22
f 151//21 77//21 115//21
f 115//21 77//21 78//21
f 115//39 116//39 152//39
f 149//39 150//39 152//39
f 152//39 150//39 151//39
f 152//39 151//39 115//39
f 146//39 147//39 152//39
f 152//39 147//39 148//39
f 152//39 148//39 149//39
f 143//39 144//39 152//39
f 152//39 144//39 145//39
f 152//39 145//39 146//39
f 140//39 141//39 152//39
f 152//39 141//39 142//39
f 152//39 142//39 143//39
f 137//39 138//39 152//39
f 152//39 138//39 139//39
f 152//39 139//39 140//39
f 134//39 135//39 152//39
f 152//39 135//39 136//39
f 152//39 136//39 137//39
f 131//39 132//39 152//39
f 152//39 132//39 133//39
f 152//39 133//39 134//39
f 128//39 129//39 152//39
f 152//39 129//39 130//39
f 152//39 130//39 131//39
f 125//39 126//39 152//39
f 152//39 126//39 127//39
f 152//39 127//39 128//39
f 122//39 123//39 152//39
f 152//39 123//39 124//39
f 152//39 124//39 125//39
f 119//39 120//39 152//39
f 152//39 120//39 121//39
f 152//39 121//39 122//39
f 116//39 117//39 152//39
f 152//39 117//39 118//39
f 152//39 118//39 119//39
