# Blender v2.79 (sub 0) OBJ File: ''
# www.blender.org
mtllib 302 (12242-CC93).mtl
o 302_(12242-CC93)
v 42.849998 76.781891 -42.592297
v 0.000000 77.000000 -38.500000
v 42.849998 77.000000 -38.500000
v 0.000000 76.781891 -34.407700
v 42.849998 76.781891 -34.407700
v 0.000000 76.130035 -30.361769
v 42.849998 76.130035 -30.361769
v 0.000000 75.051804 -26.408047
v 42.849998 75.051804 -26.408047
v 0.000000 73.559433 -22.591330
v 42.849998 73.559433 -22.591330
v 0.000000 71.669830 -18.954866
v 42.849998 71.669830 -18.954866
v 0.000000 69.404396 -15.539857
v 42.849998 69.404396 -15.539857
v 0.000000 66.788811 -12.384994
v 42.849998 66.788811 -12.384994
v 0.000000 63.852692 -9.526026
v 42.849998 63.852692 -9.526026
v 0.000000 60.629314 -6.995343
v 42.849998 60.629314 -6.995343
v 0.000000 57.155209 -4.821621
v 42.849998 57.155209 -4.821621
v 0.000000 53.469734 -3.029488
v 42.849998 53.469734 -3.029488
v 0.000000 49.614639 -1.639251
v 42.849998 49.614639 -1.639251
v 0.000000 45.633614 -0.666659
v 42.849998 45.633614 -0.666659
v 0.000000 41.571766 -0.122737
v 42.849998 41.571766 -0.122737
v 0.000000 37.475109 -0.013642
v 42.849998 37.475109 -0.013642
v 0.000000 33.390068 -0.340614
v 42.849998 33.390068 -0.340614
v 0.000000 29.362921 -1.099948
v 42.849998 29.362921 -1.099948
v 0.000000 25.439302 -2.283041
v 42.849998 25.439302 -2.283041
v 0.000000 21.663668 -3.876481
v 42.849998 21.663668 -3.876481
v 0.000000 18.078794 -5.862225
v 42.849998 18.078794 -5.862225
v 0.000000 14.725302 -8.217765
v 42.849998 14.725302 -8.217765
v 0.000000 11.641186 -10.916415
v 42.849998 11.641186 -10.916415
v 0.000000 8.861391 -13.927599
v 42.849998 8.861391 -13.927599
v 0.000000 6.417412 -17.217197
v 42.849998 6.417412 -17.217197
v 0.000000 4.336946 -20.747940
v 42.849998 4.336946 -20.747940
v 0.000000 2.643555 -24.479818
v 42.849998 2.643555 -24.479818
v 0.000000 1.356438 -28.370552
v 42.849998 1.356438 -28.370552
v 0.000000 0.490170 -32.376053
v 42.849998 0.490170 -32.376053
v 0.000000 0.054564 -36.450943
v 42.849998 0.054564 -36.450943
v 0.000000 0.054564 -40.549053
v 42.849998 0.054564 -40.549053
v 0.000000 0.490170 -44.623943
v 42.849998 0.490170 -44.623943
v 0.000000 1.356438 -48.629448
v 42.849998 1.356438 -48.629448
v 0.000000 2.643555 -52.520184
v 42.849998 2.643555 -52.520184
v 0.000000 4.336946 -56.252064
v 42.849998 4.336946 -56.252064
v 0.000000 6.417412 -59.782803
v 42.849998 6.417412 -59.782803
v 0.000000 8.861391 -63.072399
v 42.849998 8.861391 -63.072399
v 0.000000 11.641186 -66.083580
v 42.849998 11.641186 -66.083580
v 0.000000 14.725302 -68.782234
v 42.849998 14.725302 -68.782234
v 0.000000 18.078794 -71.137772
v 42.849998 18.078794 -71.137772
v 0.000000 21.663668 -73.123512
v 42.849998 21.663668 -73.123512
v 0.000000 25.439302 -74.716957
v 42.849998 25.439302 -74.716957
v 0.000000 29.362921 -75.900047
v 42.849998 29.362921 -75.900047
v 0.000000 33.390068 -76.659378
v 42.849998 33.390068 -76.659378
v 0.000000 37.475109 -76.986359
v 42.849998 37.475109 -76.986359
v 0.000000 41.571766 -76.877266
v 42.849998 41.571766 -76.877266
v 0.000000 45.633614 -76.333344
v 42.849998 45.633614 -76.333344
v 0.000000 49.614639 -75.360748
v 42.849998 49.614639 -75.360748
v 0.000000 53.469734 -73.970512
v 42.849998 53.469734 -73.970512
v 0.000000 57.155209 -72.178375
v 42.849998 57.155209 -72.178375
v 0.000000 60.629314 -70.004654
v 42.849998 60.629314 -70.004654
v 0.000000 63.852692 -67.473976
v 42.849998 63.852692 -67.473976
v 0.000000 66.788811 -64.615005
v 42.849998 66.788811 -64.615005
v 0.000000 69.404396 -61.460144
v 42.849998 69.404396 -61.460144
v 0.000000 71.669830 -58.045135
v 42.849998 71.669830 -58.045135
v 0.000000 73.559433 -54.408669
v 42.849998 73.559433 -54.408669
v 0.000000 75.051804 -50.591953
v 42.849998 75.051804 -50.591953
v 0.000000 76.130035 -46.638233
v 42.849998 76.130035 -46.638233
v 0.000000 76.781891 -42.592297
v 0.000000 6.000001 -38.500000
v 0.000000 6.219752 -34.726982
v 0.000000 6.876040 -31.004984
v 0.000000 7.959990 -27.384344
v 0.000000 9.456938 -23.914026
v 0.000000 11.346645 -20.640959
v 0.000000 13.603555 -17.609402
v 0.000000 16.197147 -14.860356
v 0.000000 19.092346 -12.430996
v 0.000000 22.250000 -10.354175
v 0.000000 25.627409 -8.657977
v 0.000000 29.178896 -7.365340
v 0.000000 32.856434 -6.493747
v 0.000000 36.610294 -6.054986
v 0.000000 40.389706 -6.054986
v 0.000000 44.143566 -6.493747
v 0.000000 47.821106 -7.365340
v 0.000000 51.372593 -8.657977
v 0.000000 54.750000 -10.354175
v 0.000000 57.907658 -12.430996
v 0.000000 60.802856 -14.860356
v 0.000000 63.396446 -17.609402
v 0.000000 29.178896 -69.634659
v 0.000000 25.627409 -68.342026
v 0.000000 22.250000 -66.645821
v 0.000000 19.092346 -64.569000
v 0.000000 16.197147 -62.139645
v 0.000000 13.603555 -59.390598
v 0.000000 11.346645 -56.359043
v 0.000000 9.456938 -53.085976
v 0.000000 7.959990 -49.615654
v 0.000000 6.876040 -45.995014
v 0.000000 6.219752 -42.273018
v 0.000000 65.653351 -20.640959
v 0.000000 67.543060 -23.914026
v 0.000000 69.040009 -27.384344
v 0.000000 70.123955 -31.004984
v 0.000000 70.780251 -34.726982
v 0.000000 70.999992 -38.500000
v 0.000000 70.780251 -42.273018
v 0.000000 70.123955 -45.995014
v 0.000000 69.040009 -49.615654
v 0.000000 67.543060 -53.085976
v 0.000000 65.653351 -56.359043
v 0.000000 63.396446 -59.390598
v 0.000000 60.802856 -62.139645
v 0.000000 57.907658 -64.569000
v 0.000000 54.750000 -66.645821
v 0.000000 51.372593 -68.342026
v 0.000000 47.821106 -69.634659
v 0.000000 44.143566 -70.506256
v 0.000000 40.389706 -70.945007
v 0.000000 36.610294 -70.945007
v 0.000000 32.856434 -70.506256
v 42.849998 70.780251 -34.726982
v 42.849998 70.999992 -38.500000
v 42.849998 70.780251 -42.273018
v 42.849998 70.123955 -45.995014
v 42.849998 69.040009 -49.615654
v 42.849998 67.543060 -53.085976
v 42.849998 65.653351 -56.359043
v 42.849998 63.396446 -59.390598
v 42.849998 60.802856 -62.139645
v 42.849998 57.907658 -64.569000
v 42.849998 54.750000 -66.645821
v 42.849998 51.372593 -68.342026
v 42.849998 47.821106 -69.634659
v 42.849998 44.143566 -70.506256
v 42.849998 40.389706 -70.945007
v 42.849998 36.610294 -70.945007
v 42.849998 32.856434 -70.506256
v 42.849998 29.178896 -69.634659
v 42.849998 25.627409 -68.342026
v 42.849998 22.250000 -66.645821
v 42.849998 19.092346 -64.569000
v 42.849998 16.197147 -62.139645
v 42.849998 13.603555 -59.390598
v 42.849998 11.346645 -56.359043
v 42.849998 9.456938 -53.085976
v 42.849998 7.959990 -49.615654
v 42.849998 6.876040 -45.995014
v 42.849998 6.219752 -42.273018
v 42.849998 6.000001 -38.500000
v 42.849998 6.219752 -34.726982
v 42.849998 6.876040 -31.004984
v 42.849998 7.959990 -27.384344
v 42.849998 9.456938 -23.914026
v 42.849998 11.346645 -20.640959
v 42.849998 13.603555 -17.609402
v 42.849998 16.197147 -14.860356
v 42.849998 19.092346 -12.430996
v 42.849998 22.250000 -10.354175
v 42.849998 25.627409 -8.657977
v 42.849998 29.178896 -7.365340
v 42.849998 32.856434 -6.493747
v 42.849998 36.610294 -6.054986
v 42.849998 40.389706 -6.054986
v 42.849998 44.143566 -6.493747
v 42.849998 47.821106 -7.365340
v 42.849998 51.372593 -8.657977
v 42.849998 54.750000 -10.354175
v 42.849998 57.907658 -12.430996
v 42.849998 60.802856 -14.860356
v 42.849998 63.396446 -17.609402
v 42.849998 65.653351 -20.640959
v 42.849998 67.543060 -23.914026
v 42.849998 69.040009 -27.384344
v 42.849998 70.123955 -31.004984
vn 0.0000 0.9986 -0.0532
vn 0.0000 0.9986 0.0532
vn 0.0000 0.9873 0.1591
vn 0.0000 0.9648 0.2631
vn 0.0000 0.9313 0.3642
vn 0.0000 0.8874 0.4611
vn 0.0000 0.8333 0.5528
vn 0.0000 0.7698 0.6382
vn 0.0000 0.6976 0.7165
vn 0.0000 0.6175 0.7866
vn 0.0000 0.5304 0.8477
vn 0.0000 0.4373 0.8993
vn 0.0000 0.3392 0.9407
vn 0.0000 0.2373 0.9714
vn 0.0000 0.1327 0.9912
vn 0.0000 0.0266 0.9996
vn 0.0000 -0.0798 0.9968
vn 0.0000 -0.1853 0.9827
vn 0.0000 -0.2887 0.9574
vn 0.0000 -0.3888 0.9213
vn 0.0000 -0.4846 0.8748
vn 0.0000 -0.5748 0.8183
vn 0.0000 -0.6585 0.7526
vn 0.0000 -0.7348 0.6783
vn 0.0000 -0.8027 0.5964
vn 0.0000 -0.8616 0.5077
vn 0.0000 -0.9106 0.4132
vn 0.0000 -0.9494 0.3141
vn 0.0000 -0.9774 0.2114
vn 0.0000 -0.9943 0.1063
vn 0.0000 -1.0000 0.0000
vn 0.0000 -0.9943 -0.1063
vn 0.0000 -0.9774 -0.2114
vn 0.0000 -0.9494 -0.3141
vn 0.0000 -0.9106 -0.4132
vn 0.0000 -0.8616 -0.5077
vn 0.0000 -0.8027 -0.5964
vn 0.0000 -0.7348 -0.6783
vn 0.0000 -0.6585 -0.7526
vn 0.0000 -0.5748 -0.8183
vn 0.0000 -0.4846 -0.8748
vn 0.0000 -0.3888 -0.9213
vn 0.0000 -0.2887 -0.9574
vn 0.0000 -0.1853 -0.9827
vn 0.0000 -0.0798 -0.9968
vn 0.0000 0.0266 -0.9996
vn 0.0000 0.1327 -0.9912
vn 0.0000 0.2373 -0.9714
vn 0.0000 0.3392 -0.9407
vn 0.0000 0.4373 -0.8993
vn 0.0000 0.5304 -0.8477
vn 0.0000 0.6175 -0.7866
vn 0.0000 0.6976 -0.7165
vn 0.0000 0.7698 -0.6382
vn 0.0000 0.8333 -0.5528
vn 0.0000 0.8874 -0.4611
vn 0.0000 0.9313 -0.3642
vn 0.0000 0.9648 -0.2631
vn 0.0000 0.9873 -0.1591
vn -1.0000 0.0000 0.0000
vn 0.0000 -0.9983 -0.0581
vn 0.0000 -0.9983 0.0581
vn 0.0000 -0.9848 0.1736
vn 0.0000 -0.9848 0.1737
vn 0.0000 -0.9580 0.2868
vn 0.0000 -0.9182 0.3961
vn 0.0000 -0.8660 0.5000
vn 0.0000 -0.8021 0.5972
vn 0.0000 -0.7274 0.6862
vn 0.0000 -0.6428 0.7660
vn 0.0000 -0.5495 0.8355
vn 0.0000 -0.4488 0.8936
vn 0.0000 -0.3420 0.9397
vn 0.0000 -0.2306 0.9730
vn 0.0000 -0.1161 0.9932
vn 0.0000 0.0000 1.0000
vn 0.0000 0.1161 0.9932
vn 0.0000 0.2306 0.9730
vn 0.0000 0.3420 0.9397
vn 0.0000 0.4488 0.8936
vn 0.0000 0.5495 0.8355
vn 0.0000 0.6428 0.7660
vn 0.0000 0.7274 0.6862
vn 0.0000 0.8021 0.5972
vn 0.0000 0.8660 0.5000
vn 0.0000 0.9182 0.3961
vn 0.0000 0.9580 0.2868
vn 0.0000 0.9848 0.1736
vn 0.0000 0.9983 0.0581
vn 0.0000 0.9983 -0.0581
vn 0.0000 0.9848 -0.1736
vn 0.0000 0.9580 -0.2868
vn 0.0000 0.9182 -0.3961
vn 0.0000 0.8660 -0.5000
vn 0.0000 0.8021 -0.5972
vn 0.0000 0.7274 -0.6862
vn 0.0000 0.6428 -0.7660
vn 0.0000 0.5495 -0.8355
vn 0.0000 0.4488 -0.8936
vn 0.0000 0.3420 -0.9397
vn 0.0000 0.2306 -0.9730
vn 0.0000 0.1161 -0.9932
vn 0.0000 0.0000 -1.0000
vn 0.0000 -0.1161 -0.9932
vn 0.0000 -0.2306 -0.9730
vn 0.0000 -0.3420 -0.9397
vn 0.0000 -0.4488 -0.8936
vn 0.0000 -0.5495 -0.8355
vn 0.0000 -0.6428 -0.7660
vn 0.0000 -0.7274 -0.6862
vn 0.0000 -0.8021 -0.5972
vn 0.0000 -0.8660 -0.5000
vn 0.0000 -0.9182 -0.3961
vn 0.0000 -0.9580 -0.2868
vn 0.0000 -0.9848 -0.1737
vn 0.0000 -0.9848 -0.1736
vn 1.0000 0.0000 0.0000
usemtl None
s off
f 1//1 2//1 3//1
f 3//2 2//2 4//2
f 3//2 4//2 5//2
f 5//3 4//3 6//3
f 5//3 6//3 7//3
f 7//4 6//4 8//4
f 7//4 8//4 9//4
f 9//5 8//5 10//5
f 9//5 10//5 11//5
f 11//6 10//6 12//6
f 11//6 12//6 13//6
f 13//7 12//7 14//7
f 13//7 14//7 15//7
f 15//8 14//8 16//8
f 15//8 16//8 17//8
f 17//9 16//9 18//9
f 17//9 18//9 19//9
f 19//10 18//10 20//10
f 19//10 20//10 21//10
f 21//11 20//11 22//11
f 21//11 22//11 23//11
f 23//12 22//12 24//12
f 23//12 24//12 25//12
f 25//13 24//13 26//13
f 25//13 26//13 27//13
f 27//14 26//14 28//14
f 27//14 28//14 29//14
f 29//15 28//15 30//15
f 29//15 30//15 31//15
f 31//16 30//16 32//16
f 31//16 32//16 33//16
f 33//17 32//17 34//17
f 33//17 34//17 35//17
f 35//18 34//18 36//18
f 35//18 36//18 37//18
f 37//19 36//19 38//19
f 37//19 38//19 39//19
f 39//20 38//20 40//20
f 39//20 40//20 41//20
f 41//21 40//21 42//21
f 41//21 42//21 43//21
f 43//22 42//22 44//22
f 43//22 44//22 45//22
f 45//23 44//23 46//23
f 45//23 46//23 47//23
f 47//24 46//24 48//24
f 47//24 48//24 49//24
f 49//25 48//25 50//25
f 49//25 50//25 51//25
f 51//26 50//26 52//26
f 51//26 52//26 53//26
f 53//27 52//27 54//27
f 53//27 54//27 55//27
f 55//28 54//28 56//28
f 55//28 56//28 57//28
f 57//29 56//29 58//29
f 57//29 58//29 59//29
f 59//30 58//30 60//30
f 59//30 60//30 61//30
f 61//31 60//31 62//31
f 61//31 62//31 63//31
f 63//32 62//32 64//32
f 63//32 64//32 65//32
f 65//33 64//33 66//33
f 65//33 66//33 67//33
f 67//34 66//34 68//34
f 67//34 68//34 69//34
f 69//35 68//35 70//35
f 69//35 70//35 71//35
f 71//36 70//36 72//36
f 71//36 72//36 73//36
f 73//37 72//37 74//37
f 73//37 74//37 75//37
f 75//38 74//38 76//38
f 75//38 76//38 77//38
f 77//39 76//39 78//39
f 77//39 78//39 79//39
f 79//40 78//40 80//40
f 79//40 80//40 81//40
f 81//41 80//41 82//41
f 81//41 82//41 83//41
f 83//42 82//42 84//42
f 83//42 84//42 85//42
f 85//43 84//43 86//43
f 85//43 86//43 87//43
f 87//44 86//44 88//44
f 87//44 88//44 89//44
f 89//45 88//45 90//45
f 89//45 90//45 91//45
f 91//46 90//46 92//46
f 91//46 92//46 93//46
f 93//47 92//47 94//47
f 93//47 94//47 95//47
f 95//48 94//48 96//48
f 95//48 96//48 97//48
f 97//49 96//49 98//49
f 97//49 98//49 99//49
f 99//50 98//50 100//50
f 99//50 100//50 101//50
f 101//51 100//51 102//51
f 101//51 102//51 103//51
f 103//52 102//52 104//52
f 103//52 104//52 105//52
f 105//53 104//53 106//53
f 105//53 106//53 107//53
f 107//54 106//54 108//54
f 107//54 108//54 109//54
f 109//55 108//55 110//55
f 109//55 110//55 111//55
f 111//56 110//56 112//56
f 111//56 112//56 113//56
f 113//57 112//57 114//57
f 113//57 114//57 115//57
f 115//58 114//58 116//58
f 115//58 116//58 117//58
f 117//59 116//59 118//59
f 117//59 118//59 1//59
f 1//1 118//1 2//1
f 119//60 60//60 120//60
f 120//60 60//60 58//60
f 120//60 58//60 121//60
f 121//60 58//60 56//60
f 121//60 56//60 122//60
f 122//60 56//60 54//60
f 122//60 54//60 123//60
f 123//60 54//60 52//60
f 123//60 52//60 124//60
f 124//60 52//60 50//60
f 124//60 50//60 125//60
f 125//60 50//60 48//60
f 125//60 48//60 126//60
f 126//60 48//60 46//60
f 126//60 46//60 127//60
f 127//60 46//60 44//60
f 127//60 44//60 128//60
f 128//60 44//60 42//60
f 128//60 42//60 129//60
f 42//60 40//60 129//60
f 129//60 40//60 38//60
f 129//60 38//60 130//60
f 130//60 38//60 36//60
f 130//60 36//60 131//60
f 131//60 36//60 34//60
f 131//60 34//60 132//60
f 132//60 34//60 32//60
f 132//60 32//60 133//60
f 133//60 32//60 30//60
f 133//60 30//60 134//60
f 134//60 30//60 28//60
f 134//60 28//60 135//60
f 135//60 28//60 26//60
f 135//60 26//60 136//60
f 136//60 26//60 24//60
f 136//60 24//60 137//60
f 137//60 24//60 22//60
f 137//60 22//60 138//60
f 138//60 22//60 20//60
f 138//60 20//60 139//60
f 139//60 20//60 18//60
f 139//60 18//60 140//60
f 141//60 84//60 142//60
f 142//60 84//60 82//60
f 142//60 82//60 143//60
f 143//60 82//60 80//60
f 143//60 80//60 144//60
f 144//60 80//60 78//60
f 144//60 78//60 145//60
f 145//60 78//60 76//60
f 145//60 76//60 146//60
f 146//60 76//60 74//60
f 146//60 74//60 147//60
f 147//60 74//60 72//60
f 147//60 72//60 148//60
f 148//60 72//60 70//60
f 148//60 70//60 149//60
f 149//60 70//60 68//60
f 149//60 68//60 150//60
f 150//60 68//60 66//60
f 150//60 66//60 151//60
f 151//60 66//60 64//60
f 151//60 64//60 119//60
f 119//60 64//60 62//60
f 119//60 62//60 60//60
f 18//60 16//60 140//60
f 140//60 16//60 14//60
f 140//60 14//60 152//60
f 152//60 14//60 12//60
f 152//60 12//60 153//60
f 153//60 12//60 10//60
f 153//60 10//60 154//60
f 154//60 10//60 8//60
f 154//60 8//60 155//60
f 155//60 8//60 6//60
f 155//60 6//60 156//60
f 156//60 6//60 4//60
f 156//60 4//60 157//60
f 157//60 4//60 2//60
f 157//60 2//60 158//60
f 158//60 2//60 118//60
f 158//60 118//60 159//60
f 159//60 118//60 116//60
f 159//60 116//60 160//60
f 160//60 116//60 114//60
f 160//60 114//60 161//60
f 161//60 114//60 112//60
f 161//60 112//60 162//60
f 112//60 110//60 162//60
f 162//60 110//60 108//60
f 162//60 108//60 163//60
f 163//60 108//60 106//60
f 163//60 106//60 164//60
f 164//60 106//60 104//60
f 164//60 104//60 165//60
f 165//60 104//60 102//60
f 165//60 102//60 166//60
f 166//60 102//60 100//60
f 166//60 100//60 167//60
f 167//60 100//60 98//60
f 167//60 98//60 168//60
f 168//60 98//60 96//60
f 168//60 96//60 169//60
f 169//60 96//60 94//60
f 169//60 94//60 170//60
f 170//60 94//60 92//60
f 170//60 92//60 171//60
f 171//60 92//60 90//60
f 171//60 90//60 172//60
f 172//60 90//60 88//60
f 172//60 88//60 141//60
f 141//60 88//60 86//60
f 141//60 86//60 84//60
f 173//61 157//61 174//61
f 174//62 157//62 158//62
f 174//62 158//62 175//62
f 175//63 158//63 159//63
f 175//64 159//64 176//64
f 176//65 159//65 160//65
f 176//65 160//65 177//65
f 177//66 160//66 161//66
f 177//66 161//66 178//66
f 178//67 161//67 162//67
f 178//67 162//67 179//67
f 179//68 162//68 163//68
f 179//68 163//68 180//68
f 180//69 163//69 164//69
f 180//69 164//69 181//69
f 181//70 164//70 165//70
f 181//70 165//70 182//70
f 182//71 165//71 166//71
f 182//71 166//71 183//71
f 183//72 166//72 167//72
f 183//72 167//72 184//72
f 184//73 167//73 168//73
f 184//73 168//73 185//73
f 185//74 168//74 169//74
f 185//74 169//74 186//74
f 186//75 169//75 170//75
f 186//75 170//75 187//75
f 187//76 170//76 171//76
f 187//76 171//76 188//76
f 188//77 171//77 172//77
f 188//77 172//77 189//77
f 189//78 172//78 141//78
f 189//78 141//78 190//78
f 190//79 141//79 142//79
f 190//79 142//79 191//79
f 191//80 142//80 143//80
f 191//80 143//80 192//80
f 192//81 143//81 144//81
f 192//81 144//81 193//81
f 193//82 144//82 145//82
f 193//82 145//82 194//82
f 194//83 145//83 146//83
f 194//83 146//83 195//83
f 195//84 146//84 147//84
f 195//84 147//84 196//84
f 196//85 147//85 148//85
f 196//85 148//85 197//85
f 197//86 148//86 149//86
f 197//86 149//86 198//86
f 198//87 149//87 150//87
f 198//87 150//87 199//87
f 199//88 150//88 151//88
f 199//88 151//88 200//88
f 200//89 151//89 119//89
f 200//89 119//89 201//89
f 201//90 119//90 120//90
f 201//90 120//90 202//90
f 202//91 120//91 121//91
f 202//91 121//91 203//91
f 203//92 121//92 122//92
f 203//92 122//92 204//92
f 204//93 122//93 123//93
f 204//93 123//93 205//93
f 205//94 123//94 124//94
f 205//94 124//94 206//94
f 206//95 124//95 125//95
f 206//95 125//95 207//95
f 207//96 125//96 126//96
f 207//96 126//96 208//96
f 208//97 126//97 127//97
f 208//97 127//97 209//97
f 209//98 127//98 128//98
f 209//98 128//98 210//98
f 210//99 128//99 129//99
f 210//99 129//99 211//99
f 211//100 129//100 130//100
f 211//100 130//100 212//100
f 212//101 130//101 131//101
f 212//101 131//101 213//101
f 213//102 131//102 132//102
f 213//102 132//102 214//102
f 214//103 132//103 133//103
f 214//103 133//103 215//103
f 215//104 133//104 134//104
f 215//104 134//104 216//104
f 216//105 134//105 135//105
f 216//105 135//105 217//105
f 217//106 135//106 136//106
f 217//106 136//106 218//106
f 218//107 136//107 137//107
f 218//107 137//107 219//107
f 219//108 137//108 138//108
f 219//108 138//108 220//108
f 220//109 138//109 139//109
f 220//109 139//109 221//109
f 221//110 139//110 140//110
f 221//110 140//110 222//110
f 222//111 140//111 152//111
f 222//111 152//111 223//111
f 223//112 152//112 153//112
f 223//112 153//112 224//112
f 224//113 153//113 154//113
f 224//113 154//113 225//113
f 225//114 154//114 155//114
f 225//114 155//114 226//114
f 226//115 155//115 156//115
f 226//116 156//116 173//116
f 173//61 156//61 157//61
f 212//117 39//117 211//117
f 211//117 39//117 41//117
f 211//117 41//117 210//117
f 210//117 41//117 43//117
f 210//117 43//117 209//117
f 209//117 43//117 45//117
f 209//117 45//117 208//117
f 208//117 45//117 47//117
f 208//117 47//117 207//117
f 207//117 47//117 49//117
f 207//117 49//117 206//117
f 206//117 49//117 51//117
f 206//117 51//117 205//117
f 205//117 51//117 53//117
f 205//117 53//117 204//117
f 204//117 53//117 55//117
f 204//117 55//117 203//117
f 203//117 55//117 57//117
f 203//117 57//117 202//117
f 223//117 15//117 222//117
f 222//117 15//117 17//117
f 222//117 17//117 221//117
f 221//117 17//117 19//117
f 221//117 19//117 220//117
f 220//117 19//117 21//117
f 220//117 21//117 219//117
f 219//117 21//117 23//117
f 219//117 23//117 218//117
f 218//117 23//117 25//117
f 218//117 25//117 217//117
f 217//117 25//117 27//117
f 217//117 27//117 216//117
f 216//117 27//117 29//117
f 216//117 29//117 215//117
f 215//117 29//117 31//117
f 215//117 31//117 214//117
f 214//117 31//117 33//117
f 214//117 33//117 213//117
f 213//117 33//117 35//117
f 213//117 35//117 212//117
f 212//117 35//117 37//117
f 212//117 37//117 39//117
f 57//117 59//117 202//117
f 202//117 59//117 61//117
f 202//117 61//117 201//117
f 201//117 61//117 63//117
f 201//117 63//117 200//117
f 200//117 63//117 65//117
f 200//117 65//117 199//117
f 199//117 65//117 67//117
f 199//117 67//117 198//117
f 198//117 67//117 69//117
f 198//117 69//117 197//117
f 197//117 69//117 71//117
f 197//117 71//117 196//117
f 196//117 71//117 73//117
f 196//117 73//117 195//117
f 195//117 73//117 75//117
f 195//117 75//117 194//117
f 194//117 75//117 77//117
f 194//117 77//117 193//117
f 193//117 77//117 79//117
f 193//117 79//117 192//117
f 192//117 79//117 81//117
f 192//117 81//117 191//117
f 180//117 109//117 179//117
f 179//117 109//117 111//117
f 179//117 111//117 178//117
f 178//117 111//117 113//117
f 178//117 113//117 177//117
f 177//117 113//117 115//117
f 177//117 115//117 176//117
f 176//117 115//117 117//117
f 176//117 117//117 175//117
f 175//117 117//117 1//117
f 175//117 1//117 174//117
f 174//117 1//117 3//117
f 174//117 3//117 173//117
f 173//117 3//117 5//117
f 173//117 5//117 226//117
f 226//117 5//117 7//117
f 226//117 7//117 225//117
f 225//117 7//117 9//117
f 225//117 9//117 224//117
f 224//117 9//117 11//117
f 224//117 11//117 223//117
f 223//117 11//117 13//117
f 223//117 13//117 15//117
f 81//117 83//117 191//117
f 191//117 83//117 85//117
f 191//117 85//117 190//117
f 190//117 85//117 87//117
f 190//117 87//117 189//117
f 189//117 87//117 89//117
f 189//117 89//117 188//117
f 188//117 89//117 91//117
f 188//117 91//117 187//117
f 187//117 91//117 93//117
f 187//117 93//117 186//117
f 186//117 93//117 95//117
f 186//117 95//117 185//117
f 185//117 95//117 97//117
f 185//117 97//117 184//117
f 184//117 97//117 99//117
f 184//117 99//117 183//117
f 183//117 99//117 101//117
f 183//117 101//117 182//117
f 182//117 101//117 103//117
f 182//117 103//117 181//117
f 181//117 103//117 105//117
f 181//117 105//117 180//117
f 180//117 105//117 107//117
f 180//117 107//117 109//117
