# Blender v2.79 (sub 0) OBJ File: ''
# www.blender.org
mtllib 334.mtl
o 334
v 17.037712 30.373436 -7.000000
v 12.716843 43.573200 -7.000000
v 18.656343 31.094097 -7.000000
v 14.886703 44.521488 -7.000000
v 20.359522 31.582474 -7.000000
v 15.535128 29.434517 -7.000000
v 8.725982 41.034760 -7.000000
v 10.655988 42.406837 -7.000000
v 12.992264 26.978901 -7.000000
v 3.917430 35.839607 -7.000000
v 14.177838 28.295616 -7.000000
v 5.338749 37.733643 -7.000000
v 6.947285 39.471500 -7.000000
v 11.224766 23.917503 -7.000000
v 0.916554 29.428169 -7.000000
v 12.001477 25.510000 -7.000000
v 1.694549 31.664740 -7.000000
v 2.698388 33.809464 -7.000000
v 11.585316 13.592687 -7.000000
v 3.281763 11.159765 -7.000000
v 10.921582 15.235483 -7.000000
v 2.168847 13.249969 -7.000000
v 10.492941 16.954668 -7.000000
v 1.276748 15.443525 -7.000000
v 10.307736 18.716776 -7.000000
v 17.142565 45.241638 -7.000000
v 19.460516 45.726025 -7.000000
v 22.114092 31.829063 -7.000000
v 21.815989 45.969505 -7.000000
v 23.000000 31.860001 -7.000000
v 23.000000 46.000000 -7.000000
v 23.885908 31.829063 -7.000000
v 0.614919 17.717182 -7.000000
v 0.190379 20.046837 -7.000000
v 10.369572 20.487511 -7.000000
v 0.007626 22.407799 -7.000000
v 10.677244 22.232409 -7.000000
v 0.068597 24.775036 -7.000000
v 0.372646 27.123457 -7.000000
v 31.822161 28.295616 -7.000000
v 42.082569 35.839607 -7.000000
v 33.007736 26.978901 -7.000000
v 43.301613 33.809464 -7.000000
v 33.998524 25.510000 -7.000000
v 28.962288 30.373436 -7.000000
v 37.274017 41.034760 -7.000000
v 30.464872 29.434517 -7.000000
v 39.052719 39.471500 -7.000000
v 40.661255 37.733643 -7.000000
v 24.184011 45.969505 -7.000000
v 26.539484 45.726025 -7.000000
v 25.640478 31.582474 -7.000000
v 28.857435 45.241638 -7.000000
v 27.343657 31.094097 -7.000000
v 17.834444 7.557972 -7.000000
v 13.789560 1.924710 -7.000000
v 16.270025 8.389790 -7.000000
v 11.671394 2.983440 -7.000000
v 14.836597 9.431235 -7.000000
v 9.673315 4.254349 -7.000000
v 13.562061 10.662042 -7.000000
v 7.816501 5.723966 -7.000000
v 12.471223 12.058250 -7.000000
v 6.120637 7.376714 -7.000000
v 4.603697 9.195071 -7.000000
v 29.729975 8.389790 -7.000000
v 32.210438 1.924710 -7.000000
v 28.165556 7.557972 -7.000000
v 29.994640 1.089387 -7.000000
v 26.500593 6.951977 -7.000000
v 27.704697 0.486320 -7.000000
v 24.767498 6.583596 -7.000000
v 25.364883 0.121903 -7.000000
v 23.000000 6.460000 -7.000000
v 23.000000 0.000000 -7.000000
v 21.232502 6.583596 -7.000000
v 20.635117 0.121903 -7.000000
v 19.499407 6.951977 -7.000000
v 18.295303 0.486320 -7.000000
v 16.005360 1.089387 -7.000000
v 35.630428 20.487511 -7.000000
v 45.809620 20.046837 -7.000000
v 35.692265 18.716776 -7.000000
v 45.385082 17.717182 -7.000000
v 35.507061 16.954668 -7.000000
v 44.723251 15.443525 -7.000000
v 35.078419 15.235483 -7.000000
v 44.305450 31.664740 -7.000000
v 45.083447 29.428169 -7.000000
v 34.775234 23.917503 -7.000000
v 45.627357 27.123457 -7.000000
v 35.322754 22.232409 -7.000000
v 45.931404 24.775036 -7.000000
v 45.992374 22.407799 -7.000000
v 31.113297 44.521488 -7.000000
v 33.283157 43.573200 -7.000000
v 35.344013 42.406837 -7.000000
v 43.831154 13.249969 -7.000000
v 42.718239 11.159765 -7.000000
v 34.414688 13.592687 -7.000000
v 41.396305 9.195071 -7.000000
v 33.528774 12.058250 -7.000000
v 39.879364 7.376714 -7.000000
v 32.437939 10.662042 -7.000000
v 38.183498 5.723966 -7.000000
v 31.163403 9.431235 -7.000000
v 36.326683 4.254349 -7.000000
v 34.328606 2.983440 -7.000000
v 34.775234 23.917503 0.000000
v 45.083447 29.428169 0.000000
v 33.998524 25.510000 0.000000
v 44.305450 31.664740 0.000000
v 33.007736 26.978901 0.000000
v 35.692265 18.716776 0.000000
v 45.809620 20.046837 0.000000
v 35.630428 20.487511 0.000000
v 45.992374 22.407799 0.000000
v 35.322754 22.232409 0.000000
v 45.931404 24.775036 0.000000
v 45.627357 27.123457 0.000000
v 16.270025 8.389790 0.000000
v 13.789560 1.924710 0.000000
v 17.834444 7.557972 0.000000
v 16.005360 1.089387 0.000000
v 19.499407 6.951977 0.000000
v 18.295303 0.486320 0.000000
v 21.232502 6.583596 0.000000
v 20.635117 0.121903 0.000000
v 23.000000 6.460000 0.000000
v 23.000000 0.000000 0.000000
v 24.767498 6.583596 0.000000
v 25.364883 0.121903 0.000000
v 26.500593 6.951977 0.000000
v 27.704697 0.486320 0.000000
v 28.165556 7.557972 0.000000
v 10.921582 15.235483 0.000000
v 3.281763 11.159765 0.000000
v 11.585316 13.592687 0.000000
v 4.603697 9.195071 0.000000
v 12.471223 12.058250 0.000000
v 6.120637 7.376714 0.000000
v 13.562061 10.662042 0.000000
v 7.816501 5.723966 0.000000
v 14.836597 9.431235 0.000000
v 9.673315 4.254349 0.000000
v 11.671394 2.983440 0.000000
v 12.001477 25.510000 0.000000
v 0.916554 29.428169 0.000000
v 11.224766 23.917503 0.000000
v 0.372646 27.123457 0.000000
v 10.677244 22.232409 0.000000
v 0.068597 24.775036 0.000000
v 10.369572 20.487511 0.000000
v 14.177838 28.295616 0.000000
v 3.917430 35.839607 0.000000
v 12.992264 26.978901 0.000000
v 2.698388 33.809464 0.000000
v 1.694549 31.664740 0.000000
v 17.037712 30.373436 0.000000
v 8.725982 41.034760 0.000000
v 15.535128 29.434517 0.000000
v 6.947285 39.471500 0.000000
v 5.338749 37.733643 0.000000
v 37.274017 41.034760 0.000000
v 28.962288 30.373436 0.000000
v 30.464872 29.434517 0.000000
v 43.301613 33.809464 0.000000
v 42.082569 35.839607 0.000000
v 31.822161 28.295616 0.000000
v 40.661255 37.733643 0.000000
v 39.052719 39.471500 0.000000
v 34.414688 13.592687 0.000000
v 42.718239 11.159765 0.000000
v 35.078419 15.235483 0.000000
v 43.831154 13.249969 0.000000
v 35.507061 16.954668 0.000000
v 44.723251 15.443525 0.000000
v 45.385082 17.717182 0.000000
v 29.994640 1.089387 0.000000
v 32.210438 1.924710 0.000000
v 29.729975 8.389790 0.000000
v 34.328606 2.983440 0.000000
v 31.163403 9.431235 0.000000
v 36.326683 4.254349 0.000000
v 32.437939 10.662042 0.000000
v 38.183498 5.723966 0.000000
v 33.528774 12.058250 0.000000
v 39.879364 7.376714 0.000000
v 41.396305 9.195071 0.000000
v 0.007626 22.407799 0.000000
v 0.190379 20.046837 0.000000
v 10.307736 18.716776 0.000000
v 0.614919 17.717182 0.000000
v 10.492941 16.954668 0.000000
v 1.276748 15.443525 0.000000
v 2.168847 13.249969 0.000000
v 18.656343 31.094097 0.000000
v 12.716843 43.573200 0.000000
v 10.655988 42.406837 0.000000
v 35.344013 42.406837 0.000000
v 33.283157 43.573200 0.000000
v 27.343657 31.094097 0.000000
v 31.113297 44.521488 0.000000
v 25.640478 31.582474 0.000000
v 22.114092 31.829063 0.000000
v 19.460516 45.726025 0.000000
v 20.359522 31.582474 0.000000
v 17.142565 45.241638 0.000000
v 14.886703 44.521488 0.000000
v 28.857435 45.241638 0.000000
v 26.539484 45.726025 0.000000
v 23.885908 31.829063 0.000000
v 24.184011 45.969505 0.000000
v 23.000000 31.860001 0.000000
v 23.000000 46.000000 0.000000
v 21.815989 45.969505 0.000000
vn -0.0000 0.0000 -1.0000
vn 0.0000 0.0000 1.0000
vn 0.0257 0.9997 0.0000
vn -0.0257 0.9997 0.0000
vn -0.1028 0.9947 0.0000
vn -0.2046 0.9789 0.0000
vn -0.3041 0.9526 0.0000
vn -0.4005 0.9163 0.0000
vn -0.4925 0.8703 0.0000
vn -0.5794 0.8150 0.0000
vn -0.6602 0.7511 0.0000
vn -0.7339 0.6793 0.0000
vn -0.7998 0.6002 0.0000
vn -0.8573 0.5148 0.0000
vn -0.9057 0.4239 0.0000
vn -0.9445 0.3285 0.0000
vn -0.9733 0.2297 0.0000
vn -0.9917 0.1284 0.0000
vn -0.9997 0.0257 0.0000
vn -0.9970 -0.0772 0.0000
vn -0.9838 -0.1793 0.0000
vn -0.9601 -0.2795 0.0000
vn -0.9263 -0.3767 0.0000
vn -0.8827 -0.4700 0.0000
vn -0.8297 -0.5582 0.0000
vn -0.7679 -0.6406 0.0000
vn -0.6979 -0.7162 0.0000
vn -0.6206 -0.7841 0.0000
vn -0.5367 -0.8438 0.0000
vn -0.4471 -0.8945 0.0000
vn -0.3528 -0.9357 0.0000
vn -0.2547 -0.9670 0.0000
vn -0.1539 -0.9881 0.0000
vn -0.0515 -0.9987 0.0000
vn 0.0515 -0.9987 0.0000
vn 0.1539 -0.9881 0.0000
vn 0.2547 -0.9670 0.0000
vn 0.3528 -0.9357 0.0000
vn 0.4471 -0.8945 0.0000
vn 0.5367 -0.8438 0.0000
vn 0.6206 -0.7841 0.0000
vn 0.6979 -0.7162 0.0000
vn 0.7679 -0.6406 0.0000
vn 0.8297 -0.5582 0.0000
vn 0.8827 -0.4700 0.0000
vn 0.9263 -0.3767 0.0000
vn 0.9601 -0.2795 0.0000
vn 0.9838 -0.1793 0.0000
vn 0.9970 -0.0772 0.0000
vn 0.9997 0.0257 0.0000
vn 0.9917 0.1284 0.0000
vn 0.9733 0.2297 0.0000
vn 0.9445 0.3285 0.0000
vn 0.9057 0.4239 0.0000
vn 0.8573 0.5148 0.0000
vn 0.7998 0.6002 0.0000
vn 0.7339 0.6793 0.0000
vn 0.6602 0.7511 0.0000
vn 0.5794 0.8150 0.0000
vn 0.4925 0.8703 0.0000
vn 0.4005 0.9163 0.0000
vn 0.3041 0.9526 0.0000
vn 0.2046 0.9789 0.0000
vn 0.1028 0.9947 0.0000
vn -0.0698 0.9976 0.0000
vn -0.2079 0.9781 0.0000
vn -0.3420 0.9397 0.0000
vn -0.4695 0.8829 0.0000
vn -0.5878 0.8090 0.0000
vn -0.6947 0.7193 0.0000
vn -0.7880 0.6157 0.0000
vn -0.8660 0.5000 0.0000
vn -0.9272 0.3746 0.0000
vn -0.9703 0.2419 0.0000
vn -0.9945 0.1045 0.0000
vn -0.9994 -0.0349 0.0000
vn -0.9848 -0.1736 0.0000
vn -0.9848 -0.1737 0.0000
vn -0.9511 -0.3090 0.0000
vn -0.8988 -0.4384 0.0000
vn -0.8290 -0.5592 0.0000
vn -0.7431 -0.6691 0.0000
vn -0.6428 -0.7660 0.0000
vn -0.5299 -0.8480 0.0000
vn -0.4067 -0.9135 0.0000
vn -0.2756 -0.9613 0.0000
vn -0.1392 -0.9903 0.0000
vn -0.0349 -0.9994 0.0000
vn 0.0349 -0.9994 0.0000
vn 0.1392 -0.9903 0.0000
vn 0.2756 -0.9613 0.0000
vn 0.4067 -0.9135 0.0000
vn 0.5299 -0.8480 0.0000
vn 0.6428 -0.7660 0.0000
vn 0.7431 -0.6691 0.0000
vn 0.8290 -0.5592 0.0000
vn 0.8988 -0.4384 0.0000
vn 0.9511 -0.3090 0.0000
vn 0.9848 -0.1736 0.0000
vn 0.9994 -0.0349 0.0000
vn 0.9945 0.1045 0.0000
vn 0.9703 0.2419 0.0000
vn 0.9272 0.3746 0.0000
vn 0.8660 0.5000 0.0000
vn 0.7880 0.6157 0.0000
vn 0.6947 0.7193 0.0000
vn 0.5878 0.8090 0.0000
vn 0.4695 0.8829 0.0000
vn 0.3420 0.9397 0.0000
vn 0.2079 0.9781 0.0000
vn 0.0698 0.9976 0.0000
usemtl None
s off
f 1//1 2//1 3//1
f 3//1 2//1 4//1
f 3//1 4//1 5//1
f 6//1 7//1 1//1
f 1//1 7//1 8//1
f 1//1 8//1 2//1
f 9//1 10//1 11//1
f 11//1 10//1 12//1
f 11//1 12//1 6//1
f 6//1 12//1 13//1
f 6//1 13//1 7//1
f 14//1 15//1 16//1
f 16//1 15//1 17//1
f 16//1 17//1 9//1
f 9//1 17//1 18//1
f 9//1 18//1 10//1
f 19//1 20//1 21//1
f 21//1 20//1 22//1
f 21//1 22//1 23//1
f 23//1 22//1 24//1
f 23//1 24//1 25//1
f 4//1 26//1 5//1
f 5//1 26//1 27//1
f 5//1 27//1 28//1
f 28//1 27//1 29//1
f 28//1 29//1 30//1
f 30//1 29//1 31//1
f 30//1 31//1 32//1
f 24//1 33//1 25//1
f 25//1 33//1 34//1
f 25//1 34//1 35//1
f 35//1 34//1 36//1
f 35//1 36//1 37//1
f 37//1 36//1 38//1
f 37//1 38//1 14//1
f 14//1 38//1 39//1
f 14//1 39//1 15//1
f 40//1 41//1 42//1
f 42//1 41//1 43//1
f 42//1 43//1 44//1
f 45//1 46//1 47//1
f 47//1 46//1 48//1
f 47//1 48//1 40//1
f 40//1 48//1 49//1
f 40//1 49//1 41//1
f 31//1 50//1 32//1
f 32//1 50//1 51//1
f 32//1 51//1 52//1
f 52//1 51//1 53//1
f 52//1 53//1 54//1
f 55//1 56//1 57//1
f 57//1 56//1 58//1
f 57//1 58//1 59//1
f 59//1 58//1 60//1
f 59//1 60//1 61//1
f 61//1 60//1 62//1
f 61//1 62//1 63//1
f 63//1 62//1 64//1
f 63//1 64//1 19//1
f 19//1 64//1 65//1
f 19//1 65//1 20//1
f 66//1 67//1 68//1
f 68//1 67//1 69//1
f 68//1 69//1 70//1
f 70//1 69//1 71//1
f 70//1 71//1 72//1
f 72//1 71//1 73//1
f 72//1 73//1 74//1
f 74//1 73//1 75//1
f 74//1 75//1 76//1
f 76//1 75//1 77//1
f 76//1 77//1 78//1
f 78//1 77//1 79//1
f 78//1 79//1 55//1
f 55//1 79//1 80//1
f 55//1 80//1 56//1
f 81//1 82//1 83//1
f 83//1 82//1 84//1
f 83//1 84//1 85//1
f 85//1 84//1 86//1
f 85//1 86//1 87//1
f 43//1 88//1 44//1
f 44//1 88//1 89//1
f 44//1 89//1 90//1
f 90//1 89//1 91//1
f 90//1 91//1 92//1
f 92//1 91//1 93//1
f 92//1 93//1 81//1
f 81//1 93//1 94//1
f 81//1 94//1 82//1
f 53//1 95//1 54//1
f 54//1 95//1 96//1
f 54//1 96//1 45//1
f 45//1 96//1 97//1
f 45//1 97//1 46//1
f 86//1 98//1 87//1
f 87//1 98//1 99//1
f 87//1 99//1 100//1
f 100//1 99//1 101//1
f 100//1 101//1 102//1
f 102//1 101//1 103//1
f 102//1 103//1 104//1
f 104//1 103//1 105//1
f 104//1 105//1 106//1
f 106//1 105//1 107//1
f 106//1 107//1 66//1
f 66//1 107//1 108//1
f 66//1 108//1 67//1
f 109//2 110//2 111//2
f 111//2 110//2 112//2
f 111//2 112//2 113//2
f 114//2 115//2 116//2
f 116//2 115//2 117//2
f 116//2 117//2 118//2
f 118//2 117//2 119//2
f 118//2 119//2 109//2
f 109//2 119//2 120//2
f 109//2 120//2 110//2
f 121//2 122//2 123//2
f 123//2 122//2 124//2
f 123//2 124//2 125//2
f 125//2 124//2 126//2
f 125//2 126//2 127//2
f 127//2 126//2 128//2
f 127//2 128//2 129//2
f 129//2 128//2 130//2
f 129//2 130//2 131//2
f 131//2 130//2 132//2
f 131//2 132//2 133//2
f 133//2 132//2 134//2
f 133//2 134//2 135//2
f 136//2 137//2 138//2
f 138//2 137//2 139//2
f 138//2 139//2 140//2
f 140//2 139//2 141//2
f 140//2 141//2 142//2
f 142//2 141//2 143//2
f 142//2 143//2 144//2
f 144//2 143//2 145//2
f 144//2 145//2 121//2
f 121//2 145//2 146//2
f 121//2 146//2 122//2
f 147//2 148//2 149//2
f 149//2 148//2 150//2
f 149//2 150//2 151//2
f 151//2 150//2 152//2
f 151//2 152//2 153//2
f 154//2 155//2 156//2
f 156//2 155//2 157//2
f 156//2 157//2 147//2
f 147//2 157//2 158//2
f 147//2 158//2 148//2
f 159//2 160//2 161//2
f 161//2 160//2 162//2
f 161//2 162//2 154//2
f 154//2 162//2 163//2
f 154//2 163//2 155//2
f 164//2 165//2 166//2
f 112//2 167//2 113//2
f 113//2 167//2 168//2
f 113//2 168//2 169//2
f 169//2 168//2 170//2
f 169//2 170//2 166//2
f 166//2 170//2 171//2
f 166//2 171//2 164//2
f 172//2 173//2 174//2
f 174//2 173//2 175//2
f 174//2 175//2 176//2
f 176//2 175//2 177//2
f 176//2 177//2 114//2
f 114//2 177//2 178//2
f 114//2 178//2 115//2
f 134//2 179//2 135//2
f 135//2 179//2 180//2
f 135//2 180//2 181//2
f 181//2 180//2 182//2
f 181//2 182//2 183//2
f 183//2 182//2 184//2
f 183//2 184//2 185//2
f 185//2 184//2 186//2
f 185//2 186//2 187//2
f 187//2 186//2 188//2
f 187//2 188//2 172//2
f 172//2 188//2 189//2
f 172//2 189//2 173//2
f 152//2 190//2 153//2
f 153//2 190//2 191//2
f 153//2 191//2 192//2
f 192//2 191//2 193//2
f 192//2 193//2 194//2
f 194//2 193//2 195//2
f 194//2 195//2 136//2
f 136//2 195//2 196//2
f 136//2 196//2 137//2
f 197//2 198//2 159//2
f 159//2 198//2 199//2
f 159//2 199//2 160//2
f 164//2 200//2 165//2
f 165//2 200//2 201//2
f 165//2 201//2 202//2
f 202//2 201//2 203//2
f 202//2 203//2 204//2
f 205//2 206//2 207//2
f 207//2 206//2 208//2
f 207//2 208//2 197//2
f 197//2 208//2 209//2
f 197//2 209//2 198//2
f 203//2 210//2 204//2
f 204//2 210//2 211//2
f 204//2 211//2 212//2
f 212//2 211//2 213//2
f 212//2 213//2 214//2
f 214//2 213//2 215//2
f 214//2 215//2 205//2
f 205//2 215//2 216//2
f 205//2 216//2 206//2
f 50//3 31//3 215//3
f 215//4 31//4 216//4
f 31//4 29//4 216//4
f 216//5 29//5 27//5
f 216//5 27//5 206//5
f 206//6 27//6 26//6
f 206//6 26//6 208//6
f 208//7 26//7 4//7
f 208//7 4//7 209//7
f 209//8 4//8 2//8
f 209//8 2//8 198//8
f 198//9 2//9 8//9
f 198//9 8//9 199//9
f 199//10 8//10 7//10
f 199//10 7//10 160//10
f 160//11 7//11 13//11
f 160//11 13//11 162//11
f 162//12 13//12 12//12
f 162//12 12//12 163//12
f 163//13 12//13 10//13
f 163//13 10//13 155//13
f 155//14 10//14 18//14
f 155//14 18//14 157//14
f 157//15 18//15 17//15
f 157//15 17//15 158//15
f 158//16 17//16 15//16
f 158//16 15//16 148//16
f 148//17 15//17 39//17
f 148//17 39//17 150//17
f 150//18 39//18 38//18
f 150//18 38//18 152//18
f 152//19 38//19 36//19
f 152//19 36//19 190//19
f 190//20 36//20 34//20
f 190//20 34//20 191//20
f 191//21 34//21 33//21
f 191//21 33//21 193//21
f 193//22 33//22 24//22
f 193//22 24//22 195//22
f 195//23 24//23 22//23
f 195//23 22//23 196//23
f 196//24 22//24 20//24
f 196//24 20//24 137//24
f 137//25 20//25 65//25
f 137//25 65//25 139//25
f 139//26 65//26 64//26
f 139//26 64//26 141//26
f 141//27 64//27 62//27
f 141//27 62//27 143//27
f 143//28 62//28 60//28
f 143//28 60//28 145//28
f 145//29 60//29 58//29
f 145//29 58//29 146//29
f 146//30 58//30 56//30
f 146//30 56//30 122//30
f 122//31 56//31 80//31
f 122//31 80//31 124//31
f 124//32 80//32 79//32
f 124//32 79//32 126//32
f 126//33 79//33 77//33
f 126//33 77//33 128//33
f 128//34 77//34 75//34
f 128//34 75//34 130//34
f 130//35 75//35 73//35
f 130//35 73//35 132//35
f 132//36 73//36 71//36
f 132//36 71//36 134//36
f 134//37 71//37 69//37
f 134//37 69//37 179//37
f 179//38 69//38 67//38
f 179//38 67//38 180//38
f 180//39 67//39 108//39
f 180//39 108//39 182//39
f 182//40 108//40 107//40
f 182//40 107//40 184//40
f 184//41 107//41 105//41
f 184//41 105//41 186//41
f 186//42 105//42 103//42
f 186//42 103//42 188//42
f 188//43 103//43 101//43
f 188//43 101//43 189//43
f 189//44 101//44 99//44
f 189//44 99//44 173//44
f 173//45 99//45 98//45
f 173//45 98//45 175//45
f 175//46 98//46 86//46
f 175//46 86//46 177//46
f 177//47 86//47 84//47
f 177//47 84//47 178//47
f 178//48 84//48 82//48
f 178//48 82//48 115//48
f 115//49 82//49 94//49
f 115//49 94//49 117//49
f 117//50 94//50 93//50
f 117//50 93//50 119//50
f 119//51 93//51 91//51
f 119//51 91//51 120//51
f 120//52 91//52 89//52
f 120//52 89//52 110//52
f 110//53 89//53 88//53
f 110//53 88//53 112//53
f 112//54 88//54 43//54
f 112//54 43//54 167//54
f 167//55 43//55 41//55
f 167//55 41//55 168//55
f 168//56 41//56 49//56
f 168//56 49//56 170//56
f 170//57 49//57 48//57
f 170//57 48//57 171//57
f 171//58 48//58 46//58
f 171//58 46//58 164//58
f 164//59 46//59 97//59
f 164//59 97//59 200//59
f 200//60 97//60 96//60
f 200//60 96//60 201//60
f 201//61 96//61 95//61
f 201//61 95//61 203//61
f 203//62 95//62 53//62
f 203//62 53//62 210//62
f 210//63 53//63 51//63
f 210//63 51//63 211//63
f 211//64 51//64 50//64
f 211//64 50//64 213//64
f 213//3 50//3 215//3
f 74//65 129//65 72//65
f 72//65 129//65 131//65
f 72//66 131//66 70//66
f 70//66 131//66 133//66
f 70//67 133//67 68//67
f 68//67 133//67 135//67
f 68//68 135//68 66//68
f 66//68 135//68 181//68
f 66//69 181//69 106//69
f 106//69 181//69 183//69
f 106//70 183//70 104//70
f 104//70 183//70 185//70
f 104//71 185//71 102//71
f 102//71 185//71 187//71
f 102//72 187//72 100//72
f 100//72 187//72 172//72
f 100//73 172//73 87//73
f 87//73 172//73 174//73
f 87//74 174//74 85//74
f 85//74 174//74 176//74
f 85//75 176//75 83//75
f 83//75 176//75 114//75
f 83//76 114//76 81//76
f 81//76 114//76 116//76
f 81//77 116//77 92//77
f 92//78 116//78 118//78
f 92//79 118//79 90//79
f 90//79 118//79 109//79
f 90//80 109//80 44//80
f 44//80 109//80 111//80
f 44//81 111//81 42//81
f 42//81 111//81 113//81
f 42//82 113//82 40//82
f 40//82 113//82 169//82
f 40//83 169//83 47//83
f 47//83 169//83 166//83
f 47//84 166//84 45//84
f 45//84 166//84 165//84
f 45//85 165//85 54//85
f 54//85 165//85 202//85
f 54//86 202//86 52//86
f 52//86 202//86 204//86
f 52//87 204//87 32//87
f 32//87 204//87 212//87
f 32//88 212//88 30//88
f 30//88 212//88 214//88
f 30//89 214//89 28//89
f 28//89 214//89 205//89
f 28//90 205//90 5//90
f 5//90 205//90 207//90
f 5//91 207//91 3//91
f 3//91 207//91 197//91
f 3//92 197//92 1//92
f 1//92 197//92 159//92
f 1//93 159//93 6//93
f 6//93 159//93 161//93
f 6//94 161//94 11//94
f 11//94 161//94 154//94
f 11//95 154//95 9//95
f 9//95 154//95 156//95
f 9//96 156//96 16//96
f 16//96 156//96 147//96
f 16//97 147//97 14//97
f 14//97 147//97 149//97
f 14//98 149//98 37//98
f 37//98 149//98 151//98
f 37//99 151//99 35//99
f 35//99 151//99 153//99
f 35//100 153//100 25//100
f 25//100 153//100 192//100
f 25//101 192//101 23//101
f 23//101 192//101 194//101
f 23//102 194//102 21//102
f 21//102 194//102 136//102
f 21//103 136//103 19//103
f 19//103 136//103 138//103
f 19//104 138//104 63//104
f 63//104 138//104 140//104
f 63//105 140//105 61//105
f 61//105 140//105 142//105
f 61//106 142//106 59//106
f 59//106 142//106 144//106
f 59//107 144//107 57//107
f 57//107 144//107 121//107
f 57//108 121//108 55//108
f 55//108 121//108 123//108
f 55//109 123//109 78//109
f 78//109 123//109 125//109
f 78//110 125//110 76//110
f 76//110 125//110 127//110
f 76//111 127//111 74//111
f 74//111 127//111 129//111
