# Blender v2.79 (sub 0) OBJ File: ''
# www.blender.org
mtllib 335.mtl
o 335
v 67.499992 3.500000 -5.500000
v 67.499992 46.499996 -5.500000
v 67.499992 3.500000 0.000000
v 67.499992 46.499996 0.000000
v 63.999996 0.000000 -5.500000
v 63.999996 0.000000 0.000000
v 67.499992 3.500000 0.000000
v 3.500000 0.000000 -5.500000
v 3.500000 0.000000 0.000000
v 63.999996 0.000000 0.000000
v 0.000000 3.500000 -5.500000
v 0.000000 3.500000 0.000000
v 0.000000 46.499996 -5.500000
v 0.000000 46.499996 0.000000
v 3.500000 49.999996 -5.500000
v 3.500000 49.999996 0.000000
v 63.999996 49.999996 -5.500000
v 63.999996 49.999996 0.000000
v 7.499999 24.000000 -5.500000
v 7.499999 24.000000 0.000000
v 8.007001 24.043152 -5.500000
v 8.007001 24.043152 0.000000
v 8.499419 24.171368 -5.500000
v 8.499419 24.171368 0.000000
v 8.963084 24.380959 -5.500000
v 8.963084 24.380959 0.000000
v 9.384660 24.665892 -5.500000
v 9.384660 24.665892 0.000000
v 9.752016 25.017975 -5.500000
v 9.752016 25.017975 0.000000
v 10.054586 25.427076 -5.500000
v 10.054586 25.427076 0.000000
v 10.283666 25.881430 -5.500000
v 10.283666 25.881430 0.000000
v 10.432664 26.367962 -5.500000
v 10.432664 26.367962 0.000000
v 10.497296 26.872675 -5.500000
v 10.497296 26.872675 0.000000
v 10.475700 27.381054 -5.500000
v 10.475700 27.381054 0.000000
v 10.368500 27.878468 -5.500000
v 10.368500 27.878468 0.000000
v 10.178777 28.350611 -5.500000
v 10.178777 28.350611 0.000000
v 9.911990 28.783899 -5.500000
v 9.911990 28.783899 0.000000
v 9.575816 29.165867 -5.500000
v 9.575816 29.165867 0.000000
v 9.179924 29.485527 -5.500000
v 9.179924 29.485527 0.000000
v 8.735703 29.733685 -5.500000
v 8.735703 29.733685 0.000000
v 8.255935 29.903198 -5.500000
v 8.255935 29.903198 0.000000
v 7.754417 29.989193 -5.500000
v 7.754417 29.989193 0.000000
v 7.499999 30.000000 -5.500000
v 7.499999 30.000000 0.000000
v 7.245582 29.989193 -5.500000
v 7.245582 29.989193 0.000000
v 6.744064 29.903198 -5.500000
v 6.744064 29.903198 0.000000
v 6.264296 29.733685 -5.500000
v 6.264296 29.733685 0.000000
v 5.820075 29.485527 -5.500000
v 5.820075 29.485527 0.000000
v 5.424183 29.165867 -5.500000
v 5.424183 29.165867 0.000000
v 5.088007 28.783899 -5.500000
v 5.088007 28.783899 0.000000
v 4.821222 28.350611 -5.500000
v 4.821222 28.350611 0.000000
v 4.631499 27.878468 -5.500000
v 4.631499 27.878468 0.000000
v 4.524298 27.381054 -5.500000
v 4.524298 27.381054 0.000000
v 4.502703 26.872675 -5.500000
v 4.502703 26.872675 0.000000
v 4.567335 26.367962 -5.500000
v 4.567335 26.367962 0.000000
v 4.716333 25.881430 -5.500000
v 4.716333 25.881430 0.000000
v 4.945412 25.427076 -5.500000
v 4.945412 25.427076 0.000000
v 5.247982 25.017975 -5.500000
v 5.247982 25.017975 0.000000
v 5.615339 24.665892 -5.500000
v 5.615339 24.665892 0.000000
v 6.036915 24.380959 -5.500000
v 6.036915 24.380959 0.000000
v 6.500579 24.171368 -5.500000
v 6.500579 24.171368 0.000000
v 6.992998 24.043152 -5.500000
v 6.992998 24.043152 0.000000
v 60.000000 24.000000 -5.500000
v 60.000000 24.000000 0.000000
v 60.507000 24.043152 -5.500000
v 60.507000 24.043152 0.000000
v 60.999420 24.171368 -5.500000
v 60.999420 24.171368 0.000000
v 61.463085 24.380959 -5.500000
v 61.463085 24.380959 0.000000
v 61.884655 24.665892 -5.500000
v 61.884655 24.665892 0.000000
v 62.252014 25.017975 -5.500000
v 62.252014 25.017975 0.000000
v 62.554585 25.427076 -5.500000
v 62.554585 25.427076 0.000000
v 62.783665 25.881430 -5.500000
v 62.783665 25.881430 0.000000
v 62.932663 26.367962 -5.500000
v 62.932663 26.367962 0.000000
v 62.997295 26.872675 -5.500000
v 62.997295 26.872675 0.000000
v 62.975704 27.381054 -5.500000
v 62.975704 27.381054 0.000000
v 62.868500 27.878468 -5.500000
v 62.868500 27.878468 0.000000
v 62.678776 28.350611 -5.500000
v 62.678776 28.350611 0.000000
v 62.411991 28.783899 -5.500000
v 62.411991 28.783899 0.000000
v 62.075817 29.165867 -5.500000
v 62.075817 29.165867 0.000000
v 61.679920 29.485527 -5.500000
v 61.679920 29.485527 0.000000
v 61.235703 29.733685 -5.500000
v 61.235703 29.733685 0.000000
v 60.755932 29.903198 -5.500000
v 60.755932 29.903198 0.000000
v 60.254417 29.989193 -5.500000
v 60.254417 29.989193 0.000000
v 60.000000 30.000000 -5.500000
v 60.000000 30.000000 0.000000
v 59.745579 29.989193 -5.500000
v 59.745579 29.989193 0.000000
v 59.244068 29.903198 -5.500000
v 59.244068 29.903198 0.000000
v 58.764294 29.733685 -5.500000
v 58.764294 29.733685 0.000000
v 58.320076 29.485527 -5.500000
v 58.320076 29.485527 0.000000
v 57.924183 29.165867 -5.500000
v 57.924183 29.165867 0.000000
v 57.588009 28.783899 -5.500000
v 57.588009 28.783899 0.000000
v 57.321220 28.350611 -5.500000
v 57.321220 28.350611 0.000000
v 57.131500 27.878468 -5.500000
v 57.131500 27.878468 0.000000
v 57.024300 27.381054 -5.500000
v 57.024300 27.381054 0.000000
v 57.002701 26.872675 -5.500000
v 57.002701 26.872675 0.000000
v 57.067333 26.367962 -5.500000
v 57.067333 26.367962 0.000000
v 57.216331 25.881430 -5.500000
v 57.216331 25.881430 0.000000
v 57.445415 25.427076 -5.500000
v 57.445415 25.427076 0.000000
v 57.747982 25.017975 -5.500000
v 57.747982 25.017975 0.000000
v 58.115341 24.665892 -5.500000
v 58.115341 24.665892 0.000000
v 58.536919 24.380959 -5.500000
v 58.536919 24.380959 0.000000
v 59.000580 24.171368 -5.500000
v 59.000580 24.171368 0.000000
v 59.492996 24.043152 -5.500000
v 59.492996 24.043152 0.000000
v 67.499992 46.499996 0.000000
v 63.999996 49.999996 0.000000
v 48.750000 11.999999 0.000000
v 18.749998 11.999999 0.000000
v 18.749998 42.000000 0.000000
v 48.750000 42.000000 0.000000
v 48.750000 11.999999 -4.000000
v 18.749998 11.999999 -4.000000
v 18.749998 42.000000 -4.000000
v 48.750000 42.000000 -4.000000
vn 1.0000 0.0000 0.0000
vn 0.7071 -0.7071 0.0000
vn 0.0000 -1.0000 0.0000
vn -0.7071 -0.7071 0.0000
vn -1.0000 0.0000 0.0000
vn -0.7071 0.7071 0.0000
vn 0.0000 1.0000 0.0000
vn -0.0848 0.9964 0.0000
vn -0.2520 0.9677 0.0000
vn -0.4119 0.9112 0.0000
vn -0.5600 0.8285 0.0000
vn -0.6919 0.7220 0.0000
vn -0.8040 0.5946 0.0000
vn -0.8929 0.4502 0.0000
vn -0.9562 0.2928 0.0000
vn -0.9919 0.1270 0.0000
vn -0.9991 -0.0424 0.0000
vn -0.9776 -0.2107 0.0000
vn -0.9279 -0.3729 0.0000
vn -0.8515 -0.5243 0.0000
vn -0.7507 -0.6607 0.0000
vn -0.6282 -0.7780 0.0000
vn -0.4877 -0.8730 0.0000
vn -0.3331 -0.9429 0.0000
vn -0.1690 -0.9856 0.0000
vn -0.0424 -0.9991 0.0000
vn 0.0424 -0.9991 0.0000
vn 0.1690 -0.9856 0.0000
vn 0.3331 -0.9429 0.0000
vn 0.4877 -0.8730 0.0000
vn 0.6282 -0.7780 0.0000
vn 0.7507 -0.6607 0.0000
vn 0.8515 -0.5243 0.0000
vn 0.9279 -0.3729 0.0000
vn 0.9776 -0.2107 0.0000
vn 0.9991 -0.0424 0.0000
vn 0.9919 0.1270 0.0000
vn 0.9562 0.2928 0.0000
vn 0.8929 0.4502 0.0000
vn 0.8040 0.5946 0.0000
vn 0.6919 0.7220 0.0000
vn 0.5600 0.8285 0.0000
vn 0.4119 0.9112 0.0000
vn 0.2520 0.9677 0.0000
vn 0.0848 0.9964 0.0000
vn 0.7071 0.7071 0.0000
vn -0.0000 0.0000 -1.0000
vn 0.0000 0.0000 1.0000
usemtl None
s off
f 1//1 2//1 3//1
f 3//1 2//1 4//1
f 5//2 1//2 6//2
f 6//2 1//2 7//2
f 8//3 5//3 9//3
f 9//3 5//3 10//3
f 11//4 8//4 12//4
f 12//4 8//4 9//4
f 13//5 11//5 14//5
f 14//5 11//5 12//5
f 15//6 13//6 16//6
f 16//6 13//6 14//6
f 17//7 15//7 18//7
f 18//7 15//7 16//7
f 19//8 20//8 21//8
f 21//8 20//8 22//8
f 21//9 22//9 23//9
f 23//9 22//9 24//9
f 23//10 24//10 25//10
f 25//10 24//10 26//10
f 25//11 26//11 27//11
f 27//11 26//11 28//11
f 27//12 28//12 29//12
f 29//12 28//12 30//12
f 29//13 30//13 31//13
f 31//13 30//13 32//13
f 31//14 32//14 33//14
f 33//14 32//14 34//14
f 33//15 34//15 35//15
f 35//15 34//15 36//15
f 35//16 36//16 37//16
f 37//16 36//16 38//16
f 37//17 38//17 39//17
f 39//17 38//17 40//17
f 39//18 40//18 41//18
f 41//18 40//18 42//18
f 41//19 42//19 43//19
f 43//19 42//19 44//19
f 43//20 44//20 45//20
f 45//20 44//20 46//20
f 45//21 46//21 47//21
f 47//21 46//21 48//21
f 47//22 48//22 49//22
f 49//22 48//22 50//22
f 49//23 50//23 51//23
f 51//23 50//23 52//23
f 51//24 52//24 53//24
f 53//24 52//24 54//24
f 53//25 54//25 55//25
f 55//25 54//25 56//25
f 55//26 56//26 57//26
f 57//26 56//26 58//26
f 57//27 58//27 59//27
f 59//27 58//27 60//27
f 59//28 60//28 61//28
f 61//28 60//28 62//28
f 61//29 62//29 63//29
f 63//29 62//29 64//29
f 63//30 64//30 65//30
f 65//30 64//30 66//30
f 65//31 66//31 67//31
f 67//31 66//31 68//31
f 67//32 68//32 69//32
f 69//32 68//32 70//32
f 69//33 70//33 71//33
f 71//33 70//33 72//33
f 71//34 72//34 73//34
f 73//34 72//34 74//34
f 73//35 74//35 75//35
f 75//35 74//35 76//35
f 75//36 76//36 77//36
f 77//36 76//36 78//36
f 77//37 78//37 79//37
f 79//37 78//37 80//37
f 79//38 80//38 81//38
f 81//38 80//38 82//38
f 81//39 82//39 83//39
f 83//39 82//39 84//39
f 83//40 84//40 85//40
f 85//40 84//40 86//40
f 85//41 86//41 87//41
f 87//41 86//41 88//41
f 87//42 88//42 89//42
f 89//42 88//42 90//42
f 89//43 90//43 91//43
f 91//43 90//43 92//43
f 91//44 92//44 93//44
f 93//44 92//44 94//44
f 93//45 94//45 19//45
f 19//45 94//45 20//45
f 95//8 96//8 97//8
f 97//8 96//8 98//8
f 97//9 98//9 99//9
f 99//9 98//9 100//9
f 99//10 100//10 101//10
f 101//10 100//10 102//10
f 101//11 102//11 103//11
f 103//11 102//11 104//11
f 103//12 104//12 105//12
f 105//12 104//12 106//12
f 105//13 106//13 107//13
f 107//13 106//13 108//13
f 107//14 108//14 109//14
f 109//14 108//14 110//14
f 109//15 110//15 111//15
f 111//15 110//15 112//15
f 111//16 112//16 113//16
f 113//16 112//16 114//16
f 113//17 114//17 115//17
f 115//17 114//17 116//17
f 115//18 116//18 117//18
f 117//18 116//18 118//18
f 117//19 118//19 119//19
f 119//19 118//19 120//19
f 119//20 120//20 121//20
f 121//20 120//20 122//20
f 121//21 122//21 123//21
f 123//21 122//21 124//21
f 123//22 124//22 125//22
f 125//22 124//22 126//22
f 125//23 126//23 127//23
f 127//23 126//23 128//23
f 127//24 128//24 129//24
f 129//24 128//24 130//24
f 129//25 130//25 131//25
f 131//25 130//25 132//25
f 131//26 132//26 133//26
f 133//26 132//26 134//26
f 133//27 134//27 135//27
f 135//27 134//27 136//27
f 135//28 136//28 137//28
f 137//28 136//28 138//28
f 137//29 138//29 139//29
f 139//29 138//29 140//29
f 139//30 140//30 141//30
f 141//30 140//30 142//30
f 141//31 142//31 143//31
f 143//31 142//31 144//31
f 143//32 144//32 145//32
f 145//32 144//32 146//32
f 145//33 146//33 147//33
f 147//33 146//33 148//33
f 147//34 148//34 149//34
f 149//34 148//34 150//34
f 149//35 150//35 151//35
f 151//35 150//35 152//35
f 151//36 152//36 153//36
f 153//36 152//36 154//36
f 153//37 154//37 155//37
f 155//37 154//37 156//37
f 155//38 156//38 157//38
f 157//38 156//38 158//38
f 157//39 158//39 159//39
f 159//39 158//39 160//39
f 159//40 160//40 161//40
f 161//40 160//40 162//40
f 161//41 162//41 163//41
f 163//41 162//41 164//41
f 163//42 164//42 165//42
f 165//42 164//42 166//42
f 165//43 166//43 167//43
f 167//43 166//43 168//43
f 167//44 168//44 169//44
f 169//44 168//44 170//44
f 169//45 170//45 95//45
f 95//45 170//45 96//45
f 2//46 17//46 171//46
f 171//46 17//46 172//46
f 65//47 67//47 13//47
f 59//47 61//47 15//47
f 67//47 69//47 13//47
f 13//47 69//47 71//47
f 13//47 71//47 73//47
f 143//47 145//47 15//47
f 15//47 145//47 147//47
f 15//47 147//47 149//47
f 131//47 133//47 17//47
f 17//47 133//47 135//47
f 135//47 137//47 17//47
f 17//47 137//47 139//47
f 17//47 139//47 15//47
f 15//47 139//47 141//47
f 15//47 141//47 143//47
f 73//47 75//47 13//47
f 13//47 75//47 77//47
f 13//47 77//47 11//47
f 11//47 77//47 79//47
f 11//47 79//47 81//47
f 1//47 113//47 2//47
f 2//47 113//47 115//47
f 2//47 115//47 117//47
f 117//47 119//47 2//47
f 2//47 119//47 121//47
f 2//47 121//47 123//47
f 15//47 61//47 13//47
f 13//47 61//47 63//47
f 13//47 63//47 65//47
f 123//47 125//47 2//47
f 2//47 125//47 127//47
f 2//47 127//47 17//47
f 17//47 127//47 129//47
f 17//47 129//47 131//47
f 35//47 37//47 153//47
f 33//47 1//47 31//47
f 31//47 1//47 5//47
f 31//47 5//47 29//47
f 29//47 5//47 27//47
f 51//47 53//47 15//47
f 81//47 83//47 11//47
f 11//47 83//47 85//47
f 11//47 85//47 87//47
f 53//47 55//47 15//47
f 15//47 55//47 57//47
f 15//47 57//47 59//47
f 157//47 159//47 33//47
f 87//47 89//47 11//47
f 11//47 89//47 91//47
f 11//47 91//47 8//47
f 8//47 91//47 93//47
f 8//47 93//47 19//47
f 153//47 37//47 151//47
f 151//47 37//47 39//47
f 151//47 39//47 149//47
f 149//47 39//47 41//47
f 149//47 41//47 43//47
f 43//47 45//47 149//47
f 149//47 45//47 47//47
f 149//47 47//47 15//47
f 15//47 47//47 49//47
f 15//47 49//47 51//47
f 35//47 153//47 33//47
f 33//47 153//47 155//47
f 33//47 155//47 157//47
f 159//47 161//47 33//47
f 33//47 161//47 163//47
f 33//47 163//47 1//47
f 1//47 163//47 165//47
f 1//47 165//47 167//47
f 19//47 21//47 8//47
f 8//47 21//47 23//47
f 8//47 23//47 5//47
f 5//47 23//47 25//47
f 5//47 25//47 27//47
f 103//47 105//47 1//47
f 1//47 105//47 107//47
f 107//47 109//47 1//47
f 1//47 109//47 111//47
f 1//47 111//47 113//47
f 167//47 169//47 1//47
f 1//47 169//47 95//47
f 1//47 95//47 97//47
f 97//47 99//47 1//47
f 1//47 99//47 101//47
f 1//47 101//47 103//47
f 10//48 173//48 9//48
f 9//48 173//48 174//48
f 84//48 82//48 12//48
f 16//48 175//48 18//48
f 18//48 175//48 176//48
f 40//48 38//48 174//48
f 174//48 38//48 36//48
f 174//48 36//48 34//48
f 82//48 80//48 12//48
f 12//48 80//48 78//48
f 12//48 78//48 14//48
f 14//48 78//48 76//48
f 14//48 76//48 74//48
f 176//48 173//48 154//48
f 34//48 32//48 174//48
f 174//48 32//48 30//48
f 174//48 30//48 28//48
f 28//48 26//48 174//48
f 174//48 26//48 24//48
f 174//48 24//48 9//48
f 9//48 24//48 22//48
f 74//48 72//48 14//48
f 14//48 72//48 70//48
f 14//48 70//48 68//48
f 22//48 20//48 9//48
f 9//48 20//48 94//48
f 9//48 94//48 12//48
f 12//48 94//48 92//48
f 12//48 92//48 90//48
f 90//48 88//48 12//48
f 12//48 88//48 86//48
f 12//48 86//48 84//48
f 52//48 50//48 175//48
f 175//48 50//48 48//48
f 48//48 46//48 175//48
f 175//48 46//48 44//48
f 175//48 44//48 174//48
f 174//48 44//48 42//48
f 174//48 42//48 40//48
f 154//48 152//48 176//48
f 176//48 152//48 150//48
f 176//48 150//48 148//48
f 148//48 146//48 176//48
f 176//48 146//48 144//48
f 176//48 144//48 142//48
f 4//48 116//48 114//48
f 170//48 168//48 173//48
f 173//48 168//48 166//48
f 110//48 108//48 3//48
f 3//48 108//48 106//48
f 3//48 106//48 104//48
f 68//48 66//48 14//48
f 14//48 66//48 64//48
f 14//48 64//48 16//48
f 16//48 64//48 62//48
f 16//48 62//48 60//48
f 166//48 164//48 173//48
f 173//48 164//48 162//48
f 173//48 162//48 160//48
f 126//48 124//48 4//48
f 4//48 124//48 122//48
f 4//48 114//48 3//48
f 3//48 114//48 112//48
f 3//48 112//48 110//48
f 160//48 158//48 173//48
f 173//48 158//48 156//48
f 173//48 156//48 154//48
f 122//48 120//48 4//48
f 4//48 120//48 118//48
f 4//48 118//48 116//48
f 104//48 102//48 3//48
f 3//48 102//48 100//48
f 3//48 100//48 10//48
f 10//48 100//48 98//48
f 10//48 98//48 173//48
f 173//48 98//48 96//48
f 173//48 96//48 170//48
f 60//48 58//48 16//48
f 16//48 58//48 56//48
f 16//48 56//48 175//48
f 175//48 56//48 54//48
f 175//48 54//48 52//48
f 134//48 132//48 18//48
f 18//48 132//48 130//48
f 18//48 130//48 4//48
f 4//48 130//48 128//48
f 4//48 128//48 126//48
f 142//48 140//48 176//48
f 176//48 140//48 138//48
f 176//48 138//48 18//48
f 18//48 138//48 136//48
f 18//48 136//48 134//48
f 177//7 178//7 173//7
f 173//7 178//7 174//7
f 178//1 179//1 174//1
f 174//1 179//1 175//1
f 179//3 180//3 175//3
f 175//3 180//3 176//3
f 180//5 177//5 176//5
f 176//5 177//5 173//5
f 180//48 179//48 177//48
f 177//48 179//48 178//48
