# Blender v2.79 (sub 0) OBJ File: ''
# www.blender.org
mtllib 340.mtl
o 340
v 18.284483 12.500000 -38.286411
v 18.284483 0.000000 -38.286411
v 16.284771 0.000000 -38.090126
v 16.284771 12.500000 -38.090126
v 14.316626 0.000000 -37.685425
v 14.316626 12.500000 -37.685425
v 12.401711 0.000000 -37.076756
v 12.401711 12.500000 -37.076756
v 10.561099 0.000000 -36.270824
v 10.561099 12.500000 -36.270824
v 8.815049 0.000000 -35.276493
v 8.815049 12.500000 -35.276493
v 7.182779 0.000000 -34.104717
v 7.182779 12.500000 -34.104717
v 5.682250 0.000000 -32.768379
v 5.682250 12.500000 -32.768379
v 4.329979 0.000000 -31.282194
v 4.329979 12.500000 -31.282194
v 3.140850 0.000000 -29.662521
v 3.140850 12.500000 -29.662521
v 2.127947 0.000000 -27.927181
v 2.127947 12.500000 -27.927181
v 1.302421 0.000000 -26.095274
v 1.302421 12.500000 -26.095274
v 0.673356 0.000000 -24.186962
v 0.673356 12.500000 -24.186962
v 0.247674 0.000000 -22.223248
v 0.247674 12.500000 -22.223248
v 0.030063 0.000000 -20.225744
v 0.030063 12.500000 -20.225744
v 0.022916 0.000000 -18.216434
v 0.022916 12.500000 -18.216434
v 0.226311 0.000000 -16.217432
v 0.226311 12.500000 -16.217432
v 0.638014 0.000000 -14.250740
v 0.638014 12.500000 -14.250740
v 1.253488 0.000000 -12.338001
v 1.253488 12.500000 -12.338001
v 2.065962 0.000000 -10.500268
v 2.065962 12.500000 -10.500268
v 3.066495 0.000000 -8.757767
v 3.066495 12.500000 -8.757767
v 4.244072 0.000000 -7.129674
v 4.244072 12.500000 -7.129674
v 5.585737 0.000000 -5.633908
v 5.585737 12.500000 -5.633908
v 7.076721 0.000000 -4.286932
v 7.076721 12.500000 -4.286932
v 8.700615 0.000000 -3.103571
v 8.700615 12.500000 -3.103571
v 10.439547 0.000000 -2.096847
v 10.439547 12.500000 -2.096847
v 12.274379 0.000000 -1.277842
v 12.274379 12.500000 -1.277842
v 14.184916 0.000000 -0.655567
v 14.184916 12.500000 -0.655567
v 16.150131 0.000000 -0.236873
v 16.150131 12.500000 -0.236873
v 18.148397 0.000000 -0.026368
v 18.148397 12.500000 -0.026368
v 20.157719 0.000000 -0.026368
v 20.157719 12.500000 -0.026368
v 22.155985 0.000000 -0.236873
v 22.155985 12.500000 -0.236873
v 24.121201 0.000000 -0.655567
v 24.121201 12.500000 -0.655567
v 26.031738 0.000000 -1.277842
v 26.031738 12.500000 -1.277842
v 27.866570 0.000000 -2.096847
v 27.866570 12.500000 -2.096847
v 29.605503 0.000000 -3.103571
v 29.605503 12.500000 -3.103571
v 31.229395 0.000000 -4.286932
v 31.229395 12.500000 -4.286932
v 32.720379 0.000000 -5.633908
v 32.720379 12.500000 -5.633908
v 34.062042 0.000000 -7.129674
v 34.062042 12.500000 -7.129674
v 35.239620 0.000000 -8.757767
v 35.239620 12.500000 -8.757767
v 36.240154 0.000000 -10.500268
v 36.240154 12.500000 -10.500268
v 37.052631 0.000000 -12.338001
v 37.052631 12.500000 -12.338001
v 37.668102 0.000000 -14.250740
v 37.668102 12.500000 -14.250740
v 38.079807 0.000000 -16.217432
v 38.079807 12.500000 -16.217432
v 38.283199 0.000000 -18.216434
v 38.283199 12.500000 -18.216434
v 38.276054 0.000000 -20.225744
v 38.276054 12.500000 -20.225744
v 38.058445 0.000000 -22.223248
v 38.058445 12.500000 -22.223248
v 37.632763 0.000000 -24.186962
v 37.632763 12.500000 -24.186962
v 37.003696 0.000000 -26.095274
v 37.003696 12.500000 -26.095274
v 36.178173 0.000000 -27.927181
v 36.178173 12.500000 -27.927181
v 35.165264 0.000000 -29.662521
v 35.165264 12.500000 -29.662521
v 33.976139 0.000000 -31.282194
v 33.976139 12.500000 -31.282194
v 32.623863 0.000000 -32.768379
v 32.623863 12.500000 -32.768379
v 31.123339 0.000000 -34.104717
v 31.123339 12.500000 -34.104717
v 29.491066 0.000000 -35.276493
v 29.491066 12.500000 -35.276493
v 27.745018 0.000000 -36.270824
v 27.745018 12.500000 -36.270824
v 25.904406 0.000000 -37.076756
v 25.904406 12.500000 -37.076756
v 23.989491 0.000000 -37.685425
v 23.989491 12.500000 -37.685425
v 22.021345 0.000000 -38.090126
v 22.021345 12.500000 -38.090126
v 20.021635 0.000000 -38.286411
v 20.021635 12.500000 -38.286411
v 20.021635 12.500000 -28.518658
v 20.021635 0.000000 -28.518658
v 21.391659 12.500000 -28.288568
v 21.391659 0.000000 -28.288568
v 22.712849 12.500000 -27.859194
v 22.712849 0.000000 -27.859194
v 23.956383 12.500000 -27.239897
v 23.956383 0.000000 -27.239897
v 25.095135 12.500000 -26.444191
v 25.095135 0.000000 -26.444191
v 26.104263 12.500000 -25.489431
v 26.104263 0.000000 -25.489431
v 26.961758 12.500000 -24.396448
v 26.961758 0.000000 -24.396448
v 27.648905 12.500000 -23.189081
v 27.648905 0.000000 -23.189081
v 28.150723 12.500000 -21.893671
v 28.150723 0.000000 -21.893671
v 28.456257 12.500000 -20.538475
v 28.456257 0.000000 -20.538475
v 28.558849 12.500000 -19.153059
v 28.558849 0.000000 -19.153059
v 28.456257 12.500000 -17.767641
v 28.456257 0.000000 -17.767641
v 28.150723 12.500000 -16.412447
v 28.150723 0.000000 -16.412447
v 27.648905 12.500000 -15.117036
v 27.648905 0.000000 -15.117036
v 26.961758 12.500000 -13.909670
v 26.961758 0.000000 -13.909670
v 26.104263 12.500000 -12.816686
v 26.104263 0.000000 -12.816686
v 25.095135 12.500000 -11.861926
v 25.095135 0.000000 -11.861926
v 23.956383 12.500000 -11.066219
v 23.956383 0.000000 -11.066219
v 22.712849 12.500000 -10.446923
v 22.712849 0.000000 -10.446923
v 21.391659 12.500000 -10.017548
v 21.391659 0.000000 -10.017548
v 20.021635 12.500000 -9.787458
v 20.021635 0.000000 -9.787458
v 20.021635 12.500000 -4.848076
v 20.021635 0.000000 -4.848076
v 18.284483 12.500000 -4.848076
v 18.284483 0.000000 -4.848076
v 18.284483 12.500000 -9.787458
v 18.284483 0.000000 -9.787458
v 16.914459 12.500000 -10.017548
v 16.914459 0.000000 -10.017548
v 15.593269 12.500000 -10.446923
v 15.593269 0.000000 -10.446923
v 14.349734 12.500000 -11.066219
v 14.349734 0.000000 -11.066219
v 13.210981 12.500000 -11.861926
v 13.210981 0.000000 -11.861926
v 12.201852 12.500000 -12.816686
v 12.201852 0.000000 -12.816686
v 11.344360 12.500000 -13.909670
v 11.344360 0.000000 -13.909670
v 10.657211 12.500000 -15.117036
v 10.657211 0.000000 -15.117036
v 10.155396 12.500000 -16.412447
v 10.155396 0.000000 -16.412447
v 9.849859 12.500000 -17.767641
v 9.849859 0.000000 -17.767641
v 9.747268 12.500000 -19.153059
v 9.747268 0.000000 -19.153059
v 9.849859 12.500000 -20.538475
v 9.849859 0.000000 -20.538475
v 10.155396 12.500000 -21.893671
v 10.155396 0.000000 -21.893671
v 10.657211 12.500000 -23.189081
v 10.657211 0.000000 -23.189081
v 11.344360 12.500000 -24.396448
v 11.344360 0.000000 -24.396448
v 12.201852 12.500000 -25.489431
v 12.201852 0.000000 -25.489431
v 13.210981 12.500000 -26.444191
v 13.210981 0.000000 -26.444191
v 14.349734 12.500000 -27.239897
v 14.349734 0.000000 -27.239897
v 15.593269 12.500000 -27.859194
v 15.593269 0.000000 -27.859194
v 16.914459 12.500000 -28.288568
v 16.914459 0.000000 -28.288568
v 18.284483 12.500000 -28.518658
v 18.284483 0.000000 -28.518658
vn -0.0977 0.0000 -0.9952
vn -0.2014 0.0000 -0.9795
vn -0.3029 0.0000 -0.9530
vn -0.4011 0.0000 -0.9160
vn -0.4949 0.0000 -0.8690
vn -0.5832 0.0000 -0.8123
vn -0.6651 0.0000 -0.7468
vn -0.7396 0.0000 -0.6730
vn -0.8061 0.0000 -0.5918
vn -0.8636 0.0000 -0.5041
vn -0.9117 0.0000 -0.4108
vn -0.9497 0.0000 -0.3131
vn -0.9773 0.0000 -0.2119
vn -0.9941 0.0000 -0.1083
vn -1.0000 0.0000 -0.0036
vn -0.9949 0.0000 0.1012
vn -0.9788 0.0000 0.2049
vn -0.9519 0.0000 0.3063
vn -0.9146 0.0000 0.4044
vn -0.8672 0.0000 0.4979
vn -0.8103 0.0000 0.5861
vn -0.7444 0.0000 0.6677
vn -0.6704 0.0000 0.7420
vn -0.5889 0.0000 0.8082
vn -0.5010 0.0000 0.8654
vn -0.4076 0.0000 0.9132
vn -0.3097 0.0000 0.9508
vn -0.2084 0.0000 0.9780
vn -0.1048 0.0000 0.9945
vn 0.0000 0.0000 1.0000
vn 0.1048 0.0000 0.9945
vn 0.2084 0.0000 0.9780
vn 0.3097 0.0000 0.9508
vn 0.4076 0.0000 0.9132
vn 0.5010 0.0000 0.8654
vn 0.5889 0.0000 0.8082
vn 0.6704 0.0000 0.7420
vn 0.7444 0.0000 0.6677
vn 0.8103 0.0000 0.5861
vn 0.8672 0.0000 0.4979
vn 0.9146 0.0000 0.4044
vn 0.9519 0.0000 0.3063
vn 0.9788 0.0000 0.2049
vn 0.9949 0.0000 0.1012
vn 1.0000 0.0000 -0.0036
vn 0.9941 0.0000 -0.1083
vn 0.9773 0.0000 -0.2119
vn 0.9497 0.0000 -0.3131
vn 0.9117 0.0000 -0.4108
vn 0.8636 0.0000 -0.5041
vn 0.8061 0.0000 -0.5918
vn 0.7396 0.0000 -0.6730
vn 0.6651 0.0000 -0.7468
vn 0.5832 0.0000 -0.8123
vn 0.4949 0.0000 -0.8690
vn 0.4011 0.0000 -0.9160
vn 0.3029 0.0000 -0.9530
vn 0.2014 0.0000 -0.9795
vn 0.0977 0.0000 -0.9952
vn -1.0000 0.0000 0.0000
vn -0.1656 0.0000 0.9862
vn -0.3091 0.0000 0.9510
vn -0.4458 0.0000 0.8951
vn -0.5728 0.0000 0.8197
vn -0.6873 0.0000 0.7264
vn -0.7868 0.0000 0.6173
vn -0.8691 0.0000 0.4946
vn -0.9325 0.0000 0.3612
vn -0.9755 0.0000 0.2199
vn -0.9973 0.0000 0.0738
vn -0.9973 0.0000 -0.0738
vn -0.9755 0.0000 -0.2199
vn -0.9325 0.0000 -0.3612
vn -0.8691 0.0000 -0.4946
vn -0.7868 0.0000 -0.6173
vn -0.6873 0.0000 -0.7264
vn -0.5728 0.0000 -0.8197
vn -0.4458 0.0000 -0.8951
vn -0.3091 0.0000 -0.9510
vn -0.1656 0.0000 -0.9862
vn 0.0000 0.0000 -1.0000
vn 1.0000 0.0000 0.0000
vn 0.1656 0.0000 -0.9862
vn 0.3091 0.0000 -0.9510
vn 0.4458 0.0000 -0.8951
vn 0.5728 0.0000 -0.8197
vn 0.6873 0.0000 -0.7264
vn 0.7868 0.0000 -0.6173
vn 0.8691 0.0000 -0.4946
vn 0.9325 0.0000 -0.3612
vn 0.9755 0.0000 -0.2199
vn 0.9973 0.0000 -0.0738
vn 0.9973 0.0000 0.0738
vn 0.9755 0.0000 0.2199
vn 0.9325 0.0000 0.3612
vn 0.8691 0.0000 0.4946
vn 0.7868 0.0000 0.6173
vn 0.6873 0.0000 0.7264
vn 0.5728 0.0000 0.8197
vn 0.4458 0.0000 0.8951
vn 0.3091 0.0000 0.9510
vn 0.1656 0.0000 0.9862
vn 0.0000 1.0000 0.0000
vn 0.0000 -1.0000 0.0000
usemtl None
s off
f 1//1 2//1 3//1
f 1//1 3//1 4//1
f 4//2 3//2 5//2
f 4//2 5//2 6//2
f 6//3 5//3 7//3
f 6//3 7//3 8//3
f 8//4 7//4 9//4
f 8//4 9//4 10//4
f 10//5 9//5 11//5
f 10//5 11//5 12//5
f 12//6 11//6 13//6
f 12//6 13//6 14//6
f 14//7 13//7 15//7
f 14//7 15//7 16//7
f 16//8 15//8 17//8
f 16//8 17//8 18//8
f 18//9 17//9 19//9
f 18//9 19//9 20//9
f 20//10 19//10 21//10
f 20//10 21//10 22//10
f 22//11 21//11 23//11
f 22//11 23//11 24//11
f 24//12 23//12 25//12
f 24//12 25//12 26//12
f 26//13 25//13 27//13
f 26//13 27//13 28//13
f 28//14 27//14 29//14
f 28//14 29//14 30//14
f 30//15 29//15 31//15
f 30//15 31//15 32//15
f 32//16 31//16 33//16
f 32//16 33//16 34//16
f 34//17 33//17 35//17
f 34//17 35//17 36//17
f 36//18 35//18 37//18
f 36//18 37//18 38//18
f 38//19 37//19 39//19
f 38//19 39//19 40//19
f 40//20 39//20 41//20
f 40//20 41//20 42//20
f 42//21 41//21 43//21
f 42//21 43//21 44//21
f 44//22 43//22 45//22
f 44//22 45//22 46//22
f 46//23 45//23 47//23
f 46//23 47//23 48//23
f 48//24 47//24 49//24
f 48//24 49//24 50//24
f 50//25 49//25 51//25
f 50//25 51//25 52//25
f 52//26 51//26 53//26
f 52//26 53//26 54//26
f 54//27 53//27 55//27
f 54//27 55//27 56//27
f 56//28 55//28 57//28
f 56//28 57//28 58//28
f 58//29 57//29 59//29
f 58//29 59//29 60//29
f 60//30 59//30 61//30
f 60//30 61//30 62//30
f 62//31 61//31 63//31
f 62//31 63//31 64//31
f 64//32 63//32 65//32
f 64//32 65//32 66//32
f 66//33 65//33 67//33
f 66//33 67//33 68//33
f 68//34 67//34 69//34
f 68//34 69//34 70//34
f 70//35 69//35 71//35
f 70//35 71//35 72//35
f 72//36 71//36 73//36
f 72//36 73//36 74//36
f 74//37 73//37 75//37
f 74//37 75//37 76//37
f 76//38 75//38 77//38
f 76//38 77//38 78//38
f 78//39 77//39 79//39
f 78//39 79//39 80//39
f 80//40 79//40 81//40
f 80//40 81//40 82//40
f 82//41 81//41 83//41
f 82//41 83//41 84//41
f 84//42 83//42 85//42
f 84//42 85//42 86//42
f 86//43 85//43 87//43
f 86//43 87//43 88//43
f 88//44 87//44 89//44
f 88//44 89//44 90//44
f 90//45 89//45 91//45
f 90//45 91//45 92//45
f 92//46 91//46 93//46
f 92//46 93//46 94//46
f 94//47 93//47 95//47
f 94//47 95//47 96//47
f 96//48 95//48 97//48
f 96//48 97//48 98//48
f 98//49 97//49 99//49
f 98//49 99//49 100//49
f 100//50 99//50 101//50
f 100//50 101//50 102//50
f 102//51 101//51 103//51
f 102//51 103//51 104//51
f 104//52 103//52 105//52
f 104//52 105//52 106//52
f 106//53 105//53 107//53
f 106//53 107//53 108//53
f 108//54 107//54 109//54
f 108//54 109//54 110//54
f 110//55 109//55 111//55
f 110//55 111//55 112//55
f 112//56 111//56 113//56
f 112//56 113//56 114//56
f 114//57 113//57 115//57
f 114//57 115//57 116//57
f 116//58 115//58 117//58
f 116//58 117//58 118//58
f 118//59 117//59 119//59
f 118//59 119//59 120//59
f 121//60 120//60 122//60
f 122//60 120//60 119//60
f 121//61 122//61 123//61
f 123//61 122//61 124//61
f 123//62 124//62 125//62
f 125//62 124//62 126//62
f 125//63 126//63 127//63
f 127//63 126//63 128//63
f 127//64 128//64 129//64
f 129//64 128//64 130//64
f 129//65 130//65 131//65
f 131//65 130//65 132//65
f 131//66 132//66 133//66
f 133//66 132//66 134//66
f 133//67 134//67 135//67
f 135//67 134//67 136//67
f 135//68 136//68 137//68
f 137//68 136//68 138//68
f 137//69 138//69 139//69
f 139//69 138//69 140//69
f 139//70 140//70 141//70
f 141//70 140//70 142//70
f 141//71 142//71 143//71
f 143//71 142//71 144//71
f 143//72 144//72 145//72
f 145//72 144//72 146//72
f 145//73 146//73 147//73
f 147//73 146//73 148//73
f 147//74 148//74 149//74
f 149//74 148//74 150//74
f 149//75 150//75 151//75
f 151//75 150//75 152//75
f 151//76 152//76 153//76
f 153//76 152//76 154//76
f 153//77 154//77 155//77
f 155//77 154//77 156//77
f 155//78 156//78 157//78
f 157//78 156//78 158//78
f 157//79 158//79 159//79
f 159//79 158//79 160//79
f 159//80 160//80 161//80
f 161//80 160//80 162//80
f 163//60 161//60 164//60
f 164//60 161//60 162//60
f 165//81 163//81 166//81
f 166//81 163//81 164//81
f 167//82 165//82 168//82
f 168//82 165//82 166//82
f 167//83 168//83 169//83
f 169//83 168//83 170//83
f 169//84 170//84 171//84
f 171//84 170//84 172//84
f 171//85 172//85 173//85
f 173//85 172//85 174//85
f 173//86 174//86 175//86
f 175//86 174//86 176//86
f 175//87 176//87 177//87
f 177//87 176//87 178//87
f 177//88 178//88 179//88
f 179//88 178//88 180//88
f 179//89 180//89 181//89
f 181//89 180//89 182//89
f 181//90 182//90 183//90
f 183//90 182//90 184//90
f 183//91 184//91 185//91
f 185//91 184//91 186//91
f 185//92 186//92 187//92
f 187//92 186//92 188//92
f 187//93 188//93 189//93
f 189//93 188//93 190//93
f 189//94 190//94 191//94
f 191//94 190//94 192//94
f 191//95 192//95 193//95
f 193//95 192//95 194//95
f 193//96 194//96 195//96
f 195//96 194//96 196//96
f 195//97 196//97 197//97
f 197//97 196//97 198//97
f 197//98 198//98 199//98
f 199//98 198//98 200//98
f 199//99 200//99 201//99
f 201//99 200//99 202//99
f 201//100 202//100 203//100
f 203//100 202//100 204//100
f 203//101 204//101 205//101
f 205//101 204//101 206//101
f 205//102 206//102 207//102
f 207//102 206//102 208//102
f 1//82 207//82 2//82
f 2//82 207//82 208//82
f 64//103 66//103 163//103
f 120//103 121//103 118//103
f 118//103 121//103 123//103
f 203//103 205//103 6//103
f 56//103 58//103 165//103
f 165//103 58//103 60//103
f 165//103 60//103 163//103
f 163//103 60//103 62//103
f 163//103 62//103 64//103
f 6//103 205//103 4//103
f 4//103 205//103 207//103
f 4//103 207//103 1//103
f 179//103 44//103 177//103
f 177//103 44//103 46//103
f 177//103 46//103 175//103
f 175//103 46//103 48//103
f 175//103 48//103 173//103
f 127//103 112//103 125//103
f 125//103 112//103 114//103
f 125//103 114//103 123//103
f 123//103 114//103 116//103
f 123//103 116//103 118//103
f 147//103 84//103 145//103
f 145//103 84//103 86//103
f 145//103 86//103 143//103
f 143//103 86//103 88//103
f 143//103 88//103 141//103
f 165//103 167//103 56//103
f 56//103 167//103 169//103
f 56//103 169//103 54//103
f 54//103 169//103 171//103
f 54//103 171//103 52//103
f 52//103 171//103 173//103
f 52//103 173//103 50//103
f 50//103 173//103 48//103
f 133//103 104//103 131//103
f 131//103 104//103 106//103
f 131//103 106//103 129//103
f 129//103 106//103 108//103
f 129//103 108//103 127//103
f 127//103 108//103 110//103
f 127//103 110//103 112//103
f 137//103 98//103 135//103
f 135//103 98//103 100//103
f 135//103 100//103 133//103
f 133//103 100//103 102//103
f 133//103 102//103 104//103
f 88//103 90//103 141//103
f 141//103 90//103 92//103
f 141//103 92//103 139//103
f 139//103 92//103 94//103
f 139//103 94//103 137//103
f 137//103 94//103 96//103
f 137//103 96//103 98//103
f 151//103 78//103 149//103
f 149//103 78//103 80//103
f 149//103 80//103 147//103
f 147//103 80//103 82//103
f 147//103 82//103 84//103
f 157//103 70//103 155//103
f 155//103 70//103 72//103
f 155//103 72//103 153//103
f 153//103 72//103 74//103
f 153//103 74//103 151//103
f 151//103 74//103 76//103
f 151//103 76//103 78//103
f 6//103 8//103 203//103
f 203//103 8//103 10//103
f 203//103 10//103 201//103
f 201//103 10//103 12//103
f 201//103 12//103 199//103
f 199//103 12//103 14//103
f 199//103 14//103 197//103
f 161//103 163//103 159//103
f 159//103 163//103 66//103
f 159//103 66//103 157//103
f 157//103 66//103 68//103
f 157//103 68//103 70//103
f 183//103 38//103 181//103
f 181//103 38//103 40//103
f 181//103 40//103 179//103
f 179//103 40//103 42//103
f 179//103 42//103 44//103
f 14//103 16//103 197//103
f 197//103 16//103 18//103
f 197//103 18//103 195//103
f 195//103 18//103 20//103
f 195//103 20//103 193//103
f 189//103 30//103 187//103
f 187//103 30//103 32//103
f 187//103 32//103 185//103
f 185//103 32//103 34//103
f 185//103 34//103 183//103
f 183//103 34//103 36//103
f 183//103 36//103 38//103
f 20//103 22//103 193//103
f 193//103 22//103 24//103
f 193//103 24//103 191//103
f 191//103 24//103 26//103
f 191//103 26//103 189//103
f 189//103 26//103 28//103
f 189//103 28//103 30//103
f 170//104 168//104 166//104
f 2//104 208//104 3//104
f 3//104 208//104 206//104
f 126//104 124//104 115//104
f 65//104 63//104 164//104
f 164//104 63//104 61//104
f 164//104 61//104 166//104
f 166//104 61//104 59//104
f 172//104 170//104 55//104
f 55//104 170//104 166//104
f 55//104 166//104 57//104
f 57//104 166//104 59//104
f 115//104 124//104 117//104
f 117//104 124//104 122//104
f 117//104 122//104 119//104
f 196//104 17//104 198//104
f 198//104 17//104 15//104
f 198//104 15//104 200//104
f 200//104 15//104 13//104
f 200//104 13//104 202//104
f 178//104 43//104 180//104
f 180//104 43//104 41//104
f 180//104 41//104 182//104
f 13//104 11//104 202//104
f 202//104 11//104 9//104
f 202//104 9//104 204//104
f 204//104 9//104 7//104
f 204//104 7//104 206//104
f 206//104 7//104 5//104
f 206//104 5//104 3//104
f 192//104 23//104 194//104
f 194//104 23//104 21//104
f 194//104 21//104 196//104
f 196//104 21//104 19//104
f 196//104 19//104 17//104
f 55//104 53//104 172//104
f 172//104 53//104 51//104
f 172//104 51//104 174//104
f 174//104 51//104 49//104
f 174//104 49//104 176//104
f 176//104 49//104 47//104
f 176//104 47//104 178//104
f 178//104 47//104 45//104
f 178//104 45//104 43//104
f 140//104 91//104 142//104
f 142//104 91//104 89//104
f 142//104 89//104 144//104
f 144//104 89//104 87//104
f 144//104 87//104 146//104
f 188//104 29//104 190//104
f 190//104 29//104 27//104
f 190//104 27//104 192//104
f 192//104 27//104 25//104
f 192//104 25//104 23//104
f 41//104 39//104 182//104
f 182//104 39//104 37//104
f 182//104 37//104 184//104
f 184//104 37//104 35//104
f 184//104 35//104 186//104
f 186//104 35//104 33//104
f 186//104 33//104 188//104
f 188//104 33//104 31//104
f 188//104 31//104 29//104
f 164//104 162//104 65//104
f 65//104 162//104 160//104
f 65//104 160//104 67//104
f 67//104 160//104 158//104
f 67//104 158//104 69//104
f 69//104 158//104 156//104
f 150//104 77//104 152//104
f 152//104 77//104 75//104
f 152//104 75//104 154//104
f 154//104 75//104 73//104
f 154//104 73//104 156//104
f 156//104 73//104 71//104
f 156//104 71//104 69//104
f 87//104 85//104 146//104
f 146//104 85//104 83//104
f 146//104 83//104 148//104
f 148//104 83//104 81//104
f 148//104 81//104 150//104
f 150//104 81//104 79//104
f 150//104 79//104 77//104
f 136//104 97//104 138//104
f 138//104 97//104 95//104
f 138//104 95//104 140//104
f 140//104 95//104 93//104
f 140//104 93//104 91//104
f 132//104 103//104 134//104
f 134//104 103//104 101//104
f 134//104 101//104 136//104
f 136//104 101//104 99//104
f 136//104 99//104 97//104
f 115//104 113//104 126//104
f 126//104 113//104 111//104
f 126//104 111//104 128//104
f 128//104 111//104 109//104
f 128//104 109//104 130//104
f 130//104 109//104 107//104
f 130//104 107//104 132//104
f 132//104 107//104 105//104
f 132//104 105//104 103//104
