# Blender v2.79 (sub 0) OBJ File: ''
# www.blender.org
mtllib 871.mtl
o 871
v 6.854156 209.000000 -15.109174
v 4.756927 209.000000 -18.515291
v 6.035952 209.000000 -14.504034
v 3.393252 209.000000 -17.506721
v 5.331785 209.000000 -13.769320
v 2.219642 209.000000 -16.282200
v 4.761915 209.000000 -12.926169
v 1.269858 209.000000 -14.876948
v 4.342735 209.000000 -11.998838
v 0.571226 209.000000 -13.331397
v 4.086305 209.000000 -11.014005
v 0.143841 209.000000 -11.690007
v 4.000000 209.000000 -10.000000
v 0.000000 209.000000 -10.000000
v 4.086305 209.000000 -8.985994
v 0.143841 209.000000 -8.309992
v 4.342735 209.000000 -8.001161
v 0.571226 209.000000 -6.668602
v 4.761915 209.000000 -7.073830
v 1.269858 209.000000 -5.123050
v 5.331785 209.000000 -6.230680
v 2.219642 209.000000 -3.717800
v 6.035952 209.000000 -5.495966
v 3.393252 209.000000 -2.493277
v 6.854156 209.000000 -4.890825
v 4.756927 209.000000 -1.484709
v 7.762861 209.000000 -4.432666
v 6.271435 209.000000 -0.721109
v 8.735924 209.000000 -4.134668
v 7.893207 209.000000 -0.224448
v 9.745353 209.000000 -4.005406
v 9.575587 209.000000 -0.009011
v 10.762107 209.000000 -4.048597
v 11.270179 209.000000 -0.080995
v 11.756936 209.000000 -4.262999
v 12.928227 209.000000 -0.438333
v 12.701222 209.000000 -4.642445
v 14.502037 209.000000 -1.070742
v 13.567799 209.000000 -5.176017
v 15.946332 209.000000 -1.960029
v 14.331736 209.000000 -5.848367
v 17.219561 209.000000 -3.080611
v 14.971058 209.000000 -6.640151
v 18.285095 209.000000 -4.400252
v 15.467371 209.000000 -7.528593
v 19.112286 209.000000 -5.880987
v 15.806397 209.000000 -8.488132
v 19.677330 209.000000 -7.480219
v 15.978385 209.000000 -9.491164
v 19.963976 209.000000 -9.151940
v 15.999999 209.000000 -10.000000
v 20.000000 209.000000 -10.000000
v 15.978385 209.000000 -10.508835
v 19.963976 209.000000 -10.848060
v 15.806397 209.000000 -11.511868
v 19.677330 209.000000 -12.519780
v 15.467371 209.000000 -12.471408
v 19.112286 209.000000 -14.119012
v 14.971058 209.000000 -13.359848
v 18.285095 209.000000 -15.599748
v 14.331736 209.000000 -14.151632
v 17.219561 209.000000 -16.919390
v 13.567799 209.000000 -14.823982
v 15.946332 209.000000 -18.039972
v 12.701222 209.000000 -15.357554
v 14.502037 209.000000 -18.929258
v 11.756936 209.000000 -15.737000
v 12.928227 209.000000 -19.561666
v 10.762107 209.000000 -15.951403
v 11.270179 209.000000 -19.919004
v 9.745353 209.000000 -15.994594
v 9.575587 209.000000 -19.990988
v 8.735924 209.000000 -15.865332
v 7.893207 209.000000 -19.775551
v 7.762861 209.000000 -15.567334
v 6.271435 209.000000 -19.278891
v 5.028942 46.000000 -13.359848
v 4.532629 46.000000 -12.471408
v 0.571226 46.000000 -13.331397
v 0.143841 46.000000 -11.690007
v 19.677330 46.000000 -12.519780
v 19.963976 46.000000 -10.848060
v 15.913695 46.000000 -11.014005
v 15.999999 46.000000 -10.000000
v 4.193602 46.000000 -11.511868
v 4.021615 46.000000 -10.508835
v 0.000000 46.000000 -10.000000
v 4.021615 46.000000 -9.491164
v 0.143841 46.000000 -8.309992
v 4.193602 46.000000 -8.488132
v 0.571226 46.000000 -6.668602
v 4.532629 46.000000 -7.528593
v 1.269858 46.000000 -5.123050
v 5.028942 46.000000 -6.640151
v 2.219642 46.000000 -3.717800
v 5.668263 46.000000 -5.848367
v 3.393252 46.000000 -2.493277
v 6.432201 46.000000 -5.176017
v 4.756927 46.000000 -1.484709
v 7.298778 46.000000 -4.642445
v 6.271435 46.000000 -0.721109
v 8.243064 46.000000 -4.262999
v 7.893207 46.000000 -0.224448
v 9.237893 46.000000 -4.048597
v 9.575587 46.000000 -0.009011
v 10.254646 46.000000 -4.005406
v 11.270179 46.000000 -0.080995
v 11.264075 46.000000 -4.134668
v 12.928227 46.000000 -0.438333
v 12.237139 46.000000 -4.432666
v 14.502037 46.000000 -1.070742
v 13.145844 46.000000 -4.890825
v 15.946332 46.000000 -1.960029
v 13.964047 46.000000 -5.495966
v 17.219561 46.000000 -3.080611
v 14.668214 46.000000 -6.230680
v 18.285095 46.000000 -4.400252
v 15.238084 46.000000 -7.073830
v 19.112286 46.000000 -5.880987
v 15.657265 46.000000 -8.001161
v 19.677330 46.000000 -7.480219
v 15.913695 46.000000 -8.985994
v 19.963976 46.000000 -9.151940
v 20.000000 46.000000 -10.000000
v 1.269858 46.000000 -14.876948
v 2.219642 46.000000 -16.282200
v 5.668263 46.000000 -14.151632
v 3.393252 46.000000 -17.506721
v 6.432201 46.000000 -14.823982
v 4.756927 46.000000 -18.515291
v 7.298778 46.000000 -15.357554
v 6.271435 46.000000 -19.278891
v 8.243064 46.000000 -15.737000
v 7.893207 46.000000 -19.775551
v 9.237893 46.000000 -15.951403
v 9.575587 46.000000 -19.990988
v 10.254646 46.000000 -15.994594
v 11.270179 46.000000 -19.919004
v 11.264075 46.000000 -15.865332
v 12.237139 46.000000 -15.567334
v 19.112286 46.000000 -14.119012
v 15.657265 46.000000 -11.998838
v 18.285095 46.000000 -15.599748
v 15.238084 46.000000 -12.926169
v 17.219561 46.000000 -16.919390
v 14.668214 46.000000 -13.769320
v 13.964047 46.000000 -14.504034
v 15.946332 46.000000 -18.039972
v 13.145844 46.000000 -15.109174
v 14.502037 46.000000 -18.929258
v 12.928227 46.000000 -19.561666
v 4.000000 0.000000 -10.000000
v 4.021615 0.000000 -9.491164
v 4.193602 0.000000 -8.488132
v 4.532629 0.000000 -7.528593
v 5.028942 0.000000 -6.640151
v 5.668263 0.000000 -5.848367
v 6.432201 0.000000 -5.176017
v 7.298778 0.000000 -4.642445
v 8.243064 0.000000 -4.262999
v 9.237893 0.000000 -4.048597
v 10.254646 0.000000 -4.005406
v 11.264075 0.000000 -4.134668
v 12.237139 0.000000 -4.432666
v 13.145844 0.000000 -4.890825
v 13.964047 0.000000 -5.495966
v 14.668214 0.000000 -6.230680
v 15.238084 0.000000 -7.073830
v 15.657265 0.000000 -8.001161
v 15.913695 0.000000 -8.985994
v 15.999999 0.000000 -10.000000
v 15.913695 0.000000 -11.014005
v 15.657265 0.000000 -11.998838
v 15.238084 0.000000 -12.926169
v 14.668214 0.000000 -13.769320
v 13.964047 0.000000 -14.504034
v 13.145844 0.000000 -15.109174
v 12.237139 0.000000 -15.567334
v 11.264075 0.000000 -15.865332
v 10.254646 0.000000 -15.994594
v 9.237893 0.000000 -15.951403
v 8.243064 0.000000 -15.737000
v 7.298778 0.000000 -15.357554
v 6.432201 0.000000 -14.823982
v 5.668263 0.000000 -14.151632
v 5.028942 0.000000 -13.359848
v 4.532629 0.000000 -12.471408
v 4.193602 0.000000 -11.511868
v 4.021615 0.000000 -10.508835
v 15.978385 219.000000 -10.508835
v 15.999999 219.000000 -10.000000
v 15.806397 219.000000 -11.511868
v 15.467371 219.000000 -12.471408
v 14.971058 219.000000 -13.359848
v 14.331736 219.000000 -14.151632
v 13.567799 219.000000 -14.823982
v 12.701222 219.000000 -15.357554
v 11.756936 219.000000 -15.737000
v 10.762107 219.000000 -15.951403
v 9.745353 219.000000 -15.994594
v 8.735924 219.000000 -15.865332
v 7.762861 219.000000 -15.567334
v 6.854156 219.000000 -15.109174
v 6.035952 219.000000 -14.504034
v 5.331785 219.000000 -13.769320
v 4.761915 219.000000 -12.926169
v 4.342735 219.000000 -11.998838
v 4.086305 219.000000 -11.014005
v 4.000000 219.000000 -10.000000
v 4.086305 219.000000 -8.985994
v 4.342735 219.000000 -8.001161
v 4.761915 219.000000 -7.073830
v 5.331785 219.000000 -6.230680
v 6.035952 219.000000 -5.495966
v 6.854156 219.000000 -4.890825
v 7.762861 219.000000 -4.432666
v 8.735924 219.000000 -4.134668
v 9.745353 219.000000 -4.005406
v 10.762107 219.000000 -4.048597
v 11.756936 219.000000 -4.262999
v 12.701222 219.000000 -4.642445
v 13.567799 219.000000 -5.176017
v 14.331736 219.000000 -5.848367
v 14.971058 219.000000 -6.640151
v 15.467371 219.000000 -7.528593
v 15.806397 219.000000 -8.488132
v 15.978385 219.000000 -9.491164
vn 0.0000 1.0000 0.0000
vn 0.0000 -1.0000 0.0000
vn 0.9991 0.0000 -0.0424
vn 0.9991 0.0000 0.0424
vn 0.9856 0.0000 -0.1690
vn 0.9429 0.0000 -0.3331
vn 0.8730 0.0000 -0.4877
vn 0.7780 0.0000 -0.6282
vn 0.6607 0.0000 -0.7507
vn 0.5243 0.0000 -0.8515
vn 0.3729 0.0000 -0.9279
vn 0.2107 0.0000 -0.9776
vn 0.0424 0.0000 -0.9991
vn -0.1270 0.0000 -0.9919
vn -0.2928 0.0000 -0.9562
vn -0.4502 0.0000 -0.8929
vn -0.5946 0.0000 -0.8040
vn -0.7220 0.0000 -0.6919
vn -0.8285 0.0000 -0.5600
vn -0.9112 0.0000 -0.4119
vn -0.9677 0.0000 -0.2520
vn -0.9964 0.0000 -0.0848
vn -0.9964 0.0000 0.0848
vn -0.9677 0.0000 0.2520
vn -0.9112 0.0000 0.4119
vn -0.8285 0.0000 0.5600
vn -0.7220 0.0000 0.6919
vn -0.5946 0.0000 0.8040
vn -0.4502 0.0000 0.8929
vn -0.2928 0.0000 0.9562
vn -0.1270 0.0000 0.9919
vn 0.0424 0.0000 0.9991
vn 0.2107 0.0000 0.9776
vn 0.3729 0.0000 0.9279
vn 0.5243 0.0000 0.8515
vn 0.6607 0.0000 0.7507
vn 0.7780 0.0000 0.6282
vn 0.8730 0.0000 0.4877
vn 0.9429 0.0000 0.3331
vn 0.9856 0.0000 0.1690
vn -0.9991 0.0000 0.0424
vn -0.9856 0.0000 0.1690
vn -0.9429 0.0000 0.3331
vn -0.8730 0.0000 0.4877
vn -0.7780 0.0000 0.6282
vn -0.6607 0.0000 0.7507
vn -0.5243 0.0000 0.8515
vn -0.3729 0.0000 0.9279
vn -0.2107 0.0000 0.9776
vn -0.0424 0.0000 0.9991
vn 0.1270 0.0000 0.9919
vn 0.2928 0.0000 0.9562
vn 0.4502 0.0000 0.8929
vn 0.5946 0.0000 0.8040
vn 0.7220 0.0000 0.6919
vn 0.8285 0.0000 0.5600
vn 0.9112 0.0000 0.4119
vn 0.9677 0.0000 0.2520
vn 0.9964 0.0000 0.0848
vn 0.9964 0.0000 -0.0848
vn 0.9677 0.0000 -0.2520
vn 0.9112 0.0000 -0.4119
vn 0.8285 0.0000 -0.5600
vn 0.7220 0.0000 -0.6919
vn 0.5946 0.0000 -0.8040
vn 0.4502 0.0000 -0.8929
vn 0.2928 0.0000 -0.9562
vn 0.1270 0.0000 -0.9919
vn -0.0424 0.0000 -0.9991
vn -0.2107 0.0000 -0.9776
vn -0.3729 0.0000 -0.9279
vn -0.5243 0.0000 -0.8515
vn -0.6607 0.0000 -0.7507
vn -0.7780 0.0000 -0.6282
vn -0.8730 0.0000 -0.4877
vn -0.9429 0.0000 -0.3331
vn -0.9856 0.0000 -0.1690
vn -0.9991 0.0000 -0.0424
vn -1.0000 0.0005 0.0000
vn 0.0000 1.0000 0.0001
usemtl None
s off
f 1//1 2//1 3//1
f 3//1 2//1 4//1
f 3//1 4//1 5//1
f 5//1 4//1 6//1
f 5//1 6//1 7//1
f 7//1 6//1 8//1
f 7//1 8//1 9//1
f 9//1 8//1 10//1
f 9//1 10//1 11//1
f 11//1 10//1 12//1
f 11//1 12//1 13//1
f 13//1 12//1 14//1
f 13//1 14//1 15//1
f 15//1 14//1 16//1
f 15//1 16//1 17//1
f 17//1 16//1 18//1
f 17//1 18//1 19//1
f 19//1 18//1 20//1
f 19//1 20//1 21//1
f 21//1 20//1 22//1
f 21//1 22//1 23//1
f 23//1 22//1 24//1
f 23//1 24//1 25//1
f 25//1 24//1 26//1
f 25//1 26//1 27//1
f 27//1 26//1 28//1
f 27//1 28//1 29//1
f 29//1 28//1 30//1
f 29//1 30//1 31//1
f 31//1 30//1 32//1
f 31//1 32//1 33//1
f 33//1 32//1 34//1
f 33//1 34//1 35//1
f 35//1 34//1 36//1
f 35//1 36//1 37//1
f 37//1 36//1 38//1
f 37//1 38//1 39//1
f 39//1 38//1 40//1
f 39//1 40//1 41//1
f 41//1 40//1 42//1
f 41//1 42//1 43//1
f 43//1 42//1 44//1
f 43//1 44//1 45//1
f 45//1 44//1 46//1
f 45//1 46//1 47//1
f 47//1 46//1 48//1
f 47//1 48//1 49//1
f 49//1 48//1 50//1
f 49//1 50//1 51//1
f 51//1 50//1 52//1
f 51//1 52//1 53//1
f 53//1 52//1 54//1
f 53//1 54//1 55//1
f 55//1 54//1 56//1
f 55//1 56//1 57//1
f 57//1 56//1 58//1
f 57//1 58//1 59//1
f 59//1 58//1 60//1
f 59//1 60//1 61//1
f 61//1 60//1 62//1
f 61//1 62//1 63//1
f 63//1 62//1 64//1
f 63//1 64//1 65//1
f 65//1 64//1 66//1
f 65//1 66//1 67//1
f 67//1 66//1 68//1
f 67//1 68//1 69//1
f 69//1 68//1 70//1
f 69//1 70//1 71//1
f 71//1 70//1 72//1
f 71//1 72//1 73//1
f 73//1 72//1 74//1
f 73//1 74//1 75//1
f 75//1 74//1 76//1
f 75//1 76//1 1//1
f 1//1 76//1 2//1
f 77//2 78//2 79//2
f 79//2 78//2 80//2
f 81//2 82//2 83//2
f 83//2 82//2 84//2
f 78//2 85//2 80//2
f 80//2 85//2 86//2
f 80//2 86//2 87//2
f 87//2 86//2 88//2
f 87//2 88//2 89//2
f 89//2 88//2 90//2
f 89//2 90//2 91//2
f 91//2 90//2 92//2
f 91//2 92//2 93//2
f 93//2 92//2 94//2
f 93//2 94//2 95//2
f 95//2 94//2 96//2
f 95//2 96//2 97//2
f 97//2 96//2 98//2
f 97//2 98//2 99//2
f 99//2 98//2 100//2
f 99//2 100//2 101//2
f 101//2 100//2 102//2
f 101//2 102//2 103//2
f 103//2 102//2 104//2
f 103//2 104//2 105//2
f 105//2 104//2 106//2
f 105//2 106//2 107//2
f 107//2 106//2 108//2
f 107//2 108//2 109//2
f 109//2 108//2 110//2
f 109//2 110//2 111//2
f 111//2 110//2 112//2
f 111//2 112//2 113//2
f 113//2 112//2 114//2
f 113//2 114//2 115//2
f 115//2 114//2 116//2
f 115//2 116//2 117//2
f 117//2 116//2 118//2
f 117//2 118//2 119//2
f 119//2 118//2 120//2
f 119//2 120//2 121//2
f 121//2 120//2 122//2
f 121//2 122//2 123//2
f 123//2 122//2 84//2
f 123//2 84//2 124//2
f 124//2 84//2 82//2
f 79//2 125//2 77//2
f 77//2 125//2 126//2
f 77//2 126//2 127//2
f 127//2 126//2 128//2
f 127//2 128//2 129//2
f 129//2 128//2 130//2
f 129//2 130//2 131//2
f 131//2 130//2 132//2
f 131//2 132//2 133//2
f 133//2 132//2 134//2
f 133//2 134//2 135//2
f 135//2 134//2 136//2
f 135//2 136//2 137//2
f 137//2 136//2 138//2
f 137//2 138//2 139//2
f 139//2 138//2 140//2
f 81//2 83//2 141//2
f 141//2 83//2 142//2
f 141//2 142//2 143//2
f 143//2 142//2 144//2
f 143//2 144//2 145//2
f 144//2 146//2 145//2
f 145//2 146//2 147//2
f 145//2 147//2 148//2
f 148//2 147//2 149//2
f 148//2 149//2 150//2
f 150//2 149//2 140//2
f 150//2 140//2 151//2
f 151//2 140//2 138//2
f 54//3 52//3 124//3
f 124//4 52//4 123//4
f 124//3 82//3 54//3
f 54//5 82//5 81//5
f 54//5 81//5 56//5
f 56//6 81//6 141//6
f 56//6 141//6 58//6
f 58//7 141//7 143//7
f 58//7 143//7 60//7
f 60//8 143//8 145//8
f 60//8 145//8 62//8
f 62//9 145//9 148//9
f 62//9 148//9 64//9
f 64//10 148//10 150//10
f 64//10 150//10 66//10
f 66//11 150//11 151//11
f 66//11 151//11 68//11
f 68//12 151//12 138//12
f 68//12 138//12 70//12
f 70//13 138//13 136//13
f 70//13 136//13 72//13
f 72//14 136//14 134//14
f 72//14 134//14 74//14
f 74//15 134//15 132//15
f 74//15 132//15 76//15
f 76//16 132//16 130//16
f 76//16 130//16 2//16
f 2//17 130//17 128//17
f 2//17 128//17 4//17
f 4//18 128//18 126//18
f 4//18 126//18 6//18
f 6//19 126//19 125//19
f 6//19 125//19 8//19
f 8//20 125//20 79//20
f 8//20 79//20 10//20
f 10//21 79//21 80//21
f 10//21 80//21 12//21
f 12//22 80//22 87//22
f 12//22 87//22 14//22
f 14//23 87//23 89//23
f 14//23 89//23 16//23
f 16//24 89//24 91//24
f 16//24 91//24 18//24
f 18//25 91//25 93//25
f 18//25 93//25 20//25
f 20//26 93//26 95//26
f 20//26 95//26 22//26
f 22//27 95//27 97//27
f 22//27 97//27 24//27
f 24//28 97//28 99//28
f 24//28 99//28 26//28
f 26//29 99//29 101//29
f 26//29 101//29 28//29
f 28//30 101//30 103//30
f 28//30 103//30 30//30
f 30//31 103//31 105//31
f 30//31 105//31 32//31
f 32//32 105//32 107//32
f 32//32 107//32 34//32
f 34//33 107//33 109//33
f 34//33 109//33 36//33
f 36//34 109//34 111//34
f 36//34 111//34 38//34
f 38//35 111//35 113//35
f 38//35 113//35 40//35
f 40//36 113//36 115//36
f 40//36 115//36 42//36
f 42//37 115//37 117//37
f 42//37 117//37 44//37
f 44//38 117//38 119//38
f 44//38 119//38 46//38
f 46//39 119//39 121//39
f 46//39 121//39 48//39
f 48//40 121//40 123//40
f 48//40 123//40 50//40
f 50//4 123//4 52//4
f 152//41 153//41 88//41
f 88//42 153//42 154//42
f 88//42 154//42 90//42
f 90//43 154//43 155//43
f 90//43 155//43 92//43
f 92//44 155//44 156//44
f 92//44 156//44 94//44
f 94//45 156//45 157//45
f 94//45 157//45 96//45
f 96//46 157//46 158//46
f 96//46 158//46 98//46
f 98//47 158//47 159//47
f 98//47 159//47 100//47
f 100//48 159//48 160//48
f 100//48 160//48 102//48
f 102//49 160//49 161//49
f 102//49 161//49 104//49
f 104//50 161//50 162//50
f 104//50 162//50 106//50
f 106//51 162//51 163//51
f 106//51 163//51 108//51
f 108//52 163//52 164//52
f 108//52 164//52 110//52
f 110//53 164//53 165//53
f 110//53 165//53 112//53
f 112//54 165//54 166//54
f 112//54 166//54 114//54
f 114//55 166//55 167//55
f 114//55 167//55 116//55
f 116//56 167//56 168//56
f 116//56 168//56 118//56
f 118//57 168//57 169//57
f 118//57 169//57 120//57
f 120//58 169//58 170//58
f 120//58 170//58 122//58
f 122//59 170//59 171//59
f 122//59 171//59 84//59
f 84//60 171//60 172//60
f 84//60 172//60 83//60
f 83//61 172//61 173//61
f 83//61 173//61 142//61
f 142//62 173//62 174//62
f 142//62 174//62 144//62
f 144//63 174//63 175//63
f 144//63 175//63 146//63
f 146//64 175//64 176//64
f 146//64 176//64 147//64
f 147//65 176//65 177//65
f 147//65 177//65 149//65
f 149//66 177//66 178//66
f 149//66 178//66 140//66
f 140//67 178//67 179//67
f 140//67 179//67 139//67
f 139//68 179//68 180//68
f 139//68 180//68 137//68
f 137//69 180//69 181//69
f 137//69 181//69 135//69
f 135//70 181//70 182//70
f 135//70 182//70 133//70
f 133//71 182//71 183//71
f 133//71 183//71 131//71
f 131//72 183//72 184//72
f 131//72 184//72 129//72
f 129//73 184//73 185//73
f 129//73 185//73 127//73
f 127//74 185//74 186//74
f 127//74 186//74 77//74
f 77//75 186//75 187//75
f 77//75 187//75 78//75
f 78//76 187//76 188//76
f 78//76 188//76 85//76
f 85//77 188//77 189//77
f 85//77 189//77 86//77
f 86//78 189//78 152//78
f 86//79 152//79 88//79
f 170//2 153//2 171//2
f 171//2 153//2 152//2
f 171//2 152//2 189//2
f 170//2 169//2 153//2
f 153//2 169//2 168//2
f 153//2 168//2 167//2
f 156//2 167//2 166//2
f 156//2 155//2 167//2
f 167//2 155//2 154//2
f 167//2 154//2 153//2
f 189//2 188//2 171//2
f 171//2 188//2 187//2
f 171//2 187//2 186//2
f 186//2 185//2 171//2
f 171//2 185//2 184//2
f 171//2 184//2 183//2
f 179//2 178//2 177//2
f 175//2 174//2 181//2
f 181//2 174//2 173//2
f 166//2 165//2 156//2
f 156//2 165//2 164//2
f 156//2 164//2 163//2
f 181//2 180//2 175//2
f 175//2 180//2 179//2
f 175//2 179//2 176//2
f 176//2 179//2 177//2
f 183//2 182//2 171//2
f 171//2 182//2 181//2
f 171//2 181//2 172//2
f 172//2 181//2 173//2
f 163//2 162//2 156//2
f 156//2 162//2 161//2
f 156//2 161//2 160//2
f 160//2 159//2 156//2
f 156//2 159//2 158//2
f 156//2 158//2 157//2
f 190//3 191//3 51//3
f 51//4 191//4 49//4
f 51//3 53//3 190//3
f 190//5 53//5 55//5
f 190//5 55//5 192//5
f 192//6 55//6 57//6
f 192//6 57//6 193//6
f 193//7 57//7 59//7
f 193//7 59//7 194//7
f 194//8 59//8 61//8
f 194//8 61//8 195//8
f 195//9 61//9 63//9
f 195//9 63//9 196//9
f 196//10 63//10 65//10
f 196//10 65//10 197//10
f 197//11 65//11 67//11
f 197//11 67//11 198//11
f 198//12 67//12 69//12
f 198//12 69//12 199//12
f 199//13 69//13 71//13
f 199//13 71//13 200//13
f 200//14 71//14 73//14
f 200//14 73//14 201//14
f 201//15 73//15 75//15
f 201//15 75//15 202//15
f 202//16 75//16 1//16
f 202//16 1//16 203//16
f 203//17 1//17 3//17
f 203//17 3//17 204//17
f 204//18 3//18 5//18
f 204//18 5//18 205//18
f 205//19 5//19 7//19
f 205//19 7//19 206//19
f 206//20 7//20 9//20
f 206//20 9//20 207//20
f 207//21 9//21 11//21
f 207//21 11//21 208//21
f 208//22 11//22 13//22
f 208//22 13//22 209//22
f 209//23 13//23 15//23
f 209//23 15//23 210//23
f 210//24 15//24 17//24
f 210//24 17//24 211//24
f 211//25 17//25 19//25
f 211//25 19//25 212//25
f 212//26 19//26 21//26
f 212//26 21//26 213//26
f 213//27 21//27 23//27
f 213//27 23//27 214//27
f 214//28 23//28 25//28
f 214//28 25//28 215//28
f 215//29 25//29 27//29
f 215//29 27//29 216//29
f 216//30 27//30 29//30
f 216//30 29//30 217//30
f 217//31 29//31 31//31
f 217//31 31//31 218//31
f 218//32 31//32 33//32
f 218//32 33//32 219//32
f 219//33 33//33 35//33
f 219//33 35//33 220//33
f 220//34 35//34 37//34
f 220//34 37//34 221//34
f 221//35 37//35 39//35
f 221//35 39//35 222//35
f 222//36 39//36 41//36
f 222//36 41//36 223//36
f 223//37 41//37 43//37
f 223//37 43//37 224//37
f 224//38 43//38 45//38
f 224//38 45//38 225//38
f 225//39 45//39 47//39
f 225//39 47//39 226//39
f 226//40 47//40 49//40
f 226//40 49//40 227//40
f 227//4 49//4 191//4
f 210//1 227//1 209//1
f 209//1 227//1 191//1
f 209//1 191//1 190//1
f 210//1 211//1 227//1
f 227//1 211//1 212//1
f 227//1 212//1 213//1
f 224//1 213//1 214//1
f 224//1 225//1 213//1
f 213//1 225//1 226//1
f 213//1 226//1 227//1
f 190//1 192//1 209//1
f 209//1 192//1 193//1
f 209//1 193//1 194//1
f 194//1 195//1 209//1
f 209//1 195//1 196//1
f 209//1 196//1 197//1
f 201//1 202//1 203//1
f 205//1 206//1 199//1
f 199//1 206//1 207//1
f 214//1 215//1 224//1
f 224//1 215//1 216//1
f 224//1 216//1 217//1
f 199//1 200//1 205//1
f 205//1 200//1 201//1
f 205//1 201//1 204//1
f 204//80 201//80 203//80
f 197//1 198//1 209//1
f 209//1 198//1 199//1
f 209//1 199//1 208//1
f 208//1 199//1 207//1
f 217//1 218//1 224//1
f 224//1 218//1 219//1
f 224//1 219//1 220//1
f 220//80 221//80 224//80
f 224//1 221//1 222//1
f 224//1 222//1 223//1
