# Blender v2.79 (sub 0) OBJ File: ''
# www.blender.org
mtllib 872.mtl
o 872
v 6.854156 218.000015 -15.109174
v 4.756927 218.000015 -18.515291
v 6.035952 218.000015 -14.504034
v 3.393252 218.000015 -17.506721
v 5.331785 218.000015 -13.769320
v 2.219642 218.000015 -16.282200
v 4.761915 218.000015 -12.926169
v 1.269858 218.000015 -14.876948
v 4.342735 218.000015 -11.998838
v 0.571226 218.000015 -13.331397
v 4.086305 218.000015 -11.014005
v 0.143841 218.000015 -11.690007
v 4.000000 218.000015 -10.000000
v 0.000000 218.000015 -10.000000
v 4.086305 218.000015 -8.985994
v 0.143841 218.000015 -8.309992
v 4.342735 218.000015 -8.001161
v 0.571226 218.000015 -6.668602
v 4.761915 218.000015 -7.073830
v 1.269858 218.000015 -5.123050
v 5.331785 218.000015 -6.230680
v 2.219642 218.000015 -3.717800
v 6.035952 218.000015 -5.495966
v 3.393252 218.000015 -2.493277
v 6.854156 218.000015 -4.890825
v 4.756927 218.000015 -1.484709
v 7.762861 218.000015 -4.432666
v 6.271435 218.000015 -0.721109
v 8.735924 218.000015 -4.134668
v 7.893207 218.000015 -0.224448
v 9.745353 218.000015 -4.005406
v 9.575587 218.000015 -0.009011
v 10.762107 218.000015 -4.048597
v 11.270179 218.000015 -0.080995
v 11.756936 218.000015 -4.262999
v 12.928227 218.000015 -0.438333
v 12.701222 218.000015 -4.642445
v 14.502037 218.000015 -1.070742
v 13.567799 218.000015 -5.176017
v 15.946332 218.000015 -1.960029
v 14.331736 218.000015 -5.848367
v 17.219561 218.000015 -3.080611
v 14.971058 218.000015 -6.640151
v 18.285095 218.000015 -4.400252
v 15.467371 218.000015 -7.528593
v 19.112286 218.000015 -5.880987
v 15.806397 218.000015 -8.488132
v 19.677330 218.000015 -7.480219
v 15.978385 218.000015 -9.491164
v 19.963976 218.000015 -9.151940
v 15.999999 218.000015 -10.000000
v 20.000000 218.000015 -10.000000
v 15.978385 218.000015 -10.508835
v 19.963976 218.000015 -10.848060
v 15.806397 218.000015 -11.511868
v 19.677330 218.000015 -12.519780
v 15.467371 218.000015 -12.471408
v 19.112286 218.000015 -14.119012
v 14.971058 218.000015 -13.359848
v 18.285095 218.000015 -15.599748
v 14.331736 218.000015 -14.151632
v 17.219561 218.000015 -16.919390
v 13.567799 218.000015 -14.823982
v 15.946332 218.000015 -18.039972
v 12.701222 218.000015 -15.357554
v 14.502037 218.000015 -18.929258
v 11.756936 218.000015 -15.737000
v 12.928227 218.000015 -19.561666
v 10.762107 218.000015 -15.951403
v 11.270179 218.000015 -19.919004
v 9.745353 218.000015 -15.994594
v 9.575587 218.000015 -19.990988
v 8.735924 218.000015 -15.865332
v 7.893207 218.000015 -19.775551
v 7.762861 218.000015 -15.567334
v 6.271435 218.000015 -19.278891
v 5.028942 46.000000 -13.359848
v 4.532629 46.000000 -12.471408
v 0.571226 46.000000 -13.331397
v 0.143841 46.000000 -11.690007
v 19.677330 46.000000 -12.519780
v 19.963976 46.000000 -10.848060
v 15.913695 46.000000 -11.014005
v 15.999999 46.000000 -10.000000
v 4.193602 46.000000 -11.511868
v 4.021615 46.000000 -10.508835
v 0.000000 46.000000 -10.000000
v 4.021615 46.000000 -9.491164
v 0.143841 46.000000 -8.309992
v 4.193602 46.000000 -8.488132
v 0.571226 46.000000 -6.668602
v 4.532629 46.000000 -7.528593
v 1.269858 46.000000 -5.123050
v 5.028942 46.000000 -6.640151
v 2.219642 46.000000 -3.717800
v 5.668263 46.000000 -5.848367
v 3.393252 46.000000 -2.493277
v 6.432201 46.000000 -5.176017
v 4.756927 46.000000 -1.484709
v 7.298778 46.000000 -4.642445
v 6.271435 46.000000 -0.721109
v 8.243064 46.000000 -4.262999
v 7.893207 46.000000 -0.224448
v 9.237893 46.000000 -4.048597
v 9.575587 46.000000 -0.009011
v 10.254646 46.000000 -4.005406
v 11.270179 46.000000 -0.080995
v 11.264075 46.000000 -4.134668
v 12.928227 46.000000 -0.438333
v 12.237139 46.000000 -4.432666
v 14.502037 46.000000 -1.070742
v 13.145844 46.000000 -4.890825
v 15.946332 46.000000 -1.960029
v 13.964047 46.000000 -5.495966
v 17.219561 46.000000 -3.080611
v 14.668214 46.000000 -6.230680
v 18.285095 46.000000 -4.400252
v 15.238084 46.000000 -7.073830
v 19.112286 46.000000 -5.880987
v 15.657265 46.000000 -8.001161
v 19.677330 46.000000 -7.480219
v 15.913695 46.000000 -8.985994
v 19.963976 46.000000 -9.151940
v 20.000000 46.000000 -10.000000
v 1.269858 46.000000 -14.876948
v 2.219642 46.000000 -16.282200
v 5.668263 46.000000 -14.151632
v 3.393252 46.000000 -17.506721
v 6.432201 46.000000 -14.823982
v 4.756927 46.000000 -18.515291
v 7.298778 46.000000 -15.357554
v 6.271435 46.000000 -19.278891
v 8.243064 46.000000 -15.737000
v 7.893207 46.000000 -19.775551
v 9.237893 46.000000 -15.951403
v 9.575587 46.000000 -19.990988
v 10.254646 46.000000 -15.994594
v 11.270179 46.000000 -19.919004
v 11.264075 46.000000 -15.865332
v 12.237139 46.000000 -15.567334
v 19.112286 46.000000 -14.119012
v 15.657265 46.000000 -11.998838
v 18.285095 46.000000 -15.599748
v 15.238084 46.000000 -12.926169
v 17.219561 46.000000 -16.919390
v 14.668214 46.000000 -13.769320
v 13.964047 46.000000 -14.504034
v 15.946332 46.000000 -18.039972
v 13.145844 46.000000 -15.109174
v 14.502037 46.000000 -18.929258
v 12.928227 46.000000 -19.561666
v 4.000000 0.000000 -10.000000
v 4.021615 0.000000 -9.491164
v 4.193602 0.000000 -8.488132
v 4.532629 0.000000 -7.528593
v 5.028942 0.000000 -6.640151
v 5.668263 0.000000 -5.848367
v 6.432201 0.000000 -5.176017
v 7.298778 0.000000 -4.642445
v 8.243064 0.000000 -4.262999
v 9.237893 0.000000 -4.048597
v 10.254646 0.000000 -4.005406
v 11.264075 0.000000 -4.134668
v 12.237139 0.000000 -4.432666
v 13.145844 0.000000 -4.890825
v 13.964047 0.000000 -5.495966
v 14.668214 0.000000 -6.230680
v 15.238084 0.000000 -7.073830
v 15.657265 0.000000 -8.001161
v 15.913695 0.000000 -8.985994
v 15.999999 0.000000 -10.000000
v 15.913695 0.000000 -11.014005
v 15.657265 0.000000 -11.998838
v 15.238084 0.000000 -12.926169
v 14.668214 0.000000 -13.769320
v 13.964047 0.000000 -14.504034
v 13.145844 0.000000 -15.109174
v 12.237139 0.000000 -15.567334
v 11.264075 0.000000 -15.865332
v 10.254646 0.000000 -15.994594
v 9.237893 0.000000 -15.951403
v 8.243064 0.000000 -15.737000
v 7.298778 0.000000 -15.357554
v 6.432201 0.000000 -14.823982
v 5.668263 0.000000 -14.151632
v 5.028942 0.000000 -13.359848
v 4.532629 0.000000 -12.471408
v 4.193602 0.000000 -11.511868
v 4.021615 0.000000 -10.508835
v 15.978385 228.000000 -10.508835
v 15.999999 228.000000 -10.000000
v 15.806397 228.000000 -11.511868
v 15.467371 228.000000 -12.471408
v 14.971058 228.000000 -13.359848
v 14.331736 228.000000 -14.151632
v 13.567799 228.000000 -14.823982
v 12.701222 228.000000 -15.357554
v 11.756936 228.000000 -15.737000
v 10.762107 228.000000 -15.951403
v 9.745353 228.000000 -15.994594
v 8.735924 228.000000 -15.865332
v 7.762861 228.000000 -15.567334
v 6.854156 228.000000 -15.109174
v 6.035952 228.000000 -14.504034
v 5.331785 228.000000 -13.769320
v 4.761915 228.000000 -12.926169
v 4.342735 228.000000 -11.998838
v 4.086305 228.000000 -11.014005
v 4.000000 228.000000 -10.000000
v 4.086305 228.000000 -8.985994
v 4.342735 228.000000 -8.001161
v 4.761915 228.000000 -7.073830
v 5.331785 228.000000 -6.230680
v 6.035952 228.000000 -5.495966
v 6.854156 228.000000 -4.890825
v 7.762861 228.000000 -4.432666
v 8.735924 228.000000 -4.134668
v 9.745353 228.000000 -4.005406
v 10.762107 228.000000 -4.048597
v 11.756936 228.000000 -4.262999
v 12.701222 228.000000 -4.642445
v 13.567799 228.000000 -5.176017
v 14.331736 228.000000 -5.848367
v 14.971058 228.000000 -6.640151
v 15.467371 228.000000 -7.528593
v 15.806397 228.000000 -8.488132
v 15.978385 228.000000 -9.491164
vn 0.0000 1.0000 0.0000
vn 0.0000 1.0000 0.0001
vn 0.0000 -1.0000 0.0000
vn 0.9991 0.0000 -0.0424
vn 0.9991 0.0000 0.0424
vn 0.9856 0.0000 -0.1690
vn 0.9429 0.0000 -0.3331
vn 0.8730 0.0000 -0.4877
vn 0.7780 0.0000 -0.6282
vn 0.6607 0.0000 -0.7507
vn 0.5243 0.0000 -0.8515
vn 0.3729 0.0000 -0.9279
vn 0.2107 0.0000 -0.9776
vn 0.0424 0.0000 -0.9991
vn -0.1270 0.0000 -0.9919
vn -0.2928 0.0000 -0.9562
vn -0.4502 0.0000 -0.8929
vn -0.5946 0.0000 -0.8040
vn -0.7220 0.0000 -0.6919
vn -0.8285 0.0000 -0.5600
vn -0.9112 0.0000 -0.4119
vn -0.9677 0.0000 -0.2520
vn -0.9964 0.0000 -0.0848
vn -0.9964 0.0000 0.0848
vn -0.9677 0.0000 0.2520
vn -0.9112 0.0000 0.4119
vn -0.8285 0.0000 0.5600
vn -0.7220 0.0000 0.6919
vn -0.5946 0.0000 0.8040
vn -0.4502 0.0000 0.8929
vn -0.2928 0.0000 0.9562
vn -0.1270 0.0000 0.9919
vn 0.0424 0.0000 0.9991
vn 0.2107 0.0000 0.9776
vn 0.3729 0.0000 0.9279
vn 0.5243 0.0000 0.8515
vn 0.6607 0.0000 0.7507
vn 0.7780 0.0000 0.6282
vn 0.8730 0.0000 0.4877
vn 0.9429 0.0000 0.3331
vn 0.9856 0.0000 0.1690
vn -0.9991 0.0000 0.0424
vn -0.9856 0.0000 0.1690
vn -0.9429 0.0000 0.3331
vn -0.8730 0.0000 0.4877
vn -0.7780 0.0000 0.6282
vn -0.6607 0.0000 0.7507
vn -0.5243 0.0000 0.8515
vn -0.3729 0.0000 0.9279
vn -0.2107 0.0000 0.9776
vn -0.0424 0.0000 0.9991
vn 0.1270 0.0000 0.9919
vn 0.2928 0.0000 0.9562
vn 0.4502 0.0000 0.8929
vn 0.5946 0.0000 0.8040
vn 0.7220 0.0000 0.6919
vn 0.8285 0.0000 0.5600
vn 0.9112 0.0000 0.4119
vn 0.9677 0.0000 0.2520
vn 0.9964 0.0000 0.0848
vn 0.9964 0.0000 -0.0848
vn 0.9677 0.0000 -0.2520
vn 0.9112 0.0000 -0.4119
vn 0.8285 0.0000 -0.5600
vn 0.7220 0.0000 -0.6919
vn 0.5946 0.0000 -0.8040
vn 0.4502 0.0000 -0.8929
vn 0.2928 0.0000 -0.9562
vn 0.1270 0.0000 -0.9919
vn -0.0424 0.0000 -0.9991
vn -0.2107 0.0000 -0.9776
vn -0.3729 0.0000 -0.9279
vn -0.5243 0.0000 -0.8515
vn -0.6607 0.0000 -0.7507
vn -0.7780 0.0000 -0.6282
vn -0.8730 0.0000 -0.4877
vn -0.9429 0.0000 -0.3331
vn -0.9856 0.0000 -0.1690
vn -0.9991 0.0000 -0.0424
vn -1.0000 0.0005 0.0000
vn 0.0000 1.0000 -0.0001
usemtl None
s off
f 1//1 2//1 3//1
f 3//1 2//1 4//1
f 3//1 4//1 5//1
f 5//1 4//1 6//1
f 5//1 6//1 7//1
f 7//1 6//1 8//1
f 7//1 8//1 9//1
f 9//1 8//1 10//1
f 9//1 10//1 11//1
f 11//1 10//1 12//1
f 11//2 12//2 13//2
f 13//1 12//1 14//1
f 13//1 14//1 15//1
f 15//1 14//1 16//1
f 15//1 16//1 17//1
f 17//1 16//1 18//1
f 17//1 18//1 19//1
f 19//1 18//1 20//1
f 19//1 20//1 21//1
f 21//1 20//1 22//1
f 21//1 22//1 23//1
f 23//1 22//1 24//1
f 23//1 24//1 25//1
f 25//1 24//1 26//1
f 25//1 26//1 27//1
f 27//1 26//1 28//1
f 27//1 28//1 29//1
f 29//1 28//1 30//1
f 29//1 30//1 31//1
f 31//1 30//1 32//1
f 31//1 32//1 33//1
f 33//1 32//1 34//1
f 33//1 34//1 35//1
f 35//1 34//1 36//1
f 35//1 36//1 37//1
f 37//1 36//1 38//1
f 37//1 38//1 39//1
f 39//1 38//1 40//1
f 39//1 40//1 41//1
f 41//1 40//1 42//1
f 41//1 42//1 43//1
f 43//1 42//1 44//1
f 43//1 44//1 45//1
f 45//1 44//1 46//1
f 45//1 46//1 47//1
f 47//1 46//1 48//1
f 47//1 48//1 49//1
f 49//1 48//1 50//1
f 49//1 50//1 51//1
f 51//1 50//1 52//1
f 51//2 52//2 53//2
f 53//1 52//1 54//1
f 53//1 54//1 55//1
f 55//1 54//1 56//1
f 55//1 56//1 57//1
f 57//1 56//1 58//1
f 57//1 58//1 59//1
f 59//1 58//1 60//1
f 59//1 60//1 61//1
f 61//1 60//1 62//1
f 61//1 62//1 63//1
f 63//1 62//1 64//1
f 63//1 64//1 65//1
f 65//1 64//1 66//1
f 65//1 66//1 67//1
f 67//1 66//1 68//1
f 67//1 68//1 69//1
f 69//1 68//1 70//1
f 69//1 70//1 71//1
f 71//1 70//1 72//1
f 71//1 72//1 73//1
f 73//1 72//1 74//1
f 73//1 74//1 75//1
f 75//1 74//1 76//1
f 75//1 76//1 1//1
f 1//1 76//1 2//1
f 77//3 78//3 79//3
f 79//3 78//3 80//3
f 81//3 82//3 83//3
f 83//3 82//3 84//3
f 78//3 85//3 80//3
f 80//3 85//3 86//3
f 80//3 86//3 87//3
f 87//3 86//3 88//3
f 87//3 88//3 89//3
f 89//3 88//3 90//3
f 89//3 90//3 91//3
f 91//3 90//3 92//3
f 91//3 92//3 93//3
f 93//3 92//3 94//3
f 93//3 94//3 95//3
f 95//3 94//3 96//3
f 95//3 96//3 97//3
f 97//3 96//3 98//3
f 97//3 98//3 99//3
f 99//3 98//3 100//3
f 99//3 100//3 101//3
f 101//3 100//3 102//3
f 101//3 102//3 103//3
f 103//3 102//3 104//3
f 103//3 104//3 105//3
f 105//3 104//3 106//3
f 105//3 106//3 107//3
f 107//3 106//3 108//3
f 107//3 108//3 109//3
f 109//3 108//3 110//3
f 109//3 110//3 111//3
f 111//3 110//3 112//3
f 111//3 112//3 113//3
f 113//3 112//3 114//3
f 113//3 114//3 115//3
f 115//3 114//3 116//3
f 115//3 116//3 117//3
f 117//3 116//3 118//3
f 117//3 118//3 119//3
f 119//3 118//3 120//3
f 119//3 120//3 121//3
f 121//3 120//3 122//3
f 121//3 122//3 123//3
f 123//3 122//3 84//3
f 123//3 84//3 124//3
f 124//3 84//3 82//3
f 79//3 125//3 77//3
f 77//3 125//3 126//3
f 77//3 126//3 127//3
f 127//3 126//3 128//3
f 127//3 128//3 129//3
f 129//3 128//3 130//3
f 129//3 130//3 131//3
f 131//3 130//3 132//3
f 131//3 132//3 133//3
f 133//3 132//3 134//3
f 133//3 134//3 135//3
f 135//3 134//3 136//3
f 135//3 136//3 137//3
f 137//3 136//3 138//3
f 137//3 138//3 139//3
f 139//3 138//3 140//3
f 81//3 83//3 141//3
f 141//3 83//3 142//3
f 141//3 142//3 143//3
f 143//3 142//3 144//3
f 143//3 144//3 145//3
f 144//3 146//3 145//3
f 145//3 146//3 147//3
f 145//3 147//3 148//3
f 148//3 147//3 149//3
f 148//3 149//3 150//3
f 150//3 149//3 140//3
f 150//3 140//3 151//3
f 151//3 140//3 138//3
f 54//4 52//4 124//4
f 124//5 52//5 123//5
f 124//4 82//4 54//4
f 54//6 82//6 81//6
f 54//6 81//6 56//6
f 56//7 81//7 141//7
f 56//7 141//7 58//7
f 58//8 141//8 143//8
f 58//8 143//8 60//8
f 60//9 143//9 145//9
f 60//9 145//9 62//9
f 62//10 145//10 148//10
f 62//10 148//10 64//10
f 64//11 148//11 150//11
f 64//11 150//11 66//11
f 66//12 150//12 151//12
f 66//12 151//12 68//12
f 68//13 151//13 138//13
f 68//13 138//13 70//13
f 70//14 138//14 136//14
f 70//14 136//14 72//14
f 72//15 136//15 134//15
f 72//15 134//15 74//15
f 74//16 134//16 132//16
f 74//16 132//16 76//16
f 76//17 132//17 130//17
f 76//17 130//17 2//17
f 2//18 130//18 128//18
f 2//18 128//18 4//18
f 4//19 128//19 126//19
f 4//19 126//19 6//19
f 6//20 126//20 125//20
f 6//20 125//20 8//20
f 8//21 125//21 79//21
f 8//21 79//21 10//21
f 10//22 79//22 80//22
f 10//22 80//22 12//22
f 12//23 80//23 87//23
f 12//23 87//23 14//23
f 14//24 87//24 89//24
f 14//24 89//24 16//24
f 16//25 89//25 91//25
f 16//25 91//25 18//25
f 18//26 91//26 93//26
f 18//26 93//26 20//26
f 20//27 93//27 95//27
f 20//27 95//27 22//27
f 22//28 95//28 97//28
f 22//28 97//28 24//28
f 24//29 97//29 99//29
f 24//29 99//29 26//29
f 26//30 99//30 101//30
f 26//30 101//30 28//30
f 28//31 101//31 103//31
f 28//31 103//31 30//31
f 30//32 103//32 105//32
f 30//32 105//32 32//32
f 32//33 105//33 107//33
f 32//33 107//33 34//33
f 34//34 107//34 109//34
f 34//34 109//34 36//34
f 36//35 109//35 111//35
f 36//35 111//35 38//35
f 38//36 111//36 113//36
f 38//36 113//36 40//36
f 40//37 113//37 115//37
f 40//37 115//37 42//37
f 42//38 115//38 117//38
f 42//38 117//38 44//38
f 44//39 117//39 119//39
f 44//39 119//39 46//39
f 46//40 119//40 121//40
f 46//40 121//40 48//40
f 48//41 121//41 123//41
f 48//41 123//41 50//41
f 50//5 123//5 52//5
f 152//42 153//42 88//42
f 88//43 153//43 154//43
f 88//43 154//43 90//43
f 90//44 154//44 155//44
f 90//44 155//44 92//44
f 92//45 155//45 156//45
f 92//45 156//45 94//45
f 94//46 156//46 157//46
f 94//46 157//46 96//46
f 96//47 157//47 158//47
f 96//47 158//47 98//47
f 98//48 158//48 159//48
f 98//48 159//48 100//48
f 100//49 159//49 160//49
f 100//49 160//49 102//49
f 102//50 160//50 161//50
f 102//50 161//50 104//50
f 104//51 161//51 162//51
f 104//51 162//51 106//51
f 106//52 162//52 163//52
f 106//52 163//52 108//52
f 108//53 163//53 164//53
f 108//53 164//53 110//53
f 110//54 164//54 165//54
f 110//54 165//54 112//54
f 112//55 165//55 166//55
f 112//55 166//55 114//55
f 114//56 166//56 167//56
f 114//56 167//56 116//56
f 116//57 167//57 168//57
f 116//57 168//57 118//57
f 118//58 168//58 169//58
f 118//58 169//58 120//58
f 120//59 169//59 170//59
f 120//59 170//59 122//59
f 122//60 170//60 171//60
f 122//60 171//60 84//60
f 84//61 171//61 172//61
f 84//61 172//61 83//61
f 83//62 172//62 173//62
f 83//62 173//62 142//62
f 142//63 173//63 174//63
f 142//63 174//63 144//63
f 144//64 174//64 175//64
f 144//64 175//64 146//64
f 146//65 175//65 176//65
f 146//65 176//65 147//65
f 147//66 176//66 177//66
f 147//66 177//66 149//66
f 149//67 177//67 178//67
f 149//67 178//67 140//67
f 140//68 178//68 179//68
f 140//68 179//68 139//68
f 139//69 179//69 180//69
f 139//69 180//69 137//69
f 137//70 180//70 181//70
f 137//70 181//70 135//70
f 135//71 181//71 182//71
f 135//71 182//71 133//71
f 133//72 182//72 183//72
f 133//72 183//72 131//72
f 131//73 183//73 184//73
f 131//73 184//73 129//73
f 129//74 184//74 185//74
f 129//74 185//74 127//74
f 127//75 185//75 186//75
f 127//75 186//75 77//75
f 77//76 186//76 187//76
f 77//76 187//76 78//76
f 78//77 187//77 188//77
f 78//77 188//77 85//77
f 85//78 188//78 189//78
f 85//78 189//78 86//78
f 86//79 189//79 152//79
f 86//80 152//80 88//80
f 170//3 153//3 171//3
f 171//3 153//3 152//3
f 171//3 152//3 189//3
f 170//3 169//3 153//3
f 153//3 169//3 168//3
f 153//3 168//3 167//3
f 156//3 167//3 166//3
f 156//3 155//3 167//3
f 167//3 155//3 154//3
f 167//3 154//3 153//3
f 189//3 188//3 171//3
f 171//3 188//3 187//3
f 171//3 187//3 186//3
f 186//3 185//3 171//3
f 171//3 185//3 184//3
f 171//3 184//3 183//3
f 179//3 178//3 177//3
f 175//3 174//3 181//3
f 181//3 174//3 173//3
f 166//3 165//3 156//3
f 156//3 165//3 164//3
f 156//3 164//3 163//3
f 181//3 180//3 175//3
f 175//3 180//3 179//3
f 175//3 179//3 176//3
f 176//3 179//3 177//3
f 183//3 182//3 171//3
f 171//3 182//3 181//3
f 171//3 181//3 172//3
f 172//3 181//3 173//3
f 163//3 162//3 156//3
f 156//3 162//3 161//3
f 156//3 161//3 160//3
f 160//3 159//3 156//3
f 156//3 159//3 158//3
f 156//3 158//3 157//3
f 190//4 191//4 51//4
f 51//5 191//5 49//5
f 51//4 53//4 190//4
f 190//6 53//6 55//6
f 190//6 55//6 192//6
f 192//7 55//7 57//7
f 192//7 57//7 193//7
f 193//8 57//8 59//8
f 193//8 59//8 194//8
f 194//9 59//9 61//9
f 194//9 61//9 195//9
f 195//10 61//10 63//10
f 195//10 63//10 196//10
f 196//11 63//11 65//11
f 196//11 65//11 197//11
f 197//12 65//12 67//12
f 197//12 67//12 198//12
f 198//13 67//13 69//13
f 198//13 69//13 199//13
f 199//14 69//14 71//14
f 199//14 71//14 200//14
f 200//15 71//15 73//15
f 200//15 73//15 201//15
f 201//16 73//16 75//16
f 201//16 75//16 202//16
f 202//17 75//17 1//17
f 202//17 1//17 203//17
f 203//18 1//18 3//18
f 203//18 3//18 204//18
f 204//19 3//19 5//19
f 204//19 5//19 205//19
f 205//20 5//20 7//20
f 205//20 7//20 206//20
f 206//21 7//21 9//21
f 206//21 9//21 207//21
f 207//22 9//22 11//22
f 207//22 11//22 208//22
f 208//23 11//23 13//23
f 208//23 13//23 209//23
f 209//24 13//24 15//24
f 209//24 15//24 210//24
f 210//25 15//25 17//25
f 210//25 17//25 211//25
f 211//26 17//26 19//26
f 211//26 19//26 212//26
f 212//27 19//27 21//27
f 212//27 21//27 213//27
f 213//28 21//28 23//28
f 213//28 23//28 214//28
f 214//29 23//29 25//29
f 214//29 25//29 215//29
f 215//30 25//30 27//30
f 215//30 27//30 216//30
f 216//31 27//31 29//31
f 216//31 29//31 217//31
f 217//32 29//32 31//32
f 217//32 31//32 218//32
f 218//33 31//33 33//33
f 218//33 33//33 219//33
f 219//34 33//34 35//34
f 219//34 35//34 220//34
f 220//35 35//35 37//35
f 220//35 37//35 221//35
f 221//36 37//36 39//36
f 221//36 39//36 222//36
f 222//37 39//37 41//37
f 222//37 41//37 223//37
f 223//38 41//38 43//38
f 223//38 43//38 224//38
f 224//39 43//39 45//39
f 224//39 45//39 225//39
f 225//40 45//40 47//40
f 225//40 47//40 226//40
f 226//41 47//41 49//41
f 226//41 49//41 227//41
f 227//5 49//5 191//5
f 210//1 227//1 209//1
f 209//1 227//1 191//1
f 209//1 191//1 190//1
f 210//1 211//1 227//1
f 227//1 211//1 212//1
f 227//1 212//1 213//1
f 224//1 213//1 214//1
f 224//1 225//1 213//1
f 213//1 225//1 226//1
f 213//1 226//1 227//1
f 190//1 192//1 209//1
f 209//1 192//1 193//1
f 209//1 193//1 194//1
f 194//1 195//1 209//1
f 209//1 195//1 196//1
f 209//1 196//1 197//1
f 201//1 202//1 203//1
f 205//1 206//1 199//1
f 199//1 206//1 207//1
f 214//1 215//1 224//1
f 224//1 215//1 216//1
f 224//1 216//1 217//1
f 199//1 200//1 205//1
f 205//1 200//1 201//1
f 205//81 201//81 204//81
f 204//2 201//2 203//2
f 197//1 198//1 209//1
f 209//1 198//1 199//1
f 209//1 199//1 208//1
f 208//1 199//1 207//1
f 217//1 218//1 224//1
f 224//1 218//1 219//1
f 224//1 219//1 220//1
f 220//1 221//1 224//1
f 224//81 221//81 222//81
f 224//1 222//1 223//1
