# Blender v2.79 (sub 0) OBJ File: ''
# www.blender.org
mtllib 359.mtl
o 359
v 34.889160 88.622429 -28.000000
v 32.766079 88.258385 -28.000000
v 11.586988 102.468178 -28.000000
v 30.735052 87.540787 -28.000000
v 28.854517 86.490250 -28.000000
v 46.780617 69.309471 -28.000000
v 47.750389 71.232903 -28.000000
v 60.576008 56.468182 -28.000000
v 48.109516 79.687027 -28.000000
v 47.306355 81.685768 -28.000000
v 60.576008 102.468178 -28.000000
v 46.176964 83.520027 -28.000000
v 60.380234 55.232113 -28.000000
v 60.140038 54.652218 -28.000000
v 45.499733 67.577606 -28.000000
v 59.812077 54.117039 -28.000000
v 44.753819 85.137024 -28.000000
v 43.077877 86.490250 -28.000000
v 41.197346 87.540787 -28.000000
v 27.178574 85.137024 -28.000000
v 25.755436 83.520027 -28.000000
v 24.626040 81.685768 -28.000000
v 23.822882 79.687027 -28.000000
v 23.369062 77.581299 -28.000000
v 11.586988 56.468182 -28.000000
v 23.277641 75.429176 -28.000000
v 23.551247 73.292557 -28.000000
v 39.166321 88.258385 -28.000000
v 37.043232 88.622429 -28.000000
v 35.966198 88.668182 -28.000000
v 27.987804 66.087128 -28.000000
v 29.772472 64.880898 -28.000000
v 15.586989 52.468182 -28.000000
v 31.735323 63.993633 -28.000000
v 59.404434 53.639751 -28.000000
v 58.927147 53.232113 -28.000000
v 58.391968 52.904156 -28.000000
v 40.197075 63.993633 -28.000000
v 42.159924 64.880898 -28.000000
v 56.576008 52.468182 -28.000000
v 43.944592 66.087128 -28.000000
v 57.201744 52.517426 -28.000000
v 57.812077 52.663952 -28.000000
v 60.526760 55.842442 -28.000000
v 48.381149 73.292557 -28.000000
v 48.654755 75.429176 -28.000000
v 48.563332 77.581299 -28.000000
v 33.819889 63.450859 -28.000000
v 35.966198 63.268177 -28.000000
v 38.112507 63.450859 -28.000000
v 24.182007 71.232903 -28.000000
v 25.151777 69.309471 -28.000000
v 11.636235 55.842442 -28.000000
v 26.432659 67.577606 -28.000000
v 11.782763 55.232113 -28.000000
v 14.961252 52.517426 -28.000000
v 14.350921 52.663952 -28.000000
v 12.758562 53.639751 -28.000000
v 12.350921 54.117039 -28.000000
v 12.022963 54.652218 -28.000000
v 13.771028 52.904156 -28.000000
v 13.235848 53.232113 -28.000000
v 26.432659 67.577606 0.000000
v 25.151777 69.309471 0.000000
v 0.000000 7.000003 0.000000
v 35.966198 63.268177 0.000000
v 33.819889 63.450859 0.000000
v 6.999999 0.000000 0.000000
v 31.735323 63.993633 0.000000
v 5.904958 0.086185 0.000000
v 24.182007 71.232903 0.000000
v 23.551247 73.292557 0.000000
v 0.000000 100.468178 0.000000
v 23.277641 75.429176 0.000000
v 23.369062 77.581299 0.000000
v 29.772472 64.880898 0.000000
v 27.987804 66.087128 0.000000
v 25.755436 83.520027 0.000000
v 1.381963 102.370293 0.000000
v 1.092017 102.250191 0.000000
v 0.086181 5.904962 0.000000
v 0.342604 4.836884 0.000000
v 0.762954 3.822070 0.000000
v 27.178574 85.137024 0.000000
v 2.000000 102.468178 0.000000
v 1.687128 102.443558 0.000000
v 71.346611 101.882401 0.000000
v 71.107971 102.086220 0.000000
v 46.176964 83.520027 0.000000
v 70.840370 102.250191 0.000000
v 45.499733 67.577606 0.000000
v 71.932396 7.000003 0.000000
v 46.780617 69.309471 0.000000
v 47.750389 71.232903 0.000000
v 43.944592 66.087128 0.000000
v 42.159924 64.880898 0.000000
v 71.846214 5.904962 0.000000
v 1.336880 2.885506 0.000000
v 2.050251 2.050255 0.000000
v 2.885502 1.336884 0.000000
v 0.824429 102.086220 0.000000
v 0.585783 101.882401 0.000000
v 0.381965 101.643745 0.000000
v 23.822882 79.687027 0.000000
v 24.626040 81.685768 0.000000
v 0.024620 100.781052 0.000000
v 28.854517 86.490250 0.000000
v 30.735052 87.540787 0.000000
v 32.766079 88.258385 0.000000
v 69.932404 102.468178 0.000000
v 39.166321 88.258385 0.000000
v 41.197346 87.540787 0.000000
v 71.932396 100.468178 0.000000
v 47.306355 81.685768 0.000000
v 48.109516 79.687027 0.000000
v 3.822066 0.762954 0.000000
v 4.836880 0.342607 0.000000
v 0.217985 101.376160 0.000000
v 0.097886 101.086212 0.000000
v 43.077877 86.490250 0.000000
v 44.753819 85.137024 0.000000
v 70.245270 102.443558 0.000000
v 70.550430 102.370293 0.000000
v 71.834503 101.086212 0.000000
v 71.714409 101.376160 0.000000
v 71.550430 101.643745 0.000000
v 71.907776 100.781052 0.000000
v 48.563332 77.581299 0.000000
v 48.654755 75.429176 0.000000
v 48.381149 73.292557 0.000000
v 38.112507 63.450859 0.000000
v 64.932396 0.000000 0.000000
v 40.197075 63.993633 0.000000
v 66.027443 0.086185 0.000000
v 67.095520 0.342607 0.000000
v 68.110329 0.762954 0.000000
v 34.889160 88.622429 0.000000
v 35.966198 88.668182 0.000000
v 37.043232 88.622429 0.000000
v 69.046890 1.336884 0.000000
v 69.882141 2.050255 0.000000
v 70.595520 2.885506 0.000000
v 71.169441 3.822070 0.000000
v 71.589798 4.836884 0.000000
v 69.932404 102.468178 -40.000000
v 70.245270 102.443558 -40.000000
v 70.550430 102.370293 -40.000000
v 70.840370 102.250191 -40.000000
v 71.107971 102.086220 -40.000000
v 71.346611 101.882401 -40.000000
v 71.550430 101.643745 -40.000000
v 71.714409 101.376160 -40.000000
v 71.834503 101.086212 -40.000000
v 71.907776 100.781052 -40.000000
v 71.932396 100.468178 -40.000000
v 71.932396 7.000003 -40.000000
v 71.932396 7.000003 -0.000000
v 71.932396 100.468178 -0.000000
v 71.846214 5.904962 -40.000000
v 71.589798 4.836884 -40.000000
v 71.169441 3.822070 -40.000000
v 70.595520 2.885506 -40.000000
v 69.882141 2.050255 -40.000000
v 69.046890 1.336884 -40.000000
v 68.110329 0.762954 -40.000000
v 67.095520 0.342607 -40.000000
v 66.027443 0.086185 -40.000000
v 64.932396 0.000000 -40.000000
v 6.999999 0.000000 -40.000000
v 6.999999 0.000000 -0.000000
v 64.932396 0.000000 -0.000000
v 5.904958 0.086185 -40.000000
v 4.836880 0.342607 -40.000000
v 3.822066 0.762954 -40.000000
v 2.885502 1.336884 -40.000000
v 2.050251 2.050255 -40.000000
v 1.336880 2.885506 -40.000000
v 0.762954 3.822070 -40.000000
v 0.342604 4.836884 -40.000000
v 0.086181 5.904962 -40.000000
v 0.000000 7.000003 -40.000000
v 0.000000 100.468178 -40.000000
v 0.000000 100.468178 -0.000000
v 0.000000 7.000003 -0.000000
v 0.024620 100.781052 -40.000000
v 0.097886 101.086212 -40.000000
v 0.217985 101.376160 -40.000000
v 0.381965 101.643745 -40.000000
v 0.585783 101.882401 -40.000000
v 0.824429 102.086220 -40.000000
v 1.092017 102.250191 -40.000000
v 1.381963 102.370293 -40.000000
v 1.687128 102.443558 -40.000000
v 2.000000 102.468178 -40.000000
v 11.586988 102.468178 -40.000000
v 60.576008 102.468178 -40.000000
v 11.586988 56.468182 -40.000000
v 11.636235 55.842442 -40.000000
v 11.782763 55.232113 -40.000000
v 12.022963 54.652218 -40.000000
v 12.350921 54.117039 -40.000000
v 12.758562 53.639751 -40.000000
v 13.235848 53.232113 -40.000000
v 13.771028 52.904156 -40.000000
v 14.350921 52.663952 -40.000000
v 14.961252 52.517426 -40.000000
v 15.586989 52.468182 -40.000000
v 56.576008 52.468182 -40.000000
v 57.201744 52.517426 -40.000000
v 57.812077 52.663952 -40.000000
v 58.391968 52.904156 -40.000000
v 58.927147 53.232113 -40.000000
v 59.404434 53.639751 -40.000000
v 59.812077 54.117039 -40.000000
v 60.140038 54.652218 -40.000000
v 60.380234 55.232113 -40.000000
v 60.526760 55.842442 -40.000000
v 60.576008 56.468182 -40.000000
vn 0.0000 0.0000 -1.0000
vn 0.0000 0.0000 1.0000
vn 0.0784 0.9969 0.0000
vn 0.2335 0.9724 0.0000
vn 0.3827 0.9239 0.0000
vn 0.5225 0.8527 0.0000
vn 0.6494 0.7604 0.0000
vn 0.6495 0.7604 0.0000
vn 0.7604 0.6494 0.0000
vn 0.8526 0.5225 0.0000
vn 0.9239 0.3827 0.0000
vn 0.9239 0.3826 0.0000
vn 0.9724 0.2335 0.0000
vn 0.9969 0.0785 0.0000
vn 0.9969 0.0784 0.0000
vn 1.0000 0.0000 0.0000
vn 0.9969 -0.0785 0.0000
vn 0.9724 -0.2334 0.0000
vn 0.9239 -0.3827 0.0000
vn 0.8526 -0.5225 0.0000
vn 0.7604 -0.6495 0.0000
vn 0.6494 -0.7604 0.0000
vn 0.5225 -0.8526 0.0000
vn 0.3827 -0.9239 0.0000
vn 0.2334 -0.9724 0.0000
vn 0.0785 -0.9969 0.0000
vn 0.0000 -1.0000 0.0000
vn -0.0785 -0.9969 0.0000
vn -0.2334 -0.9724 0.0000
vn -0.3827 -0.9239 0.0000
vn -0.5225 -0.8526 0.0000
vn -0.6494 -0.7604 0.0000
vn -0.7604 -0.6494 0.0000
vn -0.8526 -0.5225 0.0000
vn -0.9239 -0.3827 0.0000
vn -0.9724 -0.2334 0.0000
vn -0.9969 -0.0785 0.0000
vn -1.0000 0.0000 0.0000
vn -0.9969 0.0784 0.0000
vn -0.9724 0.2335 0.0000
vn -0.9239 0.3827 0.0000
vn -0.8526 0.5225 0.0000
vn -0.7604 0.6494 0.0000
vn -0.6494 0.7604 0.0000
vn -0.5225 0.8526 0.0000
vn -0.5225 0.8527 0.0000
vn -0.3827 0.9239 0.0000
vn -0.2335 0.9724 0.0000
vn -0.0784 0.9969 0.0000
vn 0.0000 1.0000 0.0000
vn -0.0848 0.9964 0.0000
vn -0.2520 0.9677 0.0000
vn -0.4119 0.9112 0.0000
vn -0.5600 0.8285 0.0000
vn -0.6919 0.7220 0.0000
vn -0.8040 0.5946 0.0000
vn -0.8929 0.4502 0.0000
vn -0.9562 0.2928 0.0000
vn -0.9919 0.1270 0.0000
vn -0.9991 -0.0424 0.0000
vn -0.9776 -0.2107 0.0000
vn -0.9279 -0.3729 0.0000
vn -0.8515 -0.5243 0.0000
vn -0.7507 -0.6607 0.0000
vn -0.6282 -0.7780 0.0000
vn -0.4877 -0.8730 0.0000
vn -0.3331 -0.9429 0.0000
vn -0.1690 -0.9856 0.0000
vn -0.0424 -0.9991 0.0000
vn 0.0424 -0.9991 0.0000
vn 0.1690 -0.9856 0.0000
vn 0.3331 -0.9429 0.0000
vn 0.4877 -0.8730 0.0000
vn 0.6282 -0.7780 0.0000
vn 0.7507 -0.6607 0.0000
vn 0.8515 -0.5243 0.0000
vn 0.9279 -0.3729 0.0000
vn 0.9776 -0.2107 0.0000
vn 0.9991 -0.0424 0.0000
vn 0.9919 0.1270 0.0000
vn 0.9562 0.2928 0.0000
vn 0.8929 0.4502 0.0000
vn 0.8040 0.5946 0.0000
vn 0.6919 0.7220 0.0000
vn 0.5600 0.8285 0.0000
vn 0.4119 0.9112 0.0000
vn 0.2520 0.9677 0.0000
vn 0.0848 0.9964 0.0000
vn 0.9724 0.2334 0.0000
vn 0.5225 0.8526 0.0000
vn 0.2334 0.9724 0.0000
vn 0.0785 0.9969 0.0000
vn -0.0785 0.9969 0.0000
vn -0.2334 0.9724 0.0000
vn -0.9724 0.2334 0.0000
vn -0.9969 0.0785 0.0000
usemtl None
s off
f 1//1 2//1 3//1
f 3//1 2//1 4//1
f 3//1 4//1 5//1
f 6//1 7//1 8//1
f 9//1 10//1 11//1
f 11//1 10//1 12//1
f 13//1 14//1 15//1
f 15//1 14//1 16//1
f 12//1 17//1 11//1
f 11//1 17//1 18//1
f 11//1 18//1 19//1
f 5//1 20//1 3//1
f 3//1 20//1 21//1
f 3//1 21//1 22//1
f 22//1 23//1 3//1
f 3//1 23//1 24//1
f 3//1 24//1 25//1
f 25//1 24//1 26//1
f 25//1 26//1 27//1
f 19//1 28//1 11//1
f 11//1 28//1 29//1
f 11//1 29//1 3//1
f 3//1 29//1 30//1
f 3//1 30//1 1//1
f 31//1 32//1 33//1
f 33//1 32//1 34//1
f 16//1 35//1 15//1
f 15//1 35//1 36//1
f 15//1 36//1 37//1
f 38//1 39//1 40//1
f 40//1 39//1 41//1
f 40//1 41//1 42//1
f 42//1 41//1 15//1
f 42//1 15//1 43//1
f 43//1 15//1 37//1
f 6//1 8//1 15//1
f 15//1 8//1 44//1
f 15//1 44//1 13//1
f 7//1 45//1 8//1
f 8//1 45//1 46//1
f 8//1 46//1 11//1
f 11//1 46//1 47//1
f 11//1 47//1 9//1
f 34//1 48//1 33//1
f 33//1 48//1 49//1
f 33//1 49//1 40//1
f 40//1 49//1 50//1
f 40//1 50//1 38//1
f 27//1 51//1 25//1
f 25//1 51//1 52//1
f 25//1 52//1 53//1
f 53//1 52//1 54//1
f 53//1 54//1 55//1
f 31//1 33//1 54//1
f 54//1 33//1 56//1
f 54//1 56//1 57//1
f 58//1 59//1 54//1
f 54//1 59//1 60//1
f 54//1 60//1 55//1
f 57//1 61//1 54//1
f 54//1 61//1 62//1
f 54//1 62//1 58//1
f 63//2 64//2 65//2
f 66//2 67//2 68//2
f 68//2 67//2 69//2
f 68//2 69//2 70//2
f 64//2 71//2 65//2
f 65//2 71//2 72//2
f 65//2 72//2 73//2
f 73//2 72//2 74//2
f 73//2 74//2 75//2
f 69//2 76//2 65//2
f 65//2 76//2 77//2
f 65//2 77//2 63//2
f 78//2 79//2 80//2
f 65//2 81//2 69//2
f 69//2 81//2 82//2
f 69//2 82//2 83//2
f 84//2 85//2 78//2
f 78//2 85//2 86//2
f 78//2 86//2 79//2
f 87//2 88//2 89//2
f 89//2 88//2 90//2
f 91//2 92//2 93//2
f 93//2 92//2 94//2
f 91//2 95//2 92//2
f 92//2 95//2 96//2
f 92//2 96//2 97//2
f 83//2 98//2 69//2
f 69//2 98//2 99//2
f 69//2 99//2 100//2
f 80//2 101//2 78//2
f 78//2 101//2 102//2
f 78//2 102//2 103//2
f 75//2 104//2 73//2
f 73//2 104//2 105//2
f 73//2 105//2 106//2
f 106//2 105//2 78//2
f 84//2 107//2 85//2
f 85//2 107//2 108//2
f 85//2 108//2 109//2
f 110//2 111//2 112//2
f 113//2 114//2 115//2
f 100//2 116//2 69//2
f 69//2 116//2 117//2
f 69//2 117//2 70//2
f 103//2 118//2 78//2
f 78//2 118//2 119//2
f 78//2 119//2 106//2
f 112//2 120//2 110//2
f 110//2 120//2 121//2
f 110//2 121//2 122//2
f 122//2 121//2 89//2
f 122//2 89//2 123//2
f 123//2 89//2 90//2
f 124//2 125//2 89//2
f 89//2 125//2 126//2
f 89//2 126//2 87//2
f 114//2 113//2 89//2
f 89//2 113//2 127//2
f 89//2 127//2 124//2
f 115//2 128//2 113//2
f 113//2 128//2 129//2
f 113//2 129//2 92//2
f 92//2 129//2 130//2
f 92//2 130//2 94//2
f 66//2 68//2 131//2
f 131//2 68//2 132//2
f 131//2 132//2 133//2
f 133//2 132//2 134//2
f 133//2 134//2 96//2
f 96//2 134//2 135//2
f 96//2 135//2 136//2
f 109//2 137//2 85//2
f 85//2 137//2 138//2
f 85//2 138//2 110//2
f 110//2 138//2 139//2
f 110//2 139//2 111//2
f 136//2 140//2 96//2
f 96//2 140//2 141//2
f 96//2 141//2 142//2
f 142//2 143//2 96//2
f 96//2 143//2 144//2
f 96//2 144//2 97//2
f 145//3 110//3 122//3
f 145//3 122//3 146//3
f 146//4 122//4 123//4
f 146//4 123//4 147//4
f 147//5 123//5 90//5
f 147//5 90//5 148//5
f 148//6 90//6 88//6
f 148//6 88//6 149//6
f 149//7 88//7 87//7
f 149//8 87//8 150//8
f 150//9 87//9 126//9
f 150//9 126//9 151//9
f 151//10 126//10 125//10
f 151//10 125//10 152//10
f 152//11 125//11 124//11
f 152//12 124//12 153//12
f 153//13 124//13 127//13
f 153//13 127//13 154//13
f 154//14 127//14 113//14
f 154//15 113//15 155//15
f 156//16 155//16 157//16
f 157//16 155//16 158//16
f 156//17 92//17 97//17
f 156//17 97//17 159//17
f 159//18 97//18 144//18
f 159//18 144//18 160//18
f 160//19 144//19 143//19
f 160//19 143//19 161//19
f 161//20 143//20 142//20
f 161//20 142//20 162//20
f 162//21 142//21 141//21
f 162//21 141//21 163//21
f 163//22 141//22 140//22
f 163//22 140//22 164//22
f 164//23 140//23 136//23
f 164//23 136//23 165//23
f 165//24 136//24 135//24
f 165//24 135//24 166//24
f 166//25 135//25 134//25
f 166//25 134//25 167//25
f 167//26 134//26 132//26
f 167//26 132//26 168//26
f 169//27 168//27 170//27
f 170//27 168//27 171//27
f 169//28 68//28 70//28
f 169//28 70//28 172//28
f 172//29 70//29 117//29
f 172//29 117//29 173//29
f 173//30 117//30 116//30
f 173//30 116//30 174//30
f 174//31 116//31 100//31
f 174//31 100//31 175//31
f 175//32 100//32 99//32
f 175//32 99//32 176//32
f 176//33 99//33 98//33
f 176//33 98//33 177//33
f 177//34 98//34 83//34
f 177//34 83//34 178//34
f 178//35 83//35 82//35
f 178//35 82//35 179//35
f 179//36 82//36 81//36
f 179//36 81//36 180//36
f 180//37 81//37 65//37
f 180//37 65//37 181//37
f 182//38 181//38 183//38
f 183//38 181//38 184//38
f 182//39 73//39 106//39
f 182//39 106//39 185//39
f 185//40 106//40 119//40
f 185//40 119//40 186//40
f 186//41 119//41 118//41
f 186//41 118//41 187//41
f 187//42 118//42 103//42
f 187//42 103//42 188//42
f 188//43 103//43 102//43
f 188//43 102//43 189//43
f 189//44 102//44 101//44
f 189//44 101//44 190//44
f 190//45 101//45 80//45
f 190//46 80//46 191//46
f 191//47 80//47 79//47
f 191//47 79//47 192//47
f 192//48 79//48 86//48
f 192//48 86//48 193//48
f 193//49 86//49 85//49
f 193//49 85//49 194//49
f 195//50 194//50 3//50
f 3//50 194//50 85//50
f 3//50 85//50 11//50
f 11//50 85//50 110//50
f 11//50 110//50 196//50
f 196//50 110//50 145//50
f 49//51 66//51 50//51
f 50//51 66//51 131//51
f 50//52 131//52 38//52
f 38//52 131//52 133//52
f 38//53 133//53 39//53
f 39//53 133//53 96//53
f 39//54 96//54 41//54
f 41//54 96//54 95//54
f 41//55 95//55 15//55
f 15//55 95//55 91//55
f 15//56 91//56 6//56
f 6//56 91//56 93//56
f 6//57 93//57 7//57
f 7//57 93//57 94//57
f 7//58 94//58 45//58
f 45//58 94//58 130//58
f 45//59 130//59 46//59
f 46//59 130//59 129//59
f 46//60 129//60 47//60
f 47//60 129//60 128//60
f 47//61 128//61 9//61
f 9//61 128//61 115//61
f 9//62 115//62 10//62
f 10//62 115//62 114//62
f 10//63 114//63 12//63
f 12//63 114//63 89//63
f 12//64 89//64 17//64
f 17//64 89//64 121//64
f 17//65 121//65 18//65
f 18//65 121//65 120//65
f 18//66 120//66 19//66
f 19//66 120//66 112//66
f 19//67 112//67 28//67
f 28//67 112//67 111//67
f 28//68 111//68 29//68
f 29//68 111//68 139//68
f 29//69 139//69 30//69
f 30//69 139//69 138//69
f 30//70 138//70 1//70
f 1//70 138//70 137//70
f 1//71 137//71 2//71
f 2//71 137//71 109//71
f 2//72 109//72 4//72
f 4//72 109//72 108//72
f 4//73 108//73 5//73
f 5//73 108//73 107//73
f 5//74 107//74 20//74
f 20//74 107//74 84//74
f 20//75 84//75 21//75
f 21//75 84//75 78//75
f 21//76 78//76 22//76
f 22//76 78//76 105//76
f 22//77 105//77 23//77
f 23//77 105//77 104//77
f 23//78 104//78 24//78
f 24//78 104//78 75//78
f 24//79 75//79 26//79
f 26//79 75//79 74//79
f 26//80 74//80 27//80
f 27//80 74//80 72//80
f 27//81 72//81 51//81
f 51//81 72//81 71//81
f 51//82 71//82 52//82
f 52//82 71//82 64//82
f 52//83 64//83 54//83
f 54//83 64//83 63//83
f 54//84 63//84 31//84
f 31//84 63//84 77//84
f 31//85 77//85 32//85
f 32//85 77//85 76//85
f 32//86 76//86 34//86
f 34//86 76//86 69//86
f 34//87 69//87 48//87
f 48//87 69//87 67//87
f 48//88 67//88 49//88
f 49//88 67//88 66//88
f 197//16 195//16 25//16
f 25//16 195//16 3//16
f 197//14 25//14 198//14
f 198//14 25//14 53//14
f 198//89 53//89 199//89
f 199//89 53//89 55//89
f 199//11 55//11 200//11
f 200//11 55//11 60//11
f 200//10 60//10 201//10
f 201//10 60//10 59//10
f 201//9 59//9 202//9
f 202//9 59//9 58//9
f 202//7 58//7 203//7
f 203//7 58//7 62//7
f 203//90 62//90 204//90
f 204//90 62//90 61//90
f 204//5 61//5 205//5
f 205//5 61//5 57//5
f 205//91 57//91 206//91
f 206//91 57//91 56//91
f 206//92 56//92 207//92
f 207//92 56//92 33//92
f 208//50 207//50 40//50
f 40//50 207//50 33//50
f 208//93 40//93 209//93
f 209//93 40//93 42//93
f 209//94 42//94 210//94
f 210//94 42//94 43//94
f 210//47 43//47 211//47
f 211//47 43//47 37//47
f 211//45 37//45 212//45
f 212//45 37//45 36//45
f 212//44 36//44 213//44
f 213//44 36//44 35//44
f 213//43 35//43 214//43
f 214//43 35//43 16//43
f 214//42 16//42 215//42
f 215//42 16//42 14//42
f 215//41 14//41 216//41
f 216//41 14//41 13//41
f 216//40 13//40 217//40
f 217//95 13//95 44//95
f 217//96 44//96 218//96
f 218//96 44//96 8//96
f 196//38 218//38 11//38
f 11//38 218//38 8//38
f 215//1 216//1 156//1
f 218//1 196//1 145//1
f 197//1 198//1 181//1
f 198//1 199//1 181//1
f 181//1 199//1 200//1
f 181//1 200//1 201//1
f 212//1 213//1 156//1
f 156//1 213//1 214//1
f 156//1 214//1 215//1
f 193//1 194//1 186//1
f 201//1 202//1 181//1
f 181//1 202//1 203//1
f 181//1 203//1 204//1
f 216//1 217//1 156//1
f 156//1 217//1 218//1
f 156//1 218//1 155//1
f 155//1 218//1 145//1
f 155//1 145//1 154//1
f 194//1 195//1 197//1
f 169//1 180//1 181//1
f 186//1 194//1 185//1
f 209//1 167//1 208//1
f 208//1 167//1 168//1
f 208//1 168//1 207//1
f 207//1 168//1 169//1
f 207//1 169//1 206//1
f 206//1 169//1 181//1
f 206//1 181//1 205//1
f 205//1 181//1 204//1
f 209//1 210//1 156//1
f 156//1 210//1 211//1
f 156//1 211//1 212//1
f 148//1 145//1 147//1
f 147//1 145//1 146//1
f 148//1 149//1 145//1
f 145//1 149//1 150//1
f 145//1 150//1 151//1
f 151//1 152//1 145//1
f 145//1 152//1 153//1
f 145//1 153//1 154//1
f 197//1 181//1 194//1
f 194//1 181//1 182//1
f 194//1 182//1 185//1
f 169//1 172//1 180//1
f 180//1 172//1 173//1
f 180//1 173//1 174//1
f 176//1 177//1 178//1
f 156//1 159//1 209//1
f 209//1 159//1 160//1
f 209//1 160//1 161//1
f 174//1 175//1 180//1
f 180//1 175//1 176//1
f 180//1 176//1 179//1
f 179//1 176//1 178//1
f 193//1 186//1 192//1
f 192//1 186//1 187//1
f 192//1 187//1 188//1
f 161//1 162//1 209//1
f 209//1 162//1 163//1
f 209//1 163//1 164//1
f 164//1 165//1 209//1
f 209//1 165//1 166//1
f 209//1 166//1 167//1
f 188//1 189//1 192//1
f 192//1 189//1 190//1
f 192//1 190//1 191//1
