# Blender v2.79 (sub 0) OBJ File: ''
# www.blender.org
mtllib montagem 334-1.mtl
o Montagem_12348-CC93_-_334-1
v 243.638474 292.824493 -41.452831
v 239.317612 292.824493 -28.253065
v 245.257111 292.824493 -40.732170
v 241.487473 292.824493 -27.304781
v 246.960281 292.824493 -40.243793
v 242.135895 292.824493 -42.391750
v 235.326752 292.824493 -30.791512
v 237.256744 292.824493 -29.419430
v 239.593033 292.824493 -44.847370
v 230.518188 292.824493 -35.986664
v 240.778595 292.824493 -43.530655
v 231.939514 292.824493 -34.092625
v 233.548050 292.824493 -32.354767
v 237.825531 292.824493 -47.908764
v 227.517319 292.824493 -42.398098
v 238.602234 292.824493 -46.316269
v 228.295319 292.824493 -40.161530
v 229.299164 292.824493 -38.016804
v 238.186081 292.824493 -58.233582
v 229.882523 292.824493 -60.666500
v 237.522354 292.824493 -56.590786
v 228.769623 292.824493 -58.576302
v 237.093704 292.824493 -54.871601
v 227.877518 292.824493 -56.382740
v 236.908493 292.824493 -53.109493
v 243.743332 292.824493 -26.584631
v 246.061279 292.824493 -26.100246
v 248.714859 292.824493 -39.997204
v 248.416748 292.824493 -25.856764
v 249.600769 292.824493 -39.966267
v 249.600769 292.824493 -25.826267
v 250.486679 292.824493 -39.997204
v 227.215683 292.824493 -54.109085
v 226.791138 292.824493 -51.779430
v 236.970337 292.824493 -51.338757
v 226.608398 292.824493 -49.418472
v 237.278015 292.824493 -49.593857
v 226.669357 292.824493 -47.051231
v 226.973419 292.824493 -44.702808
v 258.422913 292.824493 -43.530655
v 268.683350 292.824493 -35.986664
v 259.608521 292.824493 -44.847370
v 269.902374 292.824493 -38.016804
v 260.599274 292.824493 -46.316269
v 255.563049 292.824493 -41.452831
v 263.874756 292.824493 -30.791512
v 257.065613 292.824493 -42.391750
v 265.653503 292.824493 -32.354767
v 267.262024 292.824493 -34.092625
v 250.784790 292.824493 -25.856764
v 253.140244 292.824493 -26.100246
v 252.241257 292.824493 -40.243793
v 255.458206 292.824493 -26.584631
v 253.944427 292.824493 -40.732170
v 244.435211 292.824493 -64.268295
v 240.390335 292.824493 -69.901558
v 242.870789 292.824493 -63.436478
v 238.272156 292.824493 -68.842827
v 241.437363 292.824493 -62.395031
v 236.274078 292.824493 -67.571922
v 240.162827 292.824493 -61.164227
v 234.417267 292.824493 -66.102303
v 239.071976 292.824493 -59.768017
v 232.721405 292.824493 -64.449554
v 231.204468 292.824493 -62.631199
v 256.330719 292.824493 -63.436478
v 258.811218 292.824493 -69.901558
v 254.766312 292.824493 -64.268295
v 256.595398 292.824493 -70.736885
v 253.101349 292.824493 -64.874290
v 254.305450 292.824493 -71.339951
v 251.368256 292.824493 -65.242668
v 251.965637 292.824493 -71.704369
v 249.600769 292.824493 -65.366272
v 249.600769 292.824493 -71.826271
v 247.833267 292.824493 -65.242668
v 247.235886 292.824493 -71.704369
v 246.100174 292.824493 -64.874290
v 244.896072 292.824493 -71.339951
v 242.606125 292.824493 -70.736885
v 262.231201 292.824493 -51.338757
v 272.410400 292.824493 -51.779430
v 262.293030 292.824493 -53.109493
v 271.985870 292.824493 -54.109085
v 262.107819 292.824493 -54.871601
v 271.324005 292.824493 -56.382740
v 261.679169 292.824493 -56.590786
v 270.906219 292.824493 -40.161530
v 271.684204 292.824493 -42.398098
v 261.376007 292.824493 -47.908764
v 272.228119 292.824493 -44.702808
v 261.923523 292.824493 -49.593857
v 272.532166 292.824493 -47.051231
v 272.593140 292.824493 -49.418472
v 257.714050 292.824493 -27.304781
v 259.883911 292.824493 -28.253065
v 261.944763 292.824493 -29.419430
v 270.431915 292.824493 -58.576302
v 269.319000 292.824493 -60.666500
v 261.015442 292.824493 -58.233582
v 267.997070 292.824493 -62.631199
v 260.129547 292.824493 -59.768017
v 266.480133 292.824493 -64.449554
v 259.038727 292.824493 -61.164227
v 264.784271 292.824493 -66.102303
v 257.764160 292.824493 -62.395031
v 262.927429 292.824493 -67.571922
v 260.929382 292.824493 -68.842827
v 261.376007 285.824493 -47.908764
v 271.684204 285.824493 -42.398098
v 260.599274 285.824493 -46.316269
v 270.906219 285.824493 -40.161530
v 259.608521 285.824493 -44.847370
v 262.293030 285.824493 -53.109493
v 272.410400 285.824493 -51.779430
v 262.231201 285.824493 -51.338757
v 272.593140 285.824493 -49.418472
v 261.923523 285.824493 -49.593857
v 272.532166 285.824493 -47.051231
v 272.228119 285.824493 -44.702808
v 242.870789 285.824493 -63.436478
v 240.390335 285.824493 -69.901558
v 244.435211 285.824493 -64.268295
v 242.606125 285.824493 -70.736885
v 246.100174 285.824493 -64.874290
v 244.896072 285.824493 -71.339951
v 247.833267 285.824493 -65.242668
v 247.235886 285.824493 -71.704369
v 249.600769 285.824493 -65.366272
v 249.600769 285.824493 -71.826271
v 251.368256 285.824493 -65.242668
v 251.965637 285.824493 -71.704369
v 253.101349 285.824493 -64.874290
v 254.305450 285.824493 -71.339951
v 254.766312 285.824493 -64.268295
v 237.522354 285.824493 -56.590786
v 229.882523 285.824493 -60.666500
v 238.186081 285.824493 -58.233582
v 231.204468 285.824493 -62.631199
v 239.071976 285.824493 -59.768017
v 232.721405 285.824493 -64.449554
v 240.162827 285.824493 -61.164227
v 234.417267 285.824493 -66.102303
v 241.437363 285.824493 -62.395031
v 236.274078 285.824493 -67.571922
v 238.272156 285.824493 -68.842827
v 238.602234 285.824493 -46.316269
v 227.517319 285.824493 -42.398098
v 237.825531 285.824493 -47.908764
v 226.973419 285.824493 -44.702808
v 237.278015 285.824493 -49.593857
v 226.669357 285.824493 -47.051231
v 236.970337 285.824493 -51.338757
v 240.778595 285.824493 -43.530655
v 230.518188 285.824493 -35.986664
v 239.593033 285.824493 -44.847370
v 229.299164 285.824493 -38.016804
v 228.295319 285.824493 -40.161530
v 243.638474 285.824493 -41.452831
v 235.326752 285.824493 -30.791512
v 242.135895 285.824493 -42.391750
v 233.548050 285.824493 -32.354767
v 231.939514 285.824493 -34.092625
v 263.874756 285.824493 -30.791512
v 255.563049 285.824493 -41.452831
v 257.065613 285.824493 -42.391750
v 269.902374 285.824493 -38.016804
v 268.683350 285.824493 -35.986664
v 258.422913 285.824493 -43.530655
v 267.262024 285.824493 -34.092625
v 265.653503 285.824493 -32.354767
v 261.015442 285.824493 -58.233582
v 269.319000 285.824493 -60.666500
v 261.679169 285.824493 -56.590786
v 270.431915 285.824493 -58.576302
v 262.107819 285.824493 -54.871601
v 271.324005 285.824493 -56.382740
v 271.985870 285.824493 -54.109085
v 256.595398 285.824493 -70.736885
v 258.811218 285.824493 -69.901558
v 256.330719 285.824493 -63.436478
v 260.929382 285.824493 -68.842827
v 257.764160 285.824493 -62.395031
v 262.927429 285.824493 -67.571922
v 259.038727 285.824493 -61.164227
v 264.784271 285.824493 -66.102303
v 260.129547 285.824493 -59.768017
v 266.480133 285.824493 -64.449554
v 267.997070 285.824493 -62.631199
v 226.608398 285.824493 -49.418472
v 226.791138 285.824493 -51.779430
v 236.908493 285.824493 -53.109493
v 227.215683 285.824493 -54.109085
v 237.093704 285.824493 -54.871601
v 227.877518 285.824493 -56.382740
v 228.769623 285.824493 -58.576302
v 245.257111 285.824493 -40.732170
v 239.317612 285.824493 -28.253065
v 237.256744 285.824493 -29.419430
v 261.944763 285.824493 -29.419430
v 259.883911 285.824493 -28.253065
v 253.944427 285.824493 -40.732170
v 257.714050 285.824493 -27.304781
v 252.241257 285.824493 -40.243793
v 248.714859 285.824493 -39.997204
v 246.061279 285.824493 -26.100246
v 246.960281 285.824493 -40.243793
v 243.743332 285.824493 -26.584631
v 241.487473 285.824493 -27.304781
v 255.458206 285.824493 -26.584631
v 253.140244 285.824493 -26.100246
v 250.486679 285.824493 -39.997204
v 250.784790 285.824493 -25.856764
v 249.600769 285.824493 -39.966267
v 249.600769 285.824493 -25.826267
v 248.416748 285.824493 -25.856764
vn 0.0000 1.0000 0.0000
vn 0.0000 -1.0000 0.0000
vn 0.0257 0.0000 0.9997
vn -0.0257 0.0000 0.9997
vn -0.0258 0.0000 0.9997
vn -0.1028 0.0000 0.9947
vn -0.2046 0.0000 0.9789
vn -0.3041 0.0000 0.9526
vn -0.4005 0.0000 0.9163
vn -0.4925 0.0000 0.8703
vn -0.5794 0.0000 0.8150
vn -0.6602 0.0000 0.7511
vn -0.7339 0.0000 0.6793
vn -0.7998 0.0000 0.6002
vn -0.8573 0.0000 0.5148
vn -0.9057 0.0000 0.4239
vn -0.9445 0.0000 0.3285
vn -0.9733 0.0000 0.2297
vn -0.9917 0.0000 0.1284
vn -0.9997 0.0000 0.0257
vn -0.9970 0.0000 -0.0772
vn -0.9838 0.0000 -0.1793
vn -0.9601 0.0000 -0.2795
vn -0.9263 0.0000 -0.3767
vn -0.8827 0.0000 -0.4700
vn -0.8297 0.0000 -0.5582
vn -0.7679 0.0000 -0.6406
vn -0.6979 0.0000 -0.7162
vn -0.6979 0.0000 -0.7161
vn -0.6206 0.0000 -0.7841
vn -0.5367 0.0000 -0.8438
vn -0.4471 0.0000 -0.8945
vn -0.3528 0.0000 -0.9357
vn -0.2547 0.0000 -0.9670
vn -0.1539 0.0000 -0.9881
vn -0.0515 0.0000 -0.9987
vn 0.0515 0.0000 -0.9987
vn 0.1539 0.0000 -0.9881
vn 0.2547 0.0000 -0.9670
vn 0.3527 0.0000 -0.9357
vn 0.4471 0.0000 -0.8945
vn 0.5367 0.0000 -0.8438
vn 0.6206 0.0000 -0.7841
vn 0.6979 0.0000 -0.7161
vn 0.6979 0.0000 -0.7162
vn 0.7679 0.0000 -0.6406
vn 0.8297 0.0000 -0.5582
vn 0.8827 0.0000 -0.4700
vn 0.9263 0.0000 -0.3767
vn 0.9601 0.0000 -0.2795
vn 0.9838 0.0000 -0.1793
vn 0.9970 0.0000 -0.0772
vn 0.9997 0.0000 0.0257
vn 0.9917 0.0000 0.1284
vn 0.9733 0.0000 0.2297
vn 0.9445 0.0000 0.3285
vn 0.9057 0.0000 0.4239
vn 0.8573 0.0000 0.5148
vn 0.7998 0.0000 0.6002
vn 0.7339 0.0000 0.6793
vn 0.6601 0.0000 0.7511
vn 0.5794 0.0000 0.8150
vn 0.4926 0.0000 0.8703
vn 0.4925 0.0000 0.8703
vn 0.4005 0.0000 0.9163
vn 0.3041 0.0000 0.9526
vn 0.2046 0.0000 0.9789
vn 0.1028 0.0000 0.9947
vn 0.0258 0.0000 0.9997
vn -0.0698 0.0000 0.9976
vn -0.2079 0.0000 0.9781
vn -0.3420 0.0000 0.9397
vn -0.4695 0.0000 0.8829
vn -0.5878 0.0000 0.8090
vn -0.6946 0.0000 0.7193
vn -0.7880 0.0000 0.6157
vn -0.8660 0.0000 0.5000
vn -0.9272 0.0000 0.3746
vn -0.9703 0.0000 0.2419
vn -0.9945 0.0000 0.1045
vn -0.9994 0.0000 -0.0349
vn -0.9848 0.0000 -0.1737
vn -0.9511 0.0000 -0.3090
vn -0.8988 0.0000 -0.4384
vn -0.8290 0.0000 -0.5592
vn -0.7431 0.0000 -0.6691
vn -0.6428 0.0000 -0.7660
vn -0.5299 0.0000 -0.8480
vn -0.4067 0.0000 -0.9135
vn -0.2756 0.0000 -0.9613
vn -0.1392 0.0000 -0.9903
vn -0.0349 0.0000 -0.9994
vn 0.0349 0.0000 -0.9994
vn 0.1392 0.0000 -0.9903
vn 0.2756 0.0000 -0.9613
vn 0.4067 0.0000 -0.9135
vn 0.5299 0.0000 -0.8480
vn 0.6428 0.0000 -0.7660
vn 0.7431 0.0000 -0.6691
vn 0.8290 0.0000 -0.5592
vn 0.8988 0.0000 -0.4384
vn 0.9511 0.0000 -0.3090
vn 0.9848 0.0000 -0.1737
vn 0.9994 0.0000 -0.0349
vn 0.9945 0.0000 0.1045
vn 0.9703 0.0000 0.2419
vn 0.9272 0.0000 0.3746
vn 0.8660 0.0000 0.5000
vn 0.7880 0.0000 0.6157
vn 0.6947 0.0000 0.7193
vn 0.5878 0.0000 0.8090
vn 0.4695 0.0000 0.8829
vn 0.3420 0.0000 0.9397
vn 0.2079 0.0000 0.9781
vn 0.0698 0.0000 0.9976
usemtl None
s off
f 1//1 2//1 3//1
f 3//1 2//1 4//1
f 3//1 4//1 5//1
f 6//1 7//1 1//1
f 1//1 7//1 8//1
f 1//1 8//1 2//1
f 9//1 10//1 11//1
f 11//1 10//1 12//1
f 11//1 12//1 6//1
f 6//1 12//1 13//1
f 6//1 13//1 7//1
f 14//1 15//1 16//1
f 16//1 15//1 17//1
f 16//1 17//1 9//1
f 9//1 17//1 18//1
f 9//1 18//1 10//1
f 19//1 20//1 21//1
f 21//1 20//1 22//1
f 21//1 22//1 23//1
f 23//1 22//1 24//1
f 23//1 24//1 25//1
f 4//1 26//1 5//1
f 5//1 26//1 27//1
f 5//1 27//1 28//1
f 28//1 27//1 29//1
f 28//1 29//1 30//1
f 30//1 29//1 31//1
f 30//1 31//1 32//1
f 24//1 33//1 25//1
f 25//1 33//1 34//1
f 25//1 34//1 35//1
f 35//1 34//1 36//1
f 35//1 36//1 37//1
f 37//1 36//1 38//1
f 37//1 38//1 14//1
f 14//1 38//1 39//1
f 14//1 39//1 15//1
f 40//1 41//1 42//1
f 42//1 41//1 43//1
f 42//1 43//1 44//1
f 45//1 46//1 47//1
f 47//1 46//1 48//1
f 47//1 48//1 40//1
f 40//1 48//1 49//1
f 40//1 49//1 41//1
f 31//1 50//1 32//1
f 32//1 50//1 51//1
f 32//1 51//1 52//1
f 52//1 51//1 53//1
f 52//1 53//1 54//1
f 55//1 56//1 57//1
f 57//1 56//1 58//1
f 57//1 58//1 59//1
f 59//1 58//1 60//1
f 59//1 60//1 61//1
f 61//1 60//1 62//1
f 61//1 62//1 63//1
f 63//1 62//1 64//1
f 63//1 64//1 19//1
f 19//1 64//1 65//1
f 19//1 65//1 20//1
f 66//1 67//1 68//1
f 68//1 67//1 69//1
f 68//1 69//1 70//1
f 70//1 69//1 71//1
f 70//1 71//1 72//1
f 72//1 71//1 73//1
f 72//1 73//1 74//1
f 74//1 73//1 75//1
f 74//1 75//1 76//1
f 76//1 75//1 77//1
f 76//1 77//1 78//1
f 78//1 77//1 79//1
f 78//1 79//1 55//1
f 55//1 79//1 80//1
f 55//1 80//1 56//1
f 81//1 82//1 83//1
f 83//1 82//1 84//1
f 83//1 84//1 85//1
f 85//1 84//1 86//1
f 85//1 86//1 87//1
f 43//1 88//1 44//1
f 44//1 88//1 89//1
f 44//1 89//1 90//1
f 90//1 89//1 91//1
f 90//1 91//1 92//1
f 92//1 91//1 93//1
f 92//1 93//1 81//1
f 81//1 93//1 94//1
f 81//1 94//1 82//1
f 53//1 95//1 54//1
f 54//1 95//1 96//1
f 54//1 96//1 45//1
f 45//1 96//1 97//1
f 45//1 97//1 46//1
f 86//1 98//1 87//1
f 87//1 98//1 99//1
f 87//1 99//1 100//1
f 100//1 99//1 101//1
f 100//1 101//1 102//1
f 102//1 101//1 103//1
f 102//1 103//1 104//1
f 104//1 103//1 105//1
f 104//1 105//1 106//1
f 106//1 105//1 107//1
f 106//1 107//1 66//1
f 66//1 107//1 108//1
f 66//1 108//1 67//1
f 109//2 110//2 111//2
f 111//2 110//2 112//2
f 111//2 112//2 113//2
f 114//2 115//2 116//2
f 116//2 115//2 117//2
f 116//2 117//2 118//2
f 118//2 117//2 119//2
f 118//2 119//2 109//2
f 109//2 119//2 120//2
f 109//2 120//2 110//2
f 121//2 122//2 123//2
f 123//2 122//2 124//2
f 123//2 124//2 125//2
f 125//2 124//2 126//2
f 125//2 126//2 127//2
f 127//2 126//2 128//2
f 127//2 128//2 129//2
f 129//2 128//2 130//2
f 129//2 130//2 131//2
f 131//2 130//2 132//2
f 131//2 132//2 133//2
f 133//2 132//2 134//2
f 133//2 134//2 135//2
f 136//2 137//2 138//2
f 138//2 137//2 139//2
f 138//2 139//2 140//2
f 140//2 139//2 141//2
f 140//2 141//2 142//2
f 142//2 141//2 143//2
f 142//2 143//2 144//2
f 144//2 143//2 145//2
f 144//2 145//2 121//2
f 121//2 145//2 146//2
f 121//2 146//2 122//2
f 147//2 148//2 149//2
f 149//2 148//2 150//2
f 149//2 150//2 151//2
f 151//2 150//2 152//2
f 151//2 152//2 153//2
f 154//2 155//2 156//2
f 156//2 155//2 157//2
f 156//2 157//2 147//2
f 147//2 157//2 158//2
f 147//2 158//2 148//2
f 159//2 160//2 161//2
f 161//2 160//2 162//2
f 161//2 162//2 154//2
f 154//2 162//2 163//2
f 154//2 163//2 155//2
f 164//2 165//2 166//2
f 112//2 167//2 113//2
f 113//2 167//2 168//2
f 113//2 168//2 169//2
f 169//2 168//2 170//2
f 169//2 170//2 166//2
f 166//2 170//2 171//2
f 166//2 171//2 164//2
f 172//2 173//2 174//2
f 174//2 173//2 175//2
f 174//2 175//2 176//2
f 176//2 175//2 177//2
f 176//2 177//2 114//2
f 114//2 177//2 178//2
f 114//2 178//2 115//2
f 134//2 179//2 135//2
f 135//2 179//2 180//2
f 135//2 180//2 181//2
f 181//2 180//2 182//2
f 181//2 182//2 183//2
f 183//2 182//2 184//2
f 183//2 184//2 185//2
f 185//2 184//2 186//2
f 185//2 186//2 187//2
f 187//2 186//2 188//2
f 187//2 188//2 172//2
f 172//2 188//2 189//2
f 172//2 189//2 173//2
f 152//2 190//2 153//2
f 153//2 190//2 191//2
f 153//2 191//2 192//2
f 192//2 191//2 193//2
f 192//2 193//2 194//2
f 194//2 193//2 195//2
f 194//2 195//2 136//2
f 136//2 195//2 196//2
f 136//2 196//2 137//2
f 197//2 198//2 159//2
f 159//2 198//2 199//2
f 159//2 199//2 160//2
f 164//2 200//2 165//2
f 165//2 200//2 201//2
f 165//2 201//2 202//2
f 202//2 201//2 203//2
f 202//2 203//2 204//2
f 205//2 206//2 207//2
f 207//2 206//2 208//2
f 207//2 208//2 197//2
f 197//2 208//2 209//2
f 197//2 209//2 198//2
f 203//2 210//2 204//2
f 204//2 210//2 211//2
f 204//2 211//2 212//2
f 212//2 211//2 213//2
f 212//2 213//2 214//2
f 214//2 213//2 215//2
f 214//2 215//2 205//2
f 205//2 215//2 216//2
f 205//2 216//2 206//2
f 50//3 31//3 215//3
f 215//4 31//4 216//4
f 31//5 29//5 216//5
f 216//6 29//6 27//6
f 216//6 27//6 206//6
f 206//7 27//7 26//7
f 206//7 26//7 208//7
f 208//8 26//8 4//8
f 208//8 4//8 209//8
f 209//9 4//9 2//9
f 209//9 2//9 198//9
f 198//10 2//10 8//10
f 198//10 8//10 199//10
f 199//11 8//11 7//11
f 199//11 7//11 160//11
f 160//12 7//12 13//12
f 160//12 13//12 162//12
f 162//13 13//13 12//13
f 162//13 12//13 163//13
f 163//14 12//14 10//14
f 163//14 10//14 155//14
f 155//15 10//15 18//15
f 155//15 18//15 157//15
f 157//16 18//16 17//16
f 157//16 17//16 158//16
f 158//17 17//17 15//17
f 158//17 15//17 148//17
f 148//18 15//18 39//18
f 148//18 39//18 150//18
f 150//19 39//19 38//19
f 150//19 38//19 152//19
f 152//20 38//20 36//20
f 152//20 36//20 190//20
f 190//21 36//21 34//21
f 190//21 34//21 191//21
f 191//22 34//22 33//22
f 191//22 33//22 193//22
f 193//23 33//23 24//23
f 193//23 24//23 195//23
f 195//24 24//24 22//24
f 195//24 22//24 196//24
f 196//25 22//25 20//25
f 196//25 20//25 137//25
f 137//26 20//26 65//26
f 137//26 65//26 139//26
f 139//27 65//27 64//27
f 139//27 64//27 141//27
f 141//28 64//28 62//28
f 141//29 62//29 143//29
f 143//30 62//30 60//30
f 143//30 60//30 145//30
f 145//31 60//31 58//31
f 145//31 58//31 146//31
f 146//32 58//32 56//32
f 146//32 56//32 122//32
f 122//33 56//33 80//33
f 122//33 80//33 124//33
f 124//34 80//34 79//34
f 124//34 79//34 126//34
f 126//35 79//35 77//35
f 126//35 77//35 128//35
f 128//36 77//36 75//36
f 128//36 75//36 130//36
f 130//37 75//37 73//37
f 130//37 73//37 132//37
f 132//38 73//38 71//38
f 132//38 71//38 134//38
f 134//39 71//39 69//39
f 134//39 69//39 179//39
f 179//40 69//40 67//40
f 179//40 67//40 180//40
f 180//41 67//41 108//41
f 180//41 108//41 182//41
f 182//42 108//42 107//42
f 182//42 107//42 184//42
f 184//43 107//43 105//43
f 184//43 105//43 186//43
f 186//44 105//44 103//44
f 186//45 103//45 188//45
f 188//46 103//46 101//46
f 188//46 101//46 189//46
f 189//47 101//47 99//47
f 189//47 99//47 173//47
f 173//48 99//48 98//48
f 173//48 98//48 175//48
f 175//49 98//49 86//49
f 175//49 86//49 177//49
f 177//50 86//50 84//50
f 177//50 84//50 178//50
f 178//51 84//51 82//51
f 178//51 82//51 115//51
f 115//52 82//52 94//52
f 115//52 94//52 117//52
f 117//53 94//53 93//53
f 117//53 93//53 119//53
f 119//54 93//54 91//54
f 119//54 91//54 120//54
f 120//55 91//55 89//55
f 120//55 89//55 110//55
f 110//56 89//56 88//56
f 110//56 88//56 112//56
f 112//57 88//57 43//57
f 112//57 43//57 167//57
f 167//58 43//58 41//58
f 167//58 41//58 168//58
f 168//59 41//59 49//59
f 168//59 49//59 170//59
f 170//60 49//60 48//60
f 170//60 48//60 171//60
f 171//61 48//61 46//61
f 171//61 46//61 164//61
f 164//62 46//62 97//62
f 164//62 97//62 200//62
f 200//63 97//63 96//63
f 200//64 96//64 201//64
f 201//65 96//65 95//65
f 201//65 95//65 203//65
f 203//66 95//66 53//66
f 203//66 53//66 210//66
f 210//67 53//67 51//67
f 210//67 51//67 211//67
f 211//68 51//68 50//68
f 211//68 50//68 213//68
f 213//69 50//69 215//69
f 74//70 129//70 72//70
f 72//70 129//70 131//70
f 72//71 131//71 70//71
f 70//71 131//71 133//71
f 70//72 133//72 68//72
f 68//72 133//72 135//72
f 68//73 135//73 66//73
f 66//73 135//73 181//73
f 66//74 181//74 106//74
f 106//74 181//74 183//74
f 106//75 183//75 104//75
f 104//75 183//75 185//75
f 104//76 185//76 102//76
f 102//76 185//76 187//76
f 102//77 187//77 100//77
f 100//77 187//77 172//77
f 100//78 172//78 87//78
f 87//78 172//78 174//78
f 87//79 174//79 85//79
f 85//79 174//79 176//79
f 85//80 176//80 83//80
f 83//80 176//80 114//80
f 83//81 114//81 81//81
f 81//81 114//81 116//81
f 81//82 116//82 92//82
f 92//82 116//82 118//82
f 92//83 118//83 90//83
f 90//83 118//83 109//83
f 90//84 109//84 44//84
f 44//84 109//84 111//84
f 44//85 111//85 42//85
f 42//85 111//85 113//85
f 42//86 113//86 40//86
f 40//86 113//86 169//86
f 40//87 169//87 47//87
f 47//87 169//87 166//87
f 47//88 166//88 45//88
f 45//88 166//88 165//88
f 45//89 165//89 54//89
f 54//89 165//89 202//89
f 54//90 202//90 52//90
f 52//90 202//90 204//90
f 52//91 204//91 32//91
f 32//91 204//91 212//91
f 32//92 212//92 30//92
f 30//92 212//92 214//92
f 30//93 214//93 28//93
f 28//93 214//93 205//93
f 28//94 205//94 5//94
f 5//94 205//94 207//94
f 5//95 207//95 3//95
f 3//95 207//95 197//95
f 3//96 197//96 1//96
f 1//96 197//96 159//96
f 1//97 159//97 6//97
f 6//97 159//97 161//97
f 6//98 161//98 11//98
f 11//98 161//98 154//98
f 11//99 154//99 9//99
f 9//99 154//99 156//99
f 9//100 156//100 16//100
f 16//100 156//100 147//100
f 16//101 147//101 14//101
f 14//101 147//101 149//101
f 14//102 149//102 37//102
f 37//102 149//102 151//102
f 37//103 151//103 35//103
f 35//103 151//103 153//103
f 35//104 153//104 25//104
f 25//104 153//104 192//104
f 25//105 192//105 23//105
f 23//105 192//105 194//105
f 23//106 194//106 21//106
f 21//106 194//106 136//106
f 21//107 136//107 19//107
f 19//107 136//107 138//107
f 19//108 138//108 63//108
f 63//108 138//108 140//108
f 63//109 140//109 61//109
f 61//109 140//109 142//109
f 61//110 142//110 59//110
f 59//110 142//110 144//110
f 59//111 144//111 57//111
f 57//111 144//111 121//111
f 57//112 121//112 55//112
f 55//112 121//112 123//112
f 55//113 123//113 78//113
f 78//113 123//113 125//113
f 78//114 125//114 76//114
f 76//114 125//114 127//114
f 76//115 127//115 74//115
f 74//115 127//115 129//115
