# Blender v2.79 (sub 0) OBJ File: ''
# www.blender.org
mtllib 334.mtl
o 335
v 5.698210 0.295463 -0.464299
v 5.698210 3.925434 -0.464299
v 5.698210 0.295463 0.000000
v 5.698210 3.925434 0.000000
v 5.402748 0.000000 -0.464299
v 5.402748 0.000000 0.000000
v 5.698210 0.295463 0.000000
v 0.295463 0.000000 -0.464299
v 0.295463 0.000000 0.000000
v 5.402748 0.000000 0.000000
v 0.000000 0.295463 -0.464299
v 0.000000 0.295463 0.000000
v 0.000000 3.925434 -0.464299
v 0.000000 3.925434 0.000000
v 0.295463 4.220897 -0.464299
v 0.295463 4.220897 0.000000
v 5.402748 4.220897 -0.464299
v 5.402748 4.220897 0.000000
v 0.633134 2.026031 -0.464299
v 0.633134 2.026031 0.000000
v 0.675934 2.029673 -0.464299
v 0.675934 2.029673 0.000000
v 0.717503 2.040497 -0.464299
v 0.717503 2.040497 0.000000
v 0.756645 2.058190 -0.464299
v 0.756645 2.058190 0.000000
v 0.792234 2.082244 -0.464299
v 0.792234 2.082244 0.000000
v 0.823245 2.111966 -0.464299
v 0.823245 2.111966 0.000000
v 0.848787 2.146501 -0.464299
v 0.848787 2.146501 0.000000
v 0.868126 2.184857 -0.464299
v 0.868126 2.184857 0.000000
v 0.880704 2.225929 -0.464299
v 0.880704 2.225929 0.000000
v 0.886160 2.268536 -0.464299
v 0.886160 2.268536 0.000000
v 0.884337 2.311452 -0.464299
v 0.884337 2.311452 0.000000
v 0.875287 2.353443 -0.464299
v 0.875287 2.353443 0.000000
v 0.859271 2.393300 -0.464299
v 0.859271 2.393300 0.000000
v 0.836750 2.429878 -0.464299
v 0.836750 2.429878 0.000000
v 0.808371 2.462122 -0.464299
v 0.808371 2.462122 0.000000
v 0.774950 2.489107 -0.464299
v 0.774950 2.489107 0.000000
v 0.737450 2.510056 -0.464299
v 0.737450 2.510056 0.000000
v 0.696949 2.524366 -0.464299
v 0.696949 2.524366 0.000000
v 0.654612 2.531626 -0.464299
v 0.654612 2.531626 0.000000
v 0.633134 2.532538 -0.464299
v 0.633134 2.532538 0.000000
v 0.611657 2.531626 -0.464299
v 0.611657 2.531626 0.000000
v 0.569320 2.524366 -0.464299
v 0.569320 2.524366 0.000000
v 0.528819 2.510056 -0.464299
v 0.528819 2.510056 0.000000
v 0.491319 2.489107 -0.464299
v 0.491319 2.489107 0.000000
v 0.457898 2.462122 -0.464299
v 0.457898 2.462122 0.000000
v 0.429519 2.429878 -0.464299
v 0.429519 2.429878 0.000000
v 0.406998 2.393300 -0.464299
v 0.406998 2.393300 0.000000
v 0.390982 2.353443 -0.464299
v 0.390982 2.353443 0.000000
v 0.381932 2.311452 -0.464299
v 0.381932 2.311452 0.000000
v 0.380109 2.268536 -0.464299
v 0.380109 2.268536 0.000000
v 0.385565 2.225929 -0.464299
v 0.385565 2.225929 0.000000
v 0.398143 2.184857 -0.464299
v 0.398143 2.184857 0.000000
v 0.417482 2.146501 -0.464299
v 0.417482 2.146501 0.000000
v 0.443024 2.111966 -0.464299
v 0.443024 2.111966 0.000000
v 0.474035 2.082244 -0.464299
v 0.474035 2.082244 0.000000
v 0.509624 2.058190 -0.464299
v 0.509624 2.058190 0.000000
v 0.548766 2.040497 -0.464299
v 0.548766 2.040497 0.000000
v 0.590334 2.029673 -0.464299
v 0.590334 2.029673 0.000000
v 5.065076 2.026031 -0.464299
v 5.065076 2.026031 0.000000
v 5.107876 2.029673 -0.464299
v 5.107876 2.029673 0.000000
v 5.149446 2.040497 -0.464299
v 5.149446 2.040497 0.000000
v 5.188587 2.058190 -0.464299
v 5.188587 2.058190 0.000000
v 5.224175 2.082244 -0.464299
v 5.224175 2.082244 0.000000
v 5.255187 2.111966 -0.464299
v 5.255187 2.111966 0.000000
v 5.280729 2.146501 -0.464299
v 5.280729 2.146501 0.000000
v 5.300067 2.184857 -0.464299
v 5.300067 2.184857 0.000000
v 5.312646 2.225929 -0.464299
v 5.312646 2.225929 0.000000
v 5.318102 2.268536 -0.464299
v 5.318102 2.268536 0.000000
v 5.316279 2.311452 -0.464299
v 5.316279 2.311452 0.000000
v 5.307229 2.353443 -0.464299
v 5.307229 2.353443 0.000000
v 5.291213 2.393300 -0.464299
v 5.291213 2.393300 0.000000
v 5.268692 2.429878 -0.464299
v 5.268692 2.429878 0.000000
v 5.240313 2.462122 -0.464299
v 5.240313 2.462122 0.000000
v 5.206892 2.489107 -0.464299
v 5.206892 2.489107 0.000000
v 5.169392 2.510056 -0.464299
v 5.169392 2.510056 0.000000
v 5.128891 2.524366 -0.464299
v 5.128891 2.524366 0.000000
v 5.086554 2.531626 -0.464299
v 5.086554 2.531626 0.000000
v 5.065076 2.532538 -0.464299
v 5.065076 2.532538 0.000000
v 5.043599 2.531626 -0.464299
v 5.043599 2.531626 0.000000
v 5.001262 2.524366 -0.464299
v 5.001262 2.524366 0.000000
v 4.960761 2.510056 -0.464299
v 4.960761 2.510056 0.000000
v 4.923261 2.489107 -0.464299
v 4.923261 2.489107 0.000000
v 4.889840 2.462122 -0.464299
v 4.889840 2.462122 0.000000
v 4.861461 2.429878 -0.464299
v 4.861461 2.429878 0.000000
v 4.838939 2.393300 -0.464299
v 4.838939 2.393300 0.000000
v 4.822924 2.353443 -0.464299
v 4.822924 2.353443 0.000000
v 4.813874 2.311452 -0.464299
v 4.813874 2.311452 0.000000
v 4.812050 2.268536 -0.464299
v 4.812050 2.268536 0.000000
v 4.817507 2.225929 -0.464299
v 4.817507 2.225929 0.000000
v 4.830085 2.184857 -0.464299
v 4.830085 2.184857 0.000000
v 4.849423 2.146501 -0.464299
v 4.849423 2.146501 0.000000
v 4.874966 2.111966 -0.464299
v 4.874966 2.111966 0.000000
v 4.905977 2.082244 -0.464299
v 4.905977 2.082244 0.000000
v 4.941566 2.058190 -0.464299
v 4.941566 2.058190 0.000000
v 4.980707 2.040497 -0.464299
v 4.980707 2.040497 0.000000
v 5.022276 2.029673 -0.464299
v 5.022276 2.029673 0.000000
v 5.698210 3.925434 0.000000
v 5.402748 4.220897 0.000000
v 4.115375 1.013015 0.000000
v 1.582836 1.013015 0.000000
v 1.582836 3.545553 0.000000
v 4.115375 3.545553 0.000000
v 4.115375 1.013015 -0.337672
v 1.582836 1.013015 -0.337672
v 1.582836 3.545553 -0.337672
v 4.115375 3.545553 -0.337672
vn 1.0000 0.0000 0.0000
vn 0.7071 -0.7071 0.0000
vn 0.0000 -1.0000 0.0000
vn -0.7071 -0.7071 0.0000
vn -1.0000 0.0000 0.0000
vn -0.7071 0.7071 0.0000
vn 0.0000 1.0000 0.0000
vn -0.0848 0.9964 0.0000
vn -0.2520 0.9677 0.0000
vn -0.4119 0.9112 0.0000
vn -0.5600 0.8285 0.0000
vn -0.6919 0.7220 0.0000
vn -0.8040 0.5946 0.0000
vn -0.8929 0.4502 0.0000
vn -0.9562 0.2928 0.0000
vn -0.9919 0.1270 0.0000
vn -0.9991 -0.0424 0.0000
vn -0.9776 -0.2107 0.0000
vn -0.9279 -0.3729 0.0000
vn -0.8515 -0.5243 0.0000
vn -0.7507 -0.6607 0.0000
vn -0.6282 -0.7780 0.0000
vn -0.4877 -0.8730 0.0000
vn -0.3331 -0.9429 0.0000
vn -0.1690 -0.9856 0.0000
vn -0.0424 -0.9991 0.0000
vn 0.0424 -0.9991 0.0000
vn 0.1690 -0.9856 0.0000
vn 0.3331 -0.9429 0.0000
vn 0.4877 -0.8730 0.0000
vn 0.6282 -0.7780 0.0000
vn 0.7507 -0.6607 0.0000
vn 0.8515 -0.5243 0.0000
vn 0.9279 -0.3729 0.0000
vn 0.9776 -0.2107 0.0000
vn 0.9991 -0.0424 0.0000
vn 0.9919 0.1270 0.0000
vn 0.9562 0.2928 0.0000
vn 0.8929 0.4502 0.0000
vn 0.8040 0.5946 0.0000
vn 0.6919 0.7220 0.0000
vn 0.5600 0.8285 0.0000
vn 0.4119 0.9112 0.0000
vn 0.2520 0.9677 0.0000
vn 0.0848 0.9964 0.0000
vn -0.8040 0.5947 0.0000
vn -0.6282 -0.7781 0.0000
vn 0.9279 -0.3728 0.0000
vn 0.9775 -0.2107 0.0000
vn 0.9991 -0.0425 0.0000
vn 0.9919 0.1271 0.0000
vn 0.7071 0.7071 0.0000
vn 0.0000 0.0000 -1.0000
vn 0.0000 0.0000 1.0000
usemtl None
s off
f 1//1 2//1 3//1
f 3//1 2//1 4//1
f 5//2 1//2 6//2
f 6//2 1//2 7//2
f 8//3 5//3 9//3
f 9//3 5//3 10//3
f 11//4 8//4 12//4
f 12//4 8//4 9//4
f 13//5 11//5 14//5
f 14//5 11//5 12//5
f 15//6 13//6 16//6
f 16//6 13//6 14//6
f 17//7 15//7 18//7
f 18//7 15//7 16//7
f 19//8 20//8 21//8
f 21//8 20//8 22//8
f 21//9 22//9 23//9
f 23//9 22//9 24//9
f 23//10 24//10 25//10
f 25//10 24//10 26//10
f 25//11 26//11 27//11
f 27//11 26//11 28//11
f 27//12 28//12 29//12
f 29//12 28//12 30//12
f 29//13 30//13 31//13
f 31//13 30//13 32//13
f 31//14 32//14 33//14
f 33//14 32//14 34//14
f 33//15 34//15 35//15
f 35//15 34//15 36//15
f 35//16 36//16 37//16
f 37//16 36//16 38//16
f 37//17 38//17 39//17
f 39//17 38//17 40//17
f 39//18 40//18 41//18
f 41//18 40//18 42//18
f 41//19 42//19 43//19
f 43//19 42//19 44//19
f 43//20 44//20 45//20
f 45//20 44//20 46//20
f 45//21 46//21 47//21
f 47//21 46//21 48//21
f 47//22 48//22 49//22
f 49//22 48//22 50//22
f 49//23 50//23 51//23
f 51//23 50//23 52//23
f 51//24 52//24 53//24
f 53//24 52//24 54//24
f 53//25 54//25 55//25
f 55//25 54//25 56//25
f 55//26 56//26 57//26
f 57//26 56//26 58//26
f 57//27 58//27 59//27
f 59//27 58//27 60//27
f 59//28 60//28 61//28
f 61//28 60//28 62//28
f 61//29 62//29 63//29
f 63//29 62//29 64//29
f 63//30 64//30 65//30
f 65//30 64//30 66//30
f 65//31 66//31 67//31
f 67//31 66//31 68//31
f 67//32 68//32 69//32
f 69//32 68//32 70//32
f 69//33 70//33 71//33
f 71//33 70//33 72//33
f 71//34 72//34 73//34
f 73//34 72//34 74//34
f 73//35 74//35 75//35
f 75//35 74//35 76//35
f 75//36 76//36 77//36
f 77//36 76//36 78//36
f 77//37 78//37 79//37
f 79//37 78//37 80//37
f 79//38 80//38 81//38
f 81//38 80//38 82//38
f 81//39 82//39 83//39
f 83//39 82//39 84//39
f 83//40 84//40 85//40
f 85//40 84//40 86//40
f 85//41 86//41 87//41
f 87//41 86//41 88//41
f 87//42 88//42 89//42
f 89//42 88//42 90//42
f 89//43 90//43 91//43
f 91//43 90//43 92//43
f 91//44 92//44 93//44
f 93//44 92//44 94//44
f 93//45 94//45 19//45
f 19//45 94//45 20//45
f 95//8 96//8 97//8
f 97//8 96//8 98//8
f 97//9 98//9 99//9
f 99//9 98//9 100//9
f 99//10 100//10 101//10
f 101//10 100//10 102//10
f 101//11 102//11 103//11
f 103//11 102//11 104//11
f 103//12 104//12 105//12
f 105//12 104//12 106//12
f 105//13 106//13 107//13
f 107//46 106//46 108//46
f 107//14 108//14 109//14
f 109//14 108//14 110//14
f 109//15 110//15 111//15
f 111//15 110//15 112//15
f 111//16 112//16 113//16
f 113//16 112//16 114//16
f 113//17 114//17 115//17
f 115//17 114//17 116//17
f 115//18 116//18 117//18
f 117//18 116//18 118//18
f 117//19 118//19 119//19
f 119//19 118//19 120//19
f 119//20 120//20 121//20
f 121//20 120//20 122//20
f 121//21 122//21 123//21
f 123//21 122//21 124//21
f 123//22 124//22 125//22
f 125//47 124//47 126//47
f 125//23 126//23 127//23
f 127//23 126//23 128//23
f 127//24 128//24 129//24
f 129//24 128//24 130//24
f 129//25 130//25 131//25
f 131//25 130//25 132//25
f 131//26 132//26 133//26
f 133//26 132//26 134//26
f 133//27 134//27 135//27
f 135//27 134//27 136//27
f 135//28 136//28 137//28
f 137//28 136//28 138//28
f 137//29 138//29 139//29
f 139//29 138//29 140//29
f 139//30 140//30 141//30
f 141//30 140//30 142//30
f 141//31 142//31 143//31
f 143//31 142//31 144//31
f 143//32 144//32 145//32
f 145//32 144//32 146//32
f 145//33 146//33 147//33
f 147//33 146//33 148//33
f 147//48 148//48 149//48
f 149//48 148//48 150//48
f 149//49 150//49 151//49
f 151//35 150//35 152//35
f 151//50 152//50 153//50
f 153//36 152//36 154//36
f 153//37 154//37 155//37
f 155//51 154//51 156//51
f 155//38 156//38 157//38
f 157//38 156//38 158//38
f 157//39 158//39 159//39
f 159//39 158//39 160//39
f 159//40 160//40 161//40
f 161//40 160//40 162//40
f 161//41 162//41 163//41
f 163//41 162//41 164//41
f 163//42 164//42 165//42
f 165//42 164//42 166//42
f 165//43 166//43 167//43
f 167//43 166//43 168//43
f 167//44 168//44 169//44
f 169//44 168//44 170//44
f 169//45 170//45 95//45
f 95//45 170//45 96//45
f 2//52 17//52 171//52
f 171//52 17//52 172//52
f 65//53 67//53 13//53
f 59//53 61//53 15//53
f 67//53 69//53 13//53
f 13//53 69//53 71//53
f 13//53 71//53 73//53
f 143//53 145//53 15//53
f 15//53 145//53 147//53
f 15//53 147//53 149//53
f 131//53 133//53 17//53
f 17//53 133//53 135//53
f 135//53 137//53 17//53
f 17//53 137//53 139//53
f 17//53 139//53 15//53
f 15//53 139//53 141//53
f 15//53 141//53 143//53
f 73//53 75//53 13//53
f 13//53 75//53 77//53
f 13//53 77//53 11//53
f 11//53 77//53 79//53
f 11//53 79//53 81//53
f 1//53 113//53 2//53
f 2//53 113//53 115//53
f 2//53 115//53 117//53
f 117//53 119//53 2//53
f 2//53 119//53 121//53
f 2//53 121//53 123//53
f 15//53 61//53 13//53
f 13//53 61//53 63//53
f 13//53 63//53 65//53
f 123//53 125//53 2//53
f 2//53 125//53 127//53
f 2//53 127//53 17//53
f 17//53 127//53 129//53
f 17//53 129//53 131//53
f 35//53 37//53 153//53
f 33//53 1//53 31//53
f 31//53 1//53 5//53
f 31//53 5//53 29//53
f 29//53 5//53 27//53
f 51//53 53//53 15//53
f 81//53 83//53 11//53
f 11//53 83//53 85//53
f 11//53 85//53 87//53
f 53//53 55//53 15//53
f 15//53 55//53 57//53
f 15//53 57//53 59//53
f 157//53 159//53 33//53
f 87//53 89//53 11//53
f 11//53 89//53 91//53
f 11//53 91//53 8//53
f 8//53 91//53 93//53
f 8//53 93//53 19//53
f 153//53 37//53 151//53
f 151//53 37//53 39//53
f 151//53 39//53 149//53
f 149//53 39//53 41//53
f 149//53 41//53 43//53
f 43//53 45//53 149//53
f 149//53 45//53 47//53
f 149//53 47//53 15//53
f 15//53 47//53 49//53
f 15//53 49//53 51//53
f 35//53 153//53 33//53
f 33//53 153//53 155//53
f 33//53 155//53 157//53
f 159//53 161//53 33//53
f 33//53 161//53 163//53
f 33//53 163//53 1//53
f 1//53 163//53 165//53
f 1//53 165//53 167//53
f 19//53 21//53 8//53
f 8//53 21//53 23//53
f 8//53 23//53 5//53
f 5//53 23//53 25//53
f 5//53 25//53 27//53
f 103//53 105//53 1//53
f 1//53 105//53 107//53
f 107//53 109//53 1//53
f 1//53 109//53 111//53
f 1//53 111//53 113//53
f 167//53 169//53 1//53
f 1//53 169//53 95//53
f 1//53 95//53 97//53
f 97//53 99//53 1//53
f 1//53 99//53 101//53
f 1//53 101//53 103//53
f 10//54 173//54 9//54
f 9//54 173//54 174//54
f 84//54 82//54 12//54
f 16//54 175//54 18//54
f 18//54 175//54 176//54
f 40//54 38//54 174//54
f 174//54 38//54 36//54
f 174//54 36//54 34//54
f 82//54 80//54 12//54
f 12//54 80//54 78//54
f 12//54 78//54 14//54
f 14//54 78//54 76//54
f 14//54 76//54 74//54
f 176//54 173//54 154//54
f 34//54 32//54 174//54
f 174//54 32//54 30//54
f 174//54 30//54 28//54
f 28//54 26//54 174//54
f 174//54 26//54 24//54
f 174//54 24//54 9//54
f 9//54 24//54 22//54
f 74//54 72//54 14//54
f 14//54 72//54 70//54
f 14//54 70//54 68//54
f 22//54 20//54 9//54
f 9//54 20//54 94//54
f 9//54 94//54 12//54
f 12//54 94//54 92//54
f 12//54 92//54 90//54
f 90//54 88//54 12//54
f 12//54 88//54 86//54
f 12//54 86//54 84//54
f 52//54 50//54 175//54
f 175//54 50//54 48//54
f 48//54 46//54 175//54
f 175//54 46//54 44//54
f 175//54 44//54 174//54
f 174//54 44//54 42//54
f 174//54 42//54 40//54
f 154//54 152//54 176//54
f 176//54 152//54 150//54
f 176//54 150//54 148//54
f 148//54 146//54 176//54
f 176//54 146//54 144//54
f 176//54 144//54 142//54
f 4//54 116//54 114//54
f 170//54 168//54 173//54
f 173//54 168//54 166//54
f 110//54 108//54 3//54
f 3//54 108//54 106//54
f 3//54 106//54 104//54
f 68//54 66//54 14//54
f 14//54 66//54 64//54
f 14//54 64//54 16//54
f 16//54 64//54 62//54
f 16//54 62//54 60//54
f 166//54 164//54 173//54
f 173//54 164//54 162//54
f 173//54 162//54 160//54
f 126//54 124//54 4//54
f 4//54 124//54 122//54
f 4//54 114//54 3//54
f 3//54 114//54 112//54
f 3//54 112//54 110//54
f 160//54 158//54 173//54
f 173//54 158//54 156//54
f 173//54 156//54 154//54
f 122//54 120//54 4//54
f 4//54 120//54 118//54
f 4//54 118//54 116//54
f 104//54 102//54 3//54
f 3//54 102//54 100//54
f 3//54 100//54 10//54
f 10//54 100//54 98//54
f 10//54 98//54 173//54
f 173//54 98//54 96//54
f 173//54 96//54 170//54
f 60//54 58//54 16//54
f 16//54 58//54 56//54
f 16//54 56//54 175//54
f 175//54 56//54 54//54
f 175//54 54//54 52//54
f 134//54 132//54 18//54
f 18//54 132//54 130//54
f 18//54 130//54 4//54
f 4//54 130//54 128//54
f 4//54 128//54 126//54
f 142//54 140//54 176//54
f 176//54 140//54 138//54
f 176//54 138//54 18//54
f 18//54 138//54 136//54
f 18//54 136//54 134//54
f 177//7 178//7 173//7
f 173//7 178//7 174//7
f 178//1 179//1 174//1
f 174//1 179//1 175//1
f 179//3 180//3 175//3
f 175//3 180//3 176//3
f 180//5 177//5 176//5
f 176//5 177//5 173//5
f 180//54 179//54 177//54
f 177//54 179//54 178//54
