# Blender v2.79 (sub 0) OBJ File: ''
# www.blender.org
mtllib 336.mtl
o 336
v 3.887899 2.943209 -2.487810
v 3.760967 2.821554 -2.487810
v 6.219524 0.000000 -2.487810
v 3.615300 2.723101 -2.487810
v 3.455091 2.650681 -2.487810
v 4.123084 3.409669 -2.487810
v 4.071600 3.241557 -2.487810
v 3.992447 3.084566 -2.487810
v 2.764434 2.650681 -2.487810
v 2.604224 2.723101 -2.487810
v 0.000000 0.000000 -2.487810
v 2.392507 4.376427 -2.487810
v 2.529299 4.486879 -2.487810
v 0.000000 5.079278 -2.487810
v 2.682791 4.572624 -2.487810
v 2.848565 4.631196 -2.487810
v 6.219524 5.079278 -2.487810
v 3.370959 4.631196 -2.487810
v 3.536734 4.572624 -2.487810
v 3.690225 4.486879 -2.487810
v 3.827017 4.376427 -2.487810
v 3.943175 4.244445 -2.487810
v 4.145415 3.584062 -2.487810
v 4.137953 3.759721 -2.487810
v 3.284946 2.606379 -2.487810
v 3.109762 2.591469 -2.487810
v 2.934578 2.606379 -2.487810
v 4.035357 4.094732 -2.487810
v 4.100913 3.931592 -2.487810
v 2.458557 2.821554 -2.487810
v 2.331625 2.943209 -2.487810
v 2.227078 3.084566 -2.487810
v 3.021853 4.660909 -2.487810
v 3.109762 4.664643 -2.487810
v 3.197671 4.660909 -2.487810
v 2.147924 3.241557 -2.487810
v 2.096441 3.409669 -2.487810
v 2.074109 3.584062 -2.487810
v 2.081571 3.759721 -2.487810
v 2.118612 3.931592 -2.487810
v 2.184166 4.094732 -2.487810
v 2.276349 4.244445 -2.487810
v 2.848565 4.631196 -3.939032
v 2.682791 4.572624 -3.939032
v 0.000000 6.530500 -3.939032
v 2.529299 4.486879 -3.939032
v 2.392507 4.376427 -3.939032
v 3.284946 2.606379 -3.939032
v 3.455091 2.650681 -3.939032
v 6.219524 0.000000 -3.939032
v 3.615300 2.723101 -3.939032
v 3.760967 2.821554 -3.939032
v 3.887899 2.943209 -3.939032
v 3.992447 3.084566 -3.939032
v 0.000000 0.000000 -3.939032
v 2.458557 2.821554 -3.939032
v 2.604224 2.723101 -3.939032
v 2.276349 4.244445 -3.939032
v 2.184166 4.094732 -3.939032
v 2.118612 3.931592 -3.939032
v 2.081571 3.759721 -3.939032
v 2.074109 3.584062 -3.939032
v 2.096441 3.409669 -3.939032
v 2.147924 3.241557 -3.939032
v 2.227078 3.084566 -3.939032
v 2.331625 2.943209 -3.939032
v 2.764434 2.650681 -3.939032
v 2.934578 2.606379 -3.939032
v 3.109762 2.591469 -3.939032
v 3.536734 4.572624 -3.939032
v 3.370959 4.631196 -3.939032
v 6.219524 6.530500 -3.939032
v 4.071600 3.241557 -3.939032
v 4.123084 3.409669 -3.939032
v 4.145415 3.584062 -3.939032
v 4.137953 3.759721 -3.939032
v 3.197671 4.660909 -3.939032
v 3.109762 4.664643 -3.939032
v 3.021853 4.660909 -3.939032
v 4.100913 3.931592 -3.939032
v 4.035357 4.094732 -3.939032
v 3.943175 4.244445 -3.939032
v 3.827017 4.376427 -3.939032
v 3.690225 4.486879 -3.939032
v 0.000000 5.908548 0.000000
v 0.000000 6.530500 0.000000
v 0.000000 5.908548 -1.036587
v 0.000000 5.079278 -1.036587
v 6.219524 6.530500 0.000000
v 6.219524 5.908548 -1.036587
v 6.219524 5.908548 0.000000
v 6.219524 5.079278 -1.036587
vn 0.0000 0.0000 1.0000
vn 0.0000 0.0000 -1.0000
vn -1.0000 0.0000 0.0000
vn 0.0000 1.0000 0.0000
vn 1.0000 -0.0000 0.0000
vn 0.0000 -1.0000 0.0000
vn -0.0848 0.9964 0.0000
vn -0.2520 0.9677 0.0000
vn -0.4119 0.9112 0.0000
vn -0.5600 0.8285 0.0000
vn -0.6919 0.7220 0.0000
vn -0.8040 0.5946 0.0000
vn -0.8929 0.4502 0.0000
vn -0.9562 0.2928 0.0000
vn -0.9919 0.1270 0.0000
vn -0.9991 -0.0424 0.0000
vn -0.9776 -0.2107 0.0000
vn -0.9279 -0.3729 0.0000
vn -0.8515 -0.5243 0.0000
vn -0.7507 -0.6607 0.0000
vn -0.6282 -0.7780 0.0000
vn -0.4877 -0.8730 0.0000
vn -0.3331 -0.9429 0.0000
vn -0.1690 -0.9856 0.0000
vn -0.0424 -0.9991 0.0000
vn 0.0424 -0.9991 0.0000
vn 0.1690 -0.9856 0.0000
vn 0.3331 -0.9429 0.0000
vn 0.4877 -0.8730 0.0000
vn 0.6282 -0.7780 0.0000
vn 0.7507 -0.6607 0.0000
vn 0.8515 -0.5243 0.0000
vn 0.9279 -0.3729 0.0000
vn 0.9776 -0.2107 0.0000
vn 0.9991 -0.0424 0.0000
vn 0.9919 0.1270 0.0000
vn 0.9562 0.2928 0.0000
vn 0.8929 0.4502 0.0000
vn 0.8040 0.5946 0.0000
vn 0.6919 0.7220 0.0000
vn 0.5600 0.8285 0.0000
vn 0.4119 0.9112 0.0000
vn 0.2520 0.9677 0.0000
vn 0.0848 0.9964 0.0000
usemtl None
s off
f 1//1 2//1 3//1
f 3//1 2//1 4//1
f 3//1 4//1 5//1
f 6//1 7//1 3//1
f 3//1 7//1 8//1
f 3//1 8//1 1//1
f 9//1 10//1 11//1
f 12//1 13//1 14//1
f 14//1 13//1 15//1
f 14//1 15//1 16//1
f 17//1 18//1 19//1
f 19//1 20//1 17//1
f 17//1 20//1 21//1
f 17//1 21//1 22//1
f 6//1 3//1 23//1
f 23//1 3//1 17//1
f 23//1 17//1 24//1
f 5//1 25//1 3//1
f 3//1 25//1 26//1
f 3//1 26//1 11//1
f 11//1 26//1 27//1
f 11//1 27//1 9//1
f 22//1 28//1 17//1
f 17//1 28//1 29//1
f 17//1 29//1 24//1
f 10//1 30//1 11//1
f 11//1 30//1 31//1
f 11//1 31//1 32//1
f 16//1 33//1 14//1
f 14//1 33//1 34//1
f 14//1 34//1 17//1
f 17//1 34//1 35//1
f 17//1 35//1 18//1
f 32//1 36//1 11//1
f 11//1 36//1 37//1
f 11//1 37//1 14//1
f 37//1 38//1 14//1
f 14//1 38//1 39//1
f 14//1 39//1 40//1
f 40//1 41//1 14//1
f 14//1 41//1 42//1
f 14//1 42//1 12//1
f 43//2 44//2 45//2
f 45//2 44//2 46//2
f 45//2 46//2 47//2
f 48//2 49//2 50//2
f 50//2 49//2 51//2
f 51//2 52//2 50//2
f 50//2 52//2 53//2
f 50//2 53//2 54//2
f 55//2 56//2 57//2
f 47//2 58//2 45//2
f 45//2 58//2 59//2
f 45//2 59//2 60//2
f 60//2 61//2 45//2
f 45//2 61//2 62//2
f 45//2 62//2 55//2
f 55//2 62//2 63//2
f 55//2 63//2 64//2
f 64//2 65//2 55//2
f 55//2 65//2 66//2
f 55//2 66//2 56//2
f 57//2 67//2 55//2
f 55//2 67//2 68//2
f 55//2 68//2 50//2
f 50//2 68//2 69//2
f 50//2 69//2 48//2
f 70//2 71//2 72//2
f 54//2 73//2 50//2
f 50//2 73//2 74//2
f 50//2 74//2 72//2
f 72//2 74//2 75//2
f 72//2 75//2 76//2
f 71//2 77//2 72//2
f 72//2 77//2 78//2
f 72//2 78//2 45//2
f 45//2 78//2 79//2
f 45//2 79//2 43//2
f 76//2 80//2 72//2
f 72//2 80//2 81//2
f 72//2 81//2 82//2
f 82//2 83//2 72//2
f 72//2 83//2 84//2
f 72//2 84//2 70//2
f 55//3 11//3 45//3
f 45//3 11//3 14//3
f 85//3 86//3 87//3
f 87//3 86//3 45//3
f 87//3 45//3 88//3
f 88//3 45//3 14//3
f 89//4 72//4 86//4
f 86//4 72//4 45//4
f 72//5 89//5 90//5
f 90//5 89//5 91//5
f 3//5 50//5 17//5
f 17//5 50//5 72//5
f 17//5 72//5 92//5
f 92//5 72//5 90//5
f 55//6 50//6 11//6
f 11//6 50//6 3//6
f 69//7 26//7 48//7
f 48//7 26//7 25//7
f 48//8 25//8 49//8
f 49//8 25//8 5//8
f 49//9 5//9 51//9
f 51//9 5//9 4//9
f 51//10 4//10 52//10
f 52//10 4//10 2//10
f 52//11 2//11 53//11
f 53//11 2//11 1//11
f 53//12 1//12 54//12
f 54//12 1//12 8//12
f 54//13 8//13 73//13
f 73//13 8//13 7//13
f 73//14 7//14 74//14
f 74//14 7//14 6//14
f 74//15 6//15 75//15
f 75//15 6//15 23//15
f 75//16 23//16 76//16
f 76//16 23//16 24//16
f 76//17 24//17 80//17
f 80//17 24//17 29//17
f 80//18 29//18 81//18
f 81//18 29//18 28//18
f 81//19 28//19 82//19
f 82//19 28//19 22//19
f 82//20 22//20 83//20
f 83//20 22//20 21//20
f 83//21 21//21 84//21
f 84//21 21//21 20//21
f 84//22 20//22 70//22
f 70//22 20//22 19//22
f 70//23 19//23 71//23
f 71//23 19//23 18//23
f 71//24 18//24 77//24
f 77//24 18//24 35//24
f 77//25 35//25 78//25
f 78//25 35//25 34//25
f 78//26 34//26 79//26
f 79//26 34//26 33//26
f 79//27 33//27 43//27
f 43//27 33//27 16//27
f 43//28 16//28 44//28
f 44//28 16//28 15//28
f 44//29 15//29 46//29
f 46//29 15//29 13//29
f 46//30 13//30 47//30
f 47//30 13//30 12//30
f 47//31 12//31 58//31
f 58//31 12//31 42//31
f 58//32 42//32 59//32
f 59//32 42//32 41//32
f 59//33 41//33 60//33
f 60//33 41//33 40//33
f 60//34 40//34 61//34
f 61//34 40//34 39//34
f 61//35 39//35 62//35
f 62//35 39//35 38//35
f 62//36 38//36 63//36
f 63//36 38//36 37//36
f 63//37 37//37 64//37
f 64//37 37//37 36//37
f 64//38 36//38 65//38
f 65//38 36//38 32//38
f 65//39 32//39 66//39
f 66//39 32//39 31//39
f 66//40 31//40 56//40
f 56//40 31//40 30//40
f 56//41 30//41 57//41
f 57//41 30//41 10//41
f 57//42 10//42 67//42
f 67//42 10//42 9//42
f 67//43 9//43 68//43
f 68//43 9//43 27//43
f 68//44 27//44 69//44
f 69//44 27//44 26//44
f 92//6 88//6 17//6
f 17//6 88//6 14//6
f 88//1 92//1 87//1
f 87//1 92//1 90//1
f 91//6 85//6 90//6
f 90//6 85//6 87//6
f 91//1 89//1 85//1
f 85//1 89//1 86//1
